<svg width="18" height="16" viewBox="0 0 18 16" fill="none" xmlns="http://www.w3.org/2000/svg">
<path d="M14.8025 14.6637H3.17934C2.58002 14.6637 2.08967 14.178 2.08967 13.5843V2.06972C2.08967 1.476 2.58002 0.990234 3.17934 0.990234H14.8025C15.4018 0.990234 15.8922 1.476 15.8922 2.06972V13.5843C15.8922 14.178 15.4018 14.6637 14.8025 14.6637Z" fill="#4285F4"/>
<path d="M2.08967 7.85399L8.96368 14.6638H15.8922V6.07283H2.08967V7.85399Z" fill="url(#paint0_linear_9250_16902)"/>
<path d="M3.17934 0.990234C2.68899 0.990234 2.27128 1.31408 2.13507 1.75487L1 6.02784C1 7.12532 1.8899 8.0069 2.99773 8.0069C4.09648 8.0069 4.99546 7.12532 4.99546 6.02784L5.65834 0.990235L3.17934 0.990234Z" fill="#7BAAF7"/>
<path d="M15.8468 1.75487C15.7105 1.31408 15.2928 0.990234 14.8025 0.990234H12.3235L12.9864 6.02784C12.9864 7.12532 13.8763 8.0069 14.9841 8.0069C16.0919 8.0069 16.9818 7.12532 16.9818 6.02784L15.8468 1.75487ZM8.99091 0.990234L5.65834 0.990235L4.99546 6.02784C4.99546 7.12532 5.88535 8.0069 6.99318 8.0069C8.09193 8.0069 8.99091 7.12532 8.99091 6.02784V0.990234Z" fill="#3F51B5"/>
<path d="M8.99091 0.990234V6.02784C8.99091 7.11633 9.8899 8.0069 10.9887 8.0069C12.0965 8.0069 12.9864 7.12532 12.9864 6.02784L12.3235 0.990234H8.99091Z" fill="#7BAAF7"/>
<path d="M12.8048 11.2454V12.0109H13.8799C13.7936 12.4661 13.3923 12.7971 12.8048 12.7971C12.1528 12.7971 11.6243 12.2511 11.6243 11.6052C11.6243 10.9593 12.1528 10.4133 12.8048 10.4133C13.0981 10.4133 13.3614 10.5131 13.5684 10.7092L14.1414 10.1416C13.7955 9.82224 13.3432 9.62614 12.8048 9.62614C11.7015 9.62614 10.807 10.5122 10.807 11.6052C10.807 12.6982 11.7015 13.5843 12.8048 13.5843C13.9589 13.5843 14.7226 12.7809 14.7226 11.6502C14.7226 11.5098 14.7099 11.3749 14.6863 11.2454H12.8048Z" fill="#EEEEEE"/>
<path d="M14.8025 14.5738H3.17934C2.58002 14.5738 2.08967 14.088 2.08967 13.4943L2.08967 13.5843C2.08967 14.178 2.58002 14.6637 3.17934 14.6637H14.8025C15.4018 14.6637 15.8922 14.178 15.8922 13.5843L15.8922 13.4943C15.8922 14.088 15.4018 14.5738 14.8025 14.5738Z" fill="#3A71DC"/>
<path opacity="0.2" d="M14.9841 8.00836C13.8854 8.00836 12.9864 7.12678 12.9864 6.0293V6.11925V6.10126C12.941 7.16276 12.0692 8.00836 10.9886 8.00836C10.8524 8.00836 10.7162 7.99037 10.5891 7.97237H10.58C10.4892 7.95438 10.3893 7.9274 10.3076 7.89141H10.2985C10.2804 7.88242 10.2622 7.87342 10.235 7.86443C10.2259 7.86443 10.2168 7.85543 10.2077 7.85543C10.1805 7.84643 10.1623 7.83744 10.1351 7.82844C10.126 7.82844 10.126 7.81945 10.1169 7.81945C10.0897 7.81045 10.0715 7.79246 10.0443 7.78346C10.0352 7.78346 10.0352 7.77447 10.0261 7.77447C10.0079 7.76547 9.9807 7.74748 9.96254 7.73849C9.95346 7.73849 9.94438 7.72949 9.94438 7.72949C9.92622 7.72049 9.90806 7.7115 9.89898 7.7025C9.8899 7.69351 9.88082 7.68451 9.86266 7.68451C9.85358 7.67552 9.83541 7.66652 9.82633 7.65752C9.80817 7.64853 9.79909 7.63953 9.78093 7.63054C9.77185 7.62154 9.75369 7.61255 9.74461 7.60355C9.73553 7.59455 9.71737 7.58556 9.70829 7.57656C9.69921 7.56757 9.69012 7.55857 9.67196 7.54958L9.63564 7.51359L9.6084 7.48661C9.59024 7.47761 9.58116 7.45962 9.563 7.45062C9.55392 7.44163 9.54484 7.42364 9.52667 7.41464L9.49035 7.37866C9.48127 7.36966 9.47219 7.35167 9.45403 7.34267C9.44495 7.33368 9.43587 7.32468 9.42679 7.30669C9.41771 7.2887 9.40863 7.2797 9.39047 7.26171C9.38138 7.25272 9.3723 7.24372 9.36322 7.22573C9.35414 7.20774 9.33598 7.18975 9.3269 7.18075C9.31782 7.17175 9.30874 7.16276 9.30874 7.15376C9.29966 7.13577 9.29058 7.11778 9.2815 7.10878C9.27242 7.09979 9.26334 7.09079 9.26334 7.0728C9.25426 7.05481 9.2361 7.03682 9.22701 7.00983C9.22701 7.00084 9.21793 6.99184 9.21793 6.99184C9.20885 6.97385 9.19069 6.94686 9.18161 6.92887C9.18161 6.91987 9.17253 6.91987 9.17253 6.91088C9.16345 6.89289 9.15437 6.8659 9.14529 6.84791C9.14529 6.83891 9.13621 6.82992 9.13621 6.82992C9.12713 6.80293 9.11805 6.78494 9.10897 6.75795C9.10897 6.74896 9.09989 6.73996 9.09989 6.73996L9.07265 6.659V6.65L9.0454 6.56904V6.56005C9.03632 6.52406 9.02724 6.49708 9.02724 6.46109C9.00908 6.29917 8.99092 6.16423 8.99092 6.0293V6.13725C8.99092 6.16423 8.99092 6.19122 8.98184 6.2272V6.2362C8.98184 6.26319 8.97276 6.29017 8.97276 6.31716V6.33515C8.97276 6.36214 8.96368 6.38013 8.96368 6.40712V6.4341C8.9546 6.46109 8.9546 6.47908 8.94552 6.50607C8.94552 6.51507 8.94552 6.52406 8.93644 6.53306C8.92736 6.56004 8.92736 6.57804 8.91827 6.60502C8.91827 6.61402 8.91827 6.62301 8.90919 6.63201C8.90011 6.65 8.89103 6.67699 8.88195 6.69498C8.88195 6.70398 8.87287 6.71297 8.87287 6.72197C8.86379 6.73996 8.85471 6.75795 8.84563 6.78494C8.84563 6.79393 8.83655 6.80293 8.83655 6.81193L8.80931 6.8659C8.80023 6.8749 8.80023 6.89289 8.79115 6.90188C8.78207 6.91987 8.77298 6.92887 8.77298 6.94686C8.7639 6.96485 8.75482 6.97385 8.74574 6.99184C8.73666 7.00084 8.73666 7.00983 8.72758 7.02782L8.70034 7.0818C8.69126 7.09079 8.68218 7.09979 8.68218 7.11778C8.6731 7.13577 8.66402 7.15376 8.65494 7.16276C8.64586 7.17175 8.63678 7.18075 8.63678 7.18975C8.6277 7.20774 8.61862 7.22573 8.60045 7.23472C8.59137 7.24372 8.58229 7.25272 8.57321 7.27071C8.56413 7.2887 8.55505 7.2977 8.53689 7.31569C8.52781 7.32468 8.51873 7.34267 8.50965 7.35167C8.50057 7.36066 8.49149 7.37866 8.47333 7.38765L8.44608 7.41464C8.437 7.43263 8.41884 7.44163 8.40976 7.45962L8.38252 7.48661L8.33712 7.53158L8.30988 7.55857C8.29171 7.56757 8.28263 7.58556 8.26447 7.59455C8.25539 7.59455 8.25539 7.60355 8.24631 7.60355C8.22815 7.62154 8.20999 7.63054 8.19183 7.64853L8.18275 7.65752C8.16459 7.67552 8.13734 7.69351 8.1101 7.7025H8.10102C8.07378 7.72049 8.05562 7.73849 8.02838 7.74748H8.0193C7.99205 7.76547 7.96481 7.77447 7.93757 7.79246C7.92849 7.79246 7.92849 7.80146 7.91941 7.80146C7.89217 7.81045 7.87401 7.82844 7.84677 7.83744C7.83768 7.83744 7.83768 7.84643 7.8286 7.84643C7.81044 7.85543 7.7832 7.86443 7.75596 7.87342C7.74688 7.87342 7.7378 7.88242 7.72872 7.88242C7.71056 7.89141 7.6924 7.90041 7.66515 7.9094H7.65607L7.57435 7.93639C7.56527 7.93639 7.55619 7.94539 7.54711 7.94539C7.52894 7.95438 7.5017 7.95438 7.48354 7.96338C7.46538 7.96338 7.44722 7.97237 7.42906 7.97237C7.4109 7.97237 7.40182 7.98137 7.38366 7.98137C7.36549 7.98137 7.34733 7.99037 7.32917 7.99037C7.31101 7.99037 7.30193 7.99936 7.28377 7.99936C7.25653 8.00836 7.2202 8.00836 7.19296 8.00836H7.18388C7.16572 8.00836 7.13848 8.00836 7.12032 8.01735H6.97503C5.87628 8.01735 4.9773 7.13577 4.9773 6.03829C4.9773 6.68599 4.65948 7.26171 4.17821 7.62154L4.09648 7.67552C3.79682 7.88242 3.41544 8.00836 2.99773 8.00836C1.92622 8.00836 1.0454 7.16276 1 6.11026V6.11925C1 7.21673 1.89898 8.09832 2.99773 8.09832C3.41544 8.09832 3.79682 7.97237 4.11464 7.75648L4.19637 7.7025C4.68672 7.34267 4.99546 6.76695 4.99546 6.11925C4.99546 7.20774 5.89444 8.09832 6.99319 8.09832H7.13848C7.15664 8.09832 7.18388 8.09832 7.20204 8.08932H7.21112C7.23837 8.08932 7.27469 8.08032 7.30193 8.08032C7.32009 8.08032 7.32917 8.07133 7.34733 8.07133C7.36549 8.07133 7.38366 8.06233 7.40182 8.06233C7.41998 8.06233 7.42906 8.05334 7.44722 8.05334C7.46538 8.05334 7.48354 8.04434 7.5017 8.04434C7.51986 8.03535 7.54711 8.03534 7.56527 8.02635C7.57435 8.02635 7.58343 8.01735 7.59251 8.01735L7.67423 7.99037H7.68331C7.70148 7.98137 7.71964 7.97237 7.74688 7.96338C7.75596 7.96338 7.76504 7.95438 7.77412 7.95438C7.80136 7.94539 7.81952 7.93639 7.84677 7.9274C7.85585 7.9274 7.85585 7.9184 7.86493 7.9184C7.89217 7.9094 7.91033 7.89141 7.93757 7.88242C7.94665 7.88242 7.94665 7.87342 7.95573 7.87342C7.98297 7.85543 8.01022 7.84643 8.03746 7.82844H8.04654C8.07378 7.81045 8.10102 7.80146 8.11918 7.78346H8.12826C8.15551 7.76547 8.17367 7.74748 8.20091 7.73849L8.20999 7.72949C8.22815 7.7115 8.24631 7.7025 8.26447 7.68451C8.27355 7.68451 8.27355 7.67552 8.28263 7.67552C8.30079 7.66652 8.30988 7.64853 8.32804 7.63953L8.35528 7.61255L8.40068 7.56757L8.42792 7.54058C8.437 7.53158 8.45516 7.51359 8.46424 7.4956L8.49149 7.46861C8.50057 7.45962 8.50965 7.44163 8.52781 7.43263C8.53689 7.42364 8.54597 7.41464 8.55505 7.39665C8.56413 7.37866 8.57321 7.36966 8.59137 7.35167C8.60045 7.34267 8.60953 7.33368 8.61862 7.31569C8.6277 7.2977 8.64586 7.2797 8.65494 7.27071C8.66402 7.26171 8.6731 7.25272 8.6731 7.24372C8.68218 7.22573 8.69126 7.20774 8.70034 7.19874C8.70942 7.18975 8.7185 7.18075 8.7185 7.16276L8.74574 7.10878C8.75482 7.09979 8.75482 7.09079 8.7639 7.0728C8.77299 7.05481 8.78207 7.04581 8.79115 7.02782C8.80023 7.00983 8.80931 7.00084 8.80931 6.98284C8.81839 6.97385 8.81839 6.95586 8.82747 6.94686L8.85471 6.89289C8.85471 6.88389 8.86379 6.8749 8.86379 6.8659C8.87287 6.84791 8.88195 6.82992 8.89103 6.80293C8.89103 6.79393 8.90011 6.78494 8.90011 6.77594C8.90919 6.75795 8.91827 6.73096 8.92736 6.71297C8.92736 6.70398 8.93644 6.69498 8.93644 6.68599C8.94552 6.659 8.9546 6.64101 8.9546 6.61402C8.9546 6.60502 8.9546 6.59603 8.96368 6.58703C8.97276 6.56004 8.97276 6.54205 8.98184 6.51507V6.48808C8.99092 6.46109 8.99092 6.4431 8.99092 6.41611V6.39812C8.99092 6.37113 9 6.34415 9 6.31716V6.30816C9 6.28118 9.00908 6.25419 9.00908 6.21821V6.11026C9.00908 6.24519 9.02724 6.38013 9.0454 6.50607C9.05448 6.54205 9.06356 6.56904 9.06356 6.60502V6.61402L9.09081 6.69498V6.70398L9.11805 6.78494C9.11805 6.79393 9.12713 6.80293 9.12713 6.80293C9.13621 6.82992 9.14529 6.84791 9.15437 6.8749C9.15437 6.88389 9.16345 6.89289 9.16345 6.89289C9.17253 6.91088 9.18161 6.93787 9.19069 6.95586C9.19069 6.96485 9.19977 6.96485 9.19977 6.97385C9.20885 7.00084 9.21793 7.01883 9.2361 7.03682C9.2361 7.04581 9.24518 7.05481 9.24518 7.05481C9.25426 7.0728 9.27242 7.09979 9.2815 7.11778C9.29058 7.12678 9.29966 7.13577 9.29966 7.15376C9.30874 7.17175 9.31782 7.18975 9.3269 7.19874C9.33598 7.20774 9.34506 7.21673 9.34506 7.22573C9.35414 7.24372 9.36322 7.26171 9.38138 7.27071C9.39047 7.2797 9.39955 7.2887 9.40863 7.30669C9.41771 7.32468 9.42679 7.33368 9.44495 7.35167C9.45403 7.36066 9.46311 7.37866 9.47219 7.38765C9.48127 7.39665 9.49035 7.41464 9.50851 7.42364L9.54484 7.45962C9.55392 7.46861 9.563 7.48661 9.58116 7.4956C9.59024 7.5046 9.6084 7.52259 9.62656 7.53158L9.6538 7.55857L9.69012 7.59455C9.69012 7.59455 9.70829 7.61255 9.72645 7.62154C9.73553 7.63054 9.75369 7.63953 9.76277 7.64853C9.77185 7.65752 9.79001 7.66652 9.79909 7.67552C9.80817 7.68451 9.82633 7.69351 9.84449 7.7025C9.85358 7.7115 9.87174 7.72049 9.88082 7.72949C9.8899 7.73849 9.89898 7.74748 9.91714 7.74748C9.9353 7.75648 9.95346 7.76547 9.96254 7.77447C9.97162 7.77447 9.9807 7.78346 9.9807 7.78346C9.99887 7.79246 10.0261 7.81045 10.0443 7.81945C10.0533 7.81945 10.0533 7.82844 10.0624 7.82844C10.0897 7.83744 10.1078 7.85543 10.1351 7.86443C10.1442 7.86443 10.1442 7.87342 10.1532 7.87342C10.1714 7.88242 10.1986 7.89141 10.2259 7.90041C10.235 7.90041 10.244 7.9094 10.2531 7.9094C10.2713 7.9184 10.2894 7.9274 10.3167 7.93639H10.3258C10.4166 7.97237 10.5074 7.99037 10.5982 8.01735H10.6073C10.7344 8.04434 10.8706 8.05334 11.0068 8.05334C12.1056 8.05334 13.0045 7.17175 13.0045 6.07428C13.0045 7.16276 13.9035 8.05334 15.0023 8.05334C16.1101 8.05334 17 7.17175 17 6.07428V6.06528C16.9364 7.16276 16.0556 8.00836 14.9841 8.00836Z" fill="#1A237E"/>
<path opacity="0.1" d="M16.9818 6.0293C16.9818 7.12678 16.0919 8.00836 14.9841 8.00836C13.8763 8.00836 12.9864 7.12678 12.9864 6.0293H16.9818ZM4.99546 6.0293C4.99546 7.12678 4.10556 8.00836 2.99773 8.00836C1.8899 8.00836 1 7.12678 1 6.0293H4.99546ZM8.99092 6.0293C8.99092 7.12678 8.10102 8.00836 6.99319 8.00836C5.88536 8.00836 4.99546 7.12678 4.99546 6.0293H8.99092ZM12.9864 6.0293C12.9864 7.12678 12.0965 8.00836 10.9887 8.00836C9.88082 8.00836 8.99092 7.12678 8.99092 6.0293H12.9864Z" fill="#231F20"/>
<path opacity="0.2" d="M12.3235 1.08019H12.3326L12.3235 0.990234H3.17934C2.68899 0.990234 2.27128 1.31408 2.13507 1.75487L1 6.02784V6.10881L2.13507 1.84483C2.27128 1.40404 2.68899 1.08019 3.17934 1.08019H12.3235ZM15.8468 1.84483L16.9818 6.10881V6.02784L15.8468 1.75487C15.7106 1.31408 15.2929 0.990234 14.8025 0.990234H12.3235L12.3326 1.08019H14.8025C15.2929 1.08019 15.7106 1.40404 15.8468 1.84483Z" fill="white"/>
<path d="M17.4953 5.96782V6.03261C17.4953 6.87884 17.0607 7.63361 16.4044 8.07708V13.5827C16.4044 14.4548 15.6864 15.1566 14.8182 15.1566H3.18182C2.31358 15.1566 1.59558 14.4548 1.59558 13.5827V8.07708C0.939284 7.63361 0.504673 6.87884 0.504673 6.03261V5.96845L0.52102 5.90641L1.64829 1.62803L1.68278 1.49715L1.70611 1.47408C1.7063 1.47363 1.70649 1.47319 1.70669 1.47275C1.71799 1.43261 1.73207 1.40048 1.74313 1.3781C1.75178 1.35645 1.75953 1.34113 1.76336 1.33356L1.76366 1.33295C1.77365 1.3132 1.78756 1.2885 1.80628 1.2618C1.80858 1.25813 1.81071 1.25482 1.8126 1.25191L1.83984 1.19805L1.86959 1.16864C1.87447 1.1621 1.88072 1.15401 1.88815 1.14505C1.88913 1.14387 1.89016 1.14264 1.89123 1.14138L1.90347 1.11716L1.93323 1.08774C1.93811 1.08121 1.94435 1.07312 1.95179 1.06416C1.96055 1.0536 1.97271 1.03971 1.98811 1.02449L2.33636 1.37673L1.98811 1.02449L2.04266 0.970564L2.06993 0.943599L2.12688 0.887291L2.14502 0.878323C2.14537 0.877972 2.14574 0.877606 2.14612 0.877225C2.16522 0.858058 2.2203 0.802809 2.30689 0.757975C2.33213 0.740173 2.35503 0.726602 2.3729 0.716828C2.37471 0.715843 2.37646 0.714897 2.37815 0.713989L17.4953 5.96782ZM17.4953 5.96782L17.4787 5.90521L16.3499 1.66446L17.4953 5.96782ZM2.23029 0.821081C2.22887 0.822447 2.22745 0.823826 2.22603 0.825217L2.23029 0.821081ZM2.38563 0.709014C2.38498 0.709453 2.38439 0.709852 2.38386 0.710211L15.6386 0.730252C15.6311 0.725127 15.6239 0.720496 15.6172 0.716323C15.6135 0.714073 15.61 0.711967 15.6067 0.710008C15.5673 0.684244 15.5304 0.666131 15.5173 0.659722L15.5152 0.658658L15.4031 0.584789H15.3429C15.3302 0.580422 15.3201 0.577126 15.3139 0.575114C15.3121 0.574548 15.3107 0.574083 15.3096 0.573725L15.2341 0.548836H15.2248L15.1703 0.521872H15.1139C15.1121 0.52154 15.1103 0.521212 15.1085 0.520889C15.0982 0.519059 15.0856 0.517128 15.0711 0.515627C15.07 0.515513 15.0689 0.515402 15.0677 0.515292C15.0587 0.513703 15.0443 0.511281 15.0278 0.509199C15.0073 0.506612 14.9789 0.503895 14.9455 0.503895H14.9258L14.9256 0.50387C14.9092 0.501511 14.8632 0.494907 14.8091 0.494907H3.18182C3.18129 0.494907 3.18032 0.494886 3.17892 0.494857C3.16449 0.494552 3.10519 0.493298 3.03362 0.504015C2.98782 0.50494 2.94904 0.510989 2.92817 0.51483C2.92527 0.515083 2.92249 0.515351 2.91982 0.515627C2.90534 0.517129 2.89269 0.519059 2.88238 0.520889C2.88056 0.521213 2.87877 0.521541 2.87701 0.521872H2.82062L2.76607 0.548836H2.75685L2.68132 0.573726C2.65373 0.58282 2.63094 0.591842 2.61951 0.596368L2.61786 0.597023C2.60506 0.600817 2.59391 0.604657 2.58462 0.608099C2.58107 0.609415 2.57767 0.61072 2.57444 0.611995C2.48252 0.643571 2.4059 0.695324 2.38563 0.709014ZM15.7716 0.814622C15.7686 0.812268 15.7655 0.809856 15.7622 0.807399C15.7347 0.784711 15.6939 0.755826 15.6408 0.731671L15.7716 0.814622ZM1.7655 1.33691L1.76545 1.337L1.7655 1.33691Z" stroke="#EAECEF" stroke-width="0.990655"/>
<defs>
<linearGradient id="paint0_linear_9250_16902" x1="4.52083" y1="-3.64219" x2="21.4289" y2="8.77431" gradientUnits="userSpaceOnUse">
<stop stop-color="#1A237E" stop-opacity="0.2"/>
<stop offset="1" stop-color="#1A237E" stop-opacity="0.02"/>
</linearGradient>
</defs>
</svg>
