<svg width="16" height="16" viewBox="0 0 16 16" fill="none" xmlns="http://www.w3.org/2000/svg">
<g clip-path="url(#clip0_9081_26913)">
<path d="M14.8164 0H1.18015C0.529095 0 0 0.516493 0 1.15364V14.8455C0 15.4826 0.529095 16 1.18015 16H14.8164C15.4687 16 16 15.4826 16 14.8455V1.15364C16 0.516493 15.4687 0 14.8164 0Z" fill="#AEB5C1"/>
<path d="M2.37099 5.9987H4.74648V13.6341H2.37099V5.9987ZM3.55939 2.20313C3.83156 2.20323 4.09759 2.28404 4.32384 2.43533C4.55009 2.58661 4.7264 2.80159 4.83048 3.05307C4.93456 3.30455 4.96173 3.58124 4.90855 3.84817C4.85538 4.11509 4.72426 4.36025 4.53176 4.55265C4.33926 4.74506 4.09403 4.87607 3.82707 4.92911C3.56012 4.98216 3.28343 4.95486 3.03199 4.85067C2.78055 4.74647 2.56565 4.57007 2.41447 4.34375C2.26328 4.11744 2.1826 3.85138 2.18262 3.57921C2.18265 3.39846 2.21829 3.21948 2.2875 3.0525C2.35671 2.88552 2.45814 2.73381 2.58598 2.60602C2.71383 2.47824 2.86559 2.37689 3.03261 2.30776C3.19963 2.23863 3.37863 2.20308 3.55939 2.20313" fill="white"/>
<path d="M6.23511 5.99806H8.50992V7.04188H8.54246C8.85886 6.44162 9.6332 5.80859 10.7878 5.80859C13.1906 5.80859 13.6346 7.38957 13.6346 9.44597V13.6335H11.2617V9.92037C11.2617 9.03495 11.2465 7.89584 10.0286 7.89584C8.79379 7.89584 8.60539 8.8609 8.60539 9.85699V13.6335H6.23511V5.99806Z" fill="white"/>
</g>
<defs>
<clipPath id="clip0_9081_26913">
<rect width="16" height="16" fill="white"/>
</clipPath>
</defs>
</svg>
