<svg width="16" height="16" viewBox="0 0 16 16" fill="none" xmlns="http://www.w3.org/2000/svg">
<circle cx="8" cy="8" r="8" fill="white"/>
<path d="M16 7.9959C16 3.5838 12.4144 0 8 0C3.58564 0 0 3.5838 0 7.9959C0 11.9897 2.92923 15.2947 6.75282 15.8934V10.3004H4.70975V7.9877H6.75282V6.2245C6.75282 4.22348 7.94256 3.10815 9.7641 3.10815C10.6421 3.10815 11.5446 3.28037 11.5446 3.28037V5.23219H10.5436C9.55077 5.23219 9.23077 5.85546 9.23077 6.48693V7.9877H11.4544L11.1015 10.3004H9.23898V15.8934C13.0708 15.2947 16 11.9897 16 7.9959Z" fill="#AEB5C1"/>
</svg>
