<svg width="18" height="18" viewBox="0 0 18 18" fill="none" xmlns="http://www.w3.org/2000/svg">
<path d="M17 9C17 13.4183 13.4183 17 9 17C4.58172 17 1 13.4183 1 9C1 4.58172 4.58172 1 9 1C13.4183 1 17 4.58172 17 9Z" fill="#AEB5C1"/>
<path d="M7.93808 7.85609V7.4218C7.79267 7.40201 7.64494 7.38964 7.49419 7.38964C5.67774 7.38964 4.2 8.86743 4.2 10.6839C4.2 11.7984 4.75683 12.7846 5.60632 13.381C5.05806 12.7924 4.73264 12.004 4.73264 11.138C4.73264 9.34767 6.15755 7.89769 7.93808 7.85609Z" fill="#AEB5C1"/>
<path d="M8.01586 12.6517C8.82628 12.6517 9.49684 11.9978 9.52692 11.1946L9.53375 4.03225L10.8326 4.03273L10.8306 4.02196C10.8033 3.8746 10.7884 3.72297 10.7884 3.56782H8.99863L8.99575 10.7404C8.96564 11.5436 8.3046 12.1883 7.49418 12.1883C7.24231 12.1883 7.00511 12.1253 6.79631 12.0154C7.06975 12.3944 7.51391 12.6517 8.01586 12.6517Z" fill="#AEB5C1"/>
<path d="M13.2783 6.47792V6.05773C12.7784 6.05773 12.3128 5.90912 11.9224 5.65453C12.27 6.05384 12.7423 6.36317 13.2783 6.47792Z" fill="#AEB5C1"/>
<path d="M11.9224 5.65453C11.5415 5.21706 11.31 4.64618 11.31 4.02197H10.8224C10.9487 4.70389 11.3616 5.2889 11.9224 5.65453Z" fill="#D6DAE0"/>
<path d="M7.49418 9.16573C6.66466 9.16573 5.97975 9.85426 5.97975 10.6839C5.97975 11.2615 6.31746 11.7634 6.79631 12.0154C6.61786 11.7681 6.5114 11.4656 6.5114 11.138C6.5114 10.3084 7.18634 9.63351 8.01586 9.63351C8.17071 9.63351 8.31927 9.65906 8.45978 9.70306V7.87594C8.31436 7.85618 8.16663 7.84378 8.01586 7.84378C7.98978 7.84378 7.96402 7.84514 7.93807 7.84575L7.93119 7.8461L7.92634 9.22914C7.78583 9.18514 7.64903 9.16573 7.49418 9.16573Z" fill="#D6DAE0"/>
<path d="M13.2783 6.45646L13.27 6.45483L13.2696 7.83675C12.3416 7.83675 11.4793 7.53131 10.7773 7.02747L10.7779 10.6838C10.7779 12.5003 9.3106 13.9689 7.49417 13.9689C6.79222 13.9689 6.14139 13.7567 5.60632 13.381C6.20816 14.0271 7.06537 14.4322 8.01585 14.4322C9.83228 14.4322 11.31 12.9545 11.31 11.138V7.50089C12.012 8.00473 12.872 8.30161 13.8 8.30161V6.51187C13.6211 6.51187 13.4466 6.49251 13.2783 6.45646Z" fill="#D6DAE0"/>
<path d="M10.7884 10.6839V7.04674C11.4903 7.55058 12.3503 7.84746 13.2783 7.84746L13.2783 6.45646C12.7423 6.34169 12.27 6.05386 11.9224 5.65453C11.3616 5.2889 10.9569 4.70388 10.8306 4.02196L9.52031 4.02196L9.51743 11.1946C9.48735 11.9978 8.82628 12.6424 8.01585 12.6424C7.51391 12.6424 7.06975 12.3944 6.79631 12.0154C6.31746 11.7634 5.98972 11.2615 5.98972 10.6839C5.98972 9.85428 6.66465 9.17938 7.49417 9.17938C7.64903 9.17938 7.79756 9.2049 7.93809 9.2489L7.93807 7.84575C6.15754 7.88735 4.72169 9.34767 4.72169 11.138C4.72169 12.004 5.05806 12.7924 5.60632 13.381C6.14139 13.7566 6.79223 13.978 7.49417 13.978C9.3106 13.978 10.7884 12.5003 10.7884 10.6839Z" fill="white"/>
<path d="M9 17.4953C13.6918 17.4953 17.4953 13.6918 17.4953 9C17.4953 4.30816 13.6918 0.504673 9 0.504673C4.30816 0.504673 0.504673 4.30816 0.504673 9C0.504673 13.6918 4.30816 17.4953 9 17.4953Z" stroke="#EAECEF" stroke-width="0.990655"/>
</svg>
