<svg width="18" height="18" viewBox="0 0 18 18" fill="none" xmlns="http://www.w3.org/2000/svg">
<rect x="0.504673" y="0.504673" width="16.9907" height="16.8406" rx="8.42032" stroke="#EAECEF" stroke-width="0.990655"/>
<path d="M9.00073 16.85C4.57284 16.8511 0.987079 13.2813 1.00004 8.8925C1.01288 4.54017 4.59629 1.00051 9.00424 1C13.4293 0.999487 17.031 4.58068 16.9998 8.98494C16.9693 13.2897 13.435 16.8481 9.00073 16.85ZM8.99637 12.6253C9.10344 12.6253 9.21052 12.6253 9.3176 12.6253C10.0098 12.6251 10.7017 12.6094 11.3933 12.5783C11.9178 12.5552 12.4425 12.5323 12.9619 12.4497C13.5457 12.3567 13.9352 12.0353 14.1066 11.4703C14.1682 11.2671 14.197 11.0559 14.2211 10.845C14.3274 9.90866 14.3556 8.96519 14.3054 8.02421C14.2791 7.51746 14.2463 7.01142 14.144 6.51285C14.0223 5.92001 13.6722 5.54001 13.0717 5.40099C12.8835 5.3574 12.6904 5.33897 12.498 5.32159C11.7485 5.25393 10.9967 5.23039 10.2448 5.21543C9.7172 5.20494 9.18954 5.19778 8.66165 5.20351C8.00865 5.21061 7.35584 5.22059 6.7034 5.24806C6.14755 5.27147 5.59141 5.29366 5.0408 5.3803C4.45709 5.47216 4.06615 5.79144 3.89358 6.35648C3.8315 6.55973 3.80249 6.77078 3.77826 6.9816C3.67167 7.91796 3.64324 8.86143 3.69326 9.80242C3.71949 10.3092 3.75482 10.8147 3.85362 11.314C3.94858 11.7938 4.20522 12.1484 4.66218 12.3486C4.88272 12.4452 5.12096 12.4683 5.35675 12.4937C5.96731 12.5593 6.58076 12.5836 7.19419 12.6009C7.79472 12.6178 8.39565 12.6145 8.99637 12.6253Z" fill="#FE0101"/>
<path d="M8.99637 12.6253C8.39565 12.6145 7.79472 12.6178 7.19419 12.6009C6.58076 12.5836 5.96731 12.5593 5.35675 12.4937C5.12096 12.4683 4.88272 12.4452 4.66218 12.3486C4.20522 12.1484 3.94858 11.7938 3.85362 11.314C3.75482 10.8147 3.71949 10.3092 3.69326 9.80242C3.64324 8.86143 3.67167 7.91796 3.77826 6.9816C3.80249 6.77078 3.8315 6.55973 3.89358 6.35648C4.06615 5.79144 4.45709 5.47216 5.0408 5.3803C5.59141 5.29366 6.14755 5.27147 6.7034 5.24806C7.35584 5.22059 8.00865 5.21061 8.66165 5.20351C9.18954 5.19778 9.7172 5.20494 10.2448 5.21543C10.9967 5.23039 11.7485 5.25393 12.498 5.32159C12.6904 5.33897 12.8835 5.3574 13.0717 5.40099C13.6722 5.54001 14.0223 5.92001 14.144 6.51285C14.2463 7.01142 14.2791 7.51746 14.3054 8.02421C14.3556 8.96519 14.3274 9.90866 14.2211 10.845C14.197 11.0559 14.1682 11.2671 14.1066 11.4703C13.9352 12.0353 13.5457 12.3567 12.9619 12.4497C12.4425 12.5323 11.9178 12.5552 11.3933 12.5783C10.7017 12.6094 10.0098 12.6251 9.3176 12.6253C9.21052 12.6253 9.10344 12.6253 8.99637 12.6253ZM7.914 7.35373V10.4768C8.84162 9.95494 9.76123 9.43763 10.6899 8.91523L7.914 7.35373Z" fill="white"/>
<path d="M7.914 7.35373L10.6899 8.91523C9.76123 9.43763 8.84162 9.95494 7.914 10.4768V7.35373Z" fill="#FE0101"/>
</svg>
