<svg width="18" height="18" viewBox="0 0 18 18" fill="none" xmlns="http://www.w3.org/2000/svg">
<rect x="0.504673" y="0.504673" width="16.9907" height="16.9907" rx="8.49533" stroke="#EAECEF" stroke-width="0.990655"/>
<path d="M9 17C13.4183 17 17 13.4183 17 9C17 4.58172 13.4183 1 9 1C4.58172 1 1 4.58172 1 9C1 13.4183 4.58172 17 9 17Z" fill="white"/>
<path d="M1 9C1 12.4153 3.14067 15.3313 6.15333 16.4787C6.08 15.854 6.002 14.824 6.17 14.1013C6.31467 13.48 7.104 10.1427 7.104 10.1427C7.104 10.1427 6.866 9.666 6.866 8.96C6.866 7.85333 7.50733 7.02667 8.30667 7.02667C8.98667 7.02667 9.31467 7.53667 9.31467 8.148C9.31467 8.83133 8.87933 9.85267 8.65467 10.8C8.46733 11.5927 9.05267 12.2393 9.834 12.2393C11.2493 12.2393 12.338 10.7467 12.338 8.592C12.338 6.68467 10.9673 5.352 9.01067 5.352C6.74533 5.352 5.41533 7.05133 5.41533 8.808C5.41533 9.49267 5.67867 10.226 6.008 10.6253C6.03608 10.6555 6.05592 10.6924 6.06561 10.7324C6.0753 10.7725 6.07452 10.8143 6.06333 10.854C6.00267 11.106 5.868 11.6467 5.842 11.7573C5.80667 11.9027 5.72667 11.934 5.57533 11.8633C4.58067 11.4007 3.95933 9.94667 3.95933 8.77867C3.95933 6.266 5.784 3.95933 9.22067 3.95933C11.9833 3.95933 14.1307 5.928 14.1307 8.55867C14.1307 11.3033 12.4007 13.5127 9.998 13.5127C9.19067 13.5127 8.43267 13.0927 8.17267 12.5973C8.17267 12.5973 7.77333 14.1187 7.67667 14.4907C7.48867 15.2133 6.96733 16.128 6.644 16.6473C7.38933 16.8767 8.18 17 9 17C13.4183 17 17 13.4183 17 9C17 4.58172 13.4183 1 9 1C4.58172 1 1 4.58172 1 9Z" fill="#E60023"/>
</svg>
