<svg width="16" height="17" viewBox="0 0 16 17" fill="none" xmlns="http://www.w3.org/2000/svg">
<path d="M14.2494 5.53516H1.35854C1.05225 5.53516 0.803955 5.78616 0.803955 6.09579V15.557C0.803955 15.8666 1.05225 16.1177 1.35854 16.1177H14.2494C14.5557 16.1177 14.804 15.8666 14.804 15.557V6.09579C14.804 5.78616 14.5557 5.53516 14.2494 5.53516Z" fill="#AEB5C1"/>
<path d="M4.00073 7.30721H8.00073V2H4.59968L4.00073 7.30721Z" fill="#EAECEF"/>
<path d="M12.0007 7.30721H8.00073V2H11.4018L12.0007 7.30721ZM14.804 3.00605L14.809 3.02414C14.8078 3.01775 14.8054 3.01182 14.804 3.00605Z" fill="#D6DAE0"/>
<path d="M14.8088 3.02414L14.8039 3.00605C14.6771 2.419 14.1631 2.00038 13.5687 2H11.4016L12.0001 7.30736H16.0001L14.8088 3.02414Z" fill="#EAECEF"/>
<path d="M1.1971 3.00586L1.19214 3.02387C1.19334 3.01751 1.19575 3.01161 1.1971 3.00586Z" fill="#AEB5C1"/>
<path d="M1.19203 3.02414L1.19699 3.00605C1.3238 2.419 1.83779 2.00038 2.43218 2H4.5994L4 7.30736H0L1.19203 3.02414Z" fill="#D6DAE0"/>
<path fill-rule="evenodd" clip-rule="evenodd" d="M4.00702 7.30664C4.00702 8.42263 3.11209 9.32732 2.00815 9.32732C0.904209 9.32732 0.00927734 8.42263 0.00927734 7.30664H4.00702Z" fill="#EAECEF"/>
<path fill-rule="evenodd" clip-rule="evenodd" d="M8.00482 7.30664C8.00482 8.42263 7.10989 9.32732 6.00595 9.32732C4.90201 9.32732 4.00708 8.42263 4.00708 7.30664H8.00482Z" fill="#D6DAE0"/>
<path fill-rule="evenodd" clip-rule="evenodd" d="M12.0024 7.30664C12.0024 8.42263 11.1075 9.32732 10.0035 9.32732C8.89957 9.32732 8.00464 8.42263 8.00464 7.30664H12.0024Z" fill="#EAECEF"/>
<path fill-rule="evenodd" clip-rule="evenodd" d="M16.0002 7.30664C16.0002 8.42263 15.1053 9.32732 14.0013 9.32732C12.8974 9.32732 12.0024 8.42263 12.0024 7.30664H16.0002Z" fill="#D6DAE0"/>
<path d="M14.001 12.7816C13.9939 12.6854 13.9822 12.5975 13.9655 12.4853H11.785C11.785 12.7936 11.785 13.13 11.7838 13.4385H13.047C13.0202 13.5822 12.9655 13.7192 12.8861 13.8415C12.8068 13.9638 12.7043 14.0691 12.5846 14.1513C12.5846 14.1513 12.5846 14.146 12.5837 14.1458C12.4291 14.2484 12.2549 14.3172 12.0724 14.3475C11.8894 14.3814 11.7018 14.3805 11.5192 14.3451C11.3337 14.3063 11.1581 14.2294 11.0032 14.1191C10.7747 13.9552 10.5984 13.7275 10.496 13.4639C10.4882 13.4433 10.481 13.4227 10.4736 13.4017V13.3994L10.4756 13.3979C10.3762 13.103 10.3759 12.7832 10.4748 12.4882C10.5445 12.2813 10.6591 12.0927 10.8103 11.9364C11.165 11.5655 11.6949 11.426 12.1835 11.5749C12.3709 11.633 12.5421 11.7348 12.6832 11.8722L13.1094 11.4414C13.1846 11.3647 13.2626 11.2903 13.335 11.211C13.1189 11.0072 12.8652 10.8484 12.5885 10.7437C12.0849 10.5591 11.5339 10.5542 11.0271 10.7298C11.0095 10.7359 10.992 10.7423 10.9745 10.7488C10.4278 10.9566 9.97804 11.3641 9.71406 11.8908C9.62085 12.0772 9.55296 12.2755 9.51226 12.4803C9.27087 13.693 10.0028 14.8866 11.1846 15.2075C11.5709 15.3121 11.9816 15.3095 12.3709 15.2201C12.7246 15.1394 13.0517 14.9676 13.3204 14.7213C13.6007 14.4606 13.8016 14.1133 13.9068 13.7443C13.9949 13.4317 14.0267 13.1056 14.001 12.7816Z" fill="white"/>
</svg>
