<svg width="15" height="15" viewBox="0 0 15 15" fill="none" xmlns="http://www.w3.org/2000/svg">
<path d="M12.3917 4.78908C12.3597 4.99939 12.4303 5.21232 12.5805 5.36255L13.6046 6.3867C13.9116 6.69368 14.0658 7.09668 14.0658 7.49968C14.0658 7.90268 13.9123 8.30502 13.6046 8.61266L12.5524 9.6649C12.4817 9.73555 12.3954 9.78865 12.3005 9.81996C12.2055 9.85126 12.1046 9.8599 12.0057 9.84517C11.6987 9.79945 11.4819 9.53165 11.3734 9.241C11.2783 8.98417 11.1201 8.75538 10.9134 8.57567C10.7068 8.39596 10.4582 8.27111 10.1906 8.21259C9.92309 8.15407 9.64511 8.16376 9.38228 8.24078C9.11944 8.31779 8.88019 8.45965 8.68652 8.65332C8.49286 8.84699 8.35099 9.08624 8.27398 9.34907C8.19696 9.61191 8.18727 9.88989 8.24579 10.1574C8.30431 10.425 8.42917 10.6736 8.60887 10.8802C8.78858 11.0869 9.01737 11.2451 9.2742 11.3402C9.56551 11.4487 9.83265 11.6649 9.87837 11.9725C9.89315 12.0714 9.88454 12.1723 9.85323 12.2673C9.82193 12.3622 9.76879 12.4485 9.6981 12.5192L8.64652 13.5708C8.50047 13.7173 8.3269 13.8336 8.13578 13.9128C7.94467 13.9921 7.73978 14.0328 7.53288 14.0326C7.32613 14.0328 7.12137 13.9922 6.93037 13.9131C6.73936 13.834 6.56588 13.7178 6.4199 13.5714L5.39575 12.5473C5.32173 12.4731 5.23135 12.4174 5.13186 12.3845C5.03238 12.3516 4.92657 12.3425 4.82293 12.3579C4.50093 12.4062 4.27428 12.6871 4.15671 12.9901C4.05817 13.2431 3.89812 13.4674 3.69104 13.643C3.48396 13.8185 3.23639 13.9396 2.97073 13.9954C2.70506 14.0512 2.42968 14.0398 2.16949 13.9624C1.90931 13.885 1.67253 13.7439 1.48058 13.552C1.28863 13.36 1.14756 13.1233 1.07014 12.8631C0.992716 12.6029 0.98138 12.3275 1.03716 12.0618C1.09294 11.7962 1.21407 11.5486 1.38959 11.3415C1.56512 11.1344 1.7895 10.9744 2.04244 10.8759C2.34551 10.7583 2.62636 10.5316 2.67404 10.2096C2.68953 10.106 2.68053 10.0003 2.64775 9.90079C2.61496 9.80131 2.55932 9.7109 2.48528 9.63681L1.46113 8.61266C1.31472 8.46668 1.19862 8.2932 1.11948 8.1022C1.04034 7.91119 0.999738 7.70643 1 7.49968C1 7.09668 1.15415 6.69368 1.46113 6.3867L2.45785 5.38998C2.61461 5.23322 2.83733 5.15942 3.05679 5.19207C3.39317 5.24237 3.62961 5.53694 3.75763 5.85176C3.85933 6.10111 4.02111 6.32143 4.22857 6.4931C4.43603 6.66478 4.68273 6.78249 4.94669 6.83574C5.21065 6.889 5.48369 6.87614 5.74149 6.79832C5.99928 6.7205 6.23383 6.58014 6.42424 6.38973C6.61465 6.19932 6.75501 5.96477 6.83283 5.70698C6.91065 5.44918 6.92351 5.17615 6.87025 4.91218C6.817 4.64822 6.69929 4.40152 6.52761 4.19406C6.35594 3.9866 6.13561 3.82482 5.88627 3.72312C5.57145 3.5951 5.27688 3.35866 5.22658 3.02229C5.19393 2.80282 5.26708 2.58075 5.42449 2.42334L6.42056 1.42727C6.56651 1.28106 6.73991 1.16512 6.93079 1.0861C7.12168 1.00708 7.32629 0.966535 7.53288 0.966798C7.93588 0.966798 8.33888 1.12094 8.64586 1.42793L9.67002 2.45208C9.82024 2.6023 10.0332 2.67285 10.2428 2.64149C10.5648 2.59316 10.7915 2.3123 10.9091 2.00924C11.0076 1.7563 11.1676 1.53191 11.3747 1.35639C11.5818 1.18086 11.8294 1.05973 12.095 1.00395C12.3607 0.948177 12.6361 0.959512 12.8963 1.03694C13.1565 1.11436 13.3932 1.25543 13.5852 1.44738C13.7771 1.63933 13.9182 1.8761 13.9956 2.13629C14.0731 2.39647 14.0844 2.67186 14.0286 2.93752C13.9728 3.20319 13.8517 3.45076 13.6762 3.65784C13.5006 3.86491 13.2763 4.02496 13.0233 4.12351C12.7203 4.24108 12.4394 4.46707 12.3917 4.78908Z" fill="#7A66F0" stroke="#7A66F0" stroke-width="0.783789" stroke-linecap="round" stroke-linejoin="round"/>
</svg>
