<svg width="16" height="16" viewBox="0 0 16 16" fill="none" xmlns="http://www.w3.org/2000/svg">
<path d="M10.9998 1.90904L10.9997 13.9087C10.9997 15.2524 11.9258 15.9996 12.9088 15.9996C13.8179 15.9996 14.8178 15.3632 14.8178 13.9087L14.8179 1.99994C14.8179 0.769865 13.9088 5.26749e-09 12.9088 3.45679e-09C11.9088 1.64609e-09 10.9998 0.849408 10.9998 1.90904Z" fill="#AEB5C1"/>
<path d="M6 8.00083L5.99998 13.9098C5.99998 15.2535 6.9261 16.0006 7.90904 16.0006C8.81812 16.0006 9.8181 15.3643 9.81811 13.9098L9.81812 8.09174C9.81812 6.86166 8.90905 6.0918 7.90906 6.0918C6.90908 6.0918 6 6.94121 6 8.00083Z" fill="#AEB5C1"/>
<path d="M4.81788 14.0907C4.81787 15.1446 3.96277 15.9997 2.90881 15.9997C1.85485 15.9997 0.999749 15.1446 0.999752 14.0907C0.999754 13.0367 1.85486 12.1816 2.90882 12.1816C3.96278 12.1816 4.81788 13.0367 4.81788 14.0907Z" fill="#AEB5C1"/>
</svg>
