<svg width="18" height="18" viewBox="0 0 18 18" fill="none" xmlns="http://www.w3.org/2000/svg">
<path d="M15.8164 1H2.18015C1.52909 1 1 1.51168 1 2.1429V15.7071C1 16.3384 1.52909 16.8509 2.18015 16.8509H15.8164C16.4687 16.8509 17 16.3384 17 15.7071V2.1429C17 1.51168 16.4687 1 15.8164 1Z" fill="#2668B2"/>
<path d="M3.37061 6.94251H5.74611V14.5068H3.37061V6.94251ZM4.55901 3.1823C4.83119 3.1824 5.09722 3.26246 5.32347 3.41233C5.54972 3.56221 5.72603 3.77518 5.8301 4.02432C5.93418 4.27346 5.96135 4.54757 5.90818 4.81201C5.85501 5.07644 5.72388 5.31932 5.53138 5.50993C5.33888 5.70055 5.09365 5.83033 4.82669 5.88288C4.55974 5.93543 4.28305 5.90839 4.03161 5.80517C3.78017 5.70195 3.56528 5.52719 3.41409 5.30298C3.2629 5.07877 3.18222 4.81519 3.18224 4.54556C3.18228 4.36649 3.21792 4.18918 3.28713 4.02376C3.35634 3.85833 3.45776 3.70803 3.58561 3.58144C3.71345 3.45485 3.86522 3.35444 4.03224 3.28596C4.19925 3.21747 4.37825 3.18225 4.55901 3.1823Z" fill="white"/>
<path d="M7.23505 6.94249H9.50986V7.97659H9.54239C9.8588 7.38192 10.6331 6.75479 11.7877 6.75479C14.1905 6.75479 14.6346 8.32104 14.6346 10.3583V14.5068H12.2617V10.8283C12.2617 9.95109 12.2465 8.82259 11.0286 8.82259C9.79373 8.82259 9.60533 9.77866 9.60533 10.7655V14.5068H7.23505V6.94249Z" fill="white"/>
<path d="M15.8164 0.504673H2.18015C1.27083 0.504673 0.504673 1.22306 0.504673 2.1429V15.7071C0.504673 16.6265 1.27033 17.3462 2.18015 17.3462H15.8164C16.7259 17.3462 17.4953 16.628 17.4953 15.7071V2.1429C17.4953 1.22155 16.7254 0.504673 15.8164 0.504673Z" stroke="#EAECEF" stroke-width="0.990655"/>
</svg>
