<svg width="18" height="18" viewBox="0 0 18 18" fill="none" xmlns="http://www.w3.org/2000/svg">
<rect x="1" y="1" width="16" height="16" rx="4.55701" fill="#EAECEF"/>
<path d="M6.33376 9C6.33376 7.5273 7.5273 6.33312 9 6.33312C10.4727 6.33312 11.6669 7.5273 11.6669 9C11.6669 10.4727 10.4727 11.6669 9 11.6669C7.5273 11.6669 6.33376 10.4727 6.33376 9ZM4.8921 9C4.8921 11.2688 6.7312 13.1079 9 13.1079C11.2688 13.1079 13.1079 11.2688 13.1079 9C13.1079 6.7312 11.2688 4.8921 9 4.8921C6.7312 4.8921 4.8921 6.7312 4.8921 9ZM12.3105 4.72922C12.3105 4.91909 12.3667 5.10471 12.4721 5.26263C12.5775 5.42054 12.7274 5.54365 12.9028 5.61638C13.0782 5.68911 13.2712 5.7082 13.4574 5.67123C13.6437 5.63426 13.8148 5.5429 13.9491 5.40869C14.0834 5.27449 14.1749 5.10347 14.212 4.91726C14.2491 4.73106 14.2302 4.53802 14.1576 4.36258C14.085 4.18713 13.962 4.03715 13.8042 3.9316C13.6464 3.82605 13.4608 3.76968 13.2709 3.7696C13.0164 3.76972 12.772 3.87085 12.592 4.05077C12.412 4.2307 12.3107 4.47471 12.3105 4.72922ZM5.768 15.5118C4.98803 15.4763 4.5641 15.3464 4.28237 15.2366C3.90886 15.0912 3.64237 14.918 3.36218 14.6382C3.08198 14.3584 2.90854 14.0922 2.76378 13.7187C2.65395 13.4371 2.52403 13.013 2.48858 12.233C2.44979 11.3898 2.44205 11.1364 2.44205 9.00006C2.44205 6.86368 2.45043 6.61107 2.48858 5.7671C2.5241 4.98714 2.65498 4.5639 2.76378 4.28147C2.90918 3.90797 3.08237 3.64147 3.36218 3.36128C3.64198 3.08109 3.90822 2.90765 4.28237 2.76288C4.56397 2.65306 4.98803 2.52314 5.768 2.48768C6.61126 2.4489 6.86458 2.44115 9 2.44115C11.1354 2.44115 11.389 2.44954 12.233 2.48768C13.0129 2.5232 13.4362 2.65408 13.7186 2.76288C14.0921 2.90765 14.3586 3.08147 14.6388 3.36128C14.919 3.64109 15.0918 3.90797 15.2372 4.28147C15.347 4.56307 15.4769 4.98714 15.5124 5.7671C15.5512 6.61107 15.5589 6.86368 15.5589 9.00006C15.5589 11.1364 15.5512 11.3891 15.5124 12.233C15.4769 13.013 15.3463 13.4369 15.2372 13.7187C15.0918 14.0922 14.9186 14.3587 14.6388 14.6382C14.359 14.9178 14.0921 15.0912 13.7186 15.2366C13.437 15.3464 13.0129 15.4764 12.233 15.5118C11.3897 15.5506 11.1364 15.5583 9 15.5583C6.86362 15.5583 6.61101 15.5506 5.768 15.5118ZM5.70176 1.04845C4.85011 1.08723 4.26816 1.22227 3.75994 1.42003C3.2336 1.62426 2.78803 1.89824 2.34278 2.34278C1.89754 2.78733 1.62426 3.2336 1.42003 3.75994C1.22227 4.26848 1.08723 4.85011 1.04845 5.70176C1.00902 6.55475 1 6.82746 1 9C1 11.1725 1.00902 11.4452 1.04845 12.2982C1.08723 13.15 1.22227 13.7315 1.42003 14.2401C1.62426 14.7661 1.8976 15.2129 2.34278 15.6572C2.78797 16.1016 3.2336 16.3752 3.75994 16.58C4.26912 16.7777 4.85011 16.9128 5.70176 16.9516C6.5552 16.9903 6.82746 17 9 17C11.1725 17 11.4452 16.991 12.2982 16.9516C13.15 16.9128 13.7315 16.7777 14.2401 16.58C14.7661 16.3752 15.212 16.1018 15.6572 15.6572C16.1025 15.2127 16.3752 14.7661 16.58 14.2401C16.7777 13.7315 16.9134 13.1499 16.9516 12.2982C16.9903 11.4446 16.9994 11.1725 16.9994 9C16.9994 6.82746 16.9903 6.55475 16.9516 5.70176C16.9128 4.85005 16.7777 4.26816 16.58 3.75994C16.3752 3.23392 16.1018 2.78803 15.6572 2.34278C15.2127 1.89754 14.7661 1.62426 14.2407 1.42003C13.7315 1.22227 13.1499 1.08659 12.2989 1.04845C11.4459 1.00966 11.1732 1 9.00064 1C6.8281 1 6.5552 1.00902 5.70176 1.04845Z" fill="url(#paint0_radial_9250_16840)"/>
<path d="M6.33376 9C6.33376 7.5273 7.5273 6.33312 9 6.33312C10.4727 6.33312 11.6669 7.5273 11.6669 9C11.6669 10.4727 10.4727 11.6669 9 11.6669C7.5273 11.6669 6.33376 10.4727 6.33376 9ZM4.8921 9C4.8921 11.2688 6.7312 13.1079 9 13.1079C11.2688 13.1079 13.1079 11.2688 13.1079 9C13.1079 6.7312 11.2688 4.8921 9 4.8921C6.7312 4.8921 4.8921 6.7312 4.8921 9ZM12.3105 4.72922C12.3105 4.91909 12.3667 5.10471 12.4721 5.26263C12.5775 5.42054 12.7274 5.54365 12.9028 5.61638C13.0782 5.68911 13.2712 5.7082 13.4574 5.67123C13.6437 5.63426 13.8148 5.5429 13.9491 5.40869C14.0834 5.27449 14.1749 5.10347 14.212 4.91726C14.2491 4.73106 14.2302 4.53802 14.1576 4.36258C14.085 4.18713 13.962 4.03715 13.8042 3.9316C13.6464 3.82605 13.4608 3.76968 13.2709 3.7696C13.0164 3.76972 12.772 3.87085 12.592 4.05077C12.412 4.2307 12.3107 4.47471 12.3105 4.72922ZM5.768 15.5118C4.98803 15.4763 4.5641 15.3464 4.28237 15.2366C3.90886 15.0912 3.64237 14.918 3.36218 14.6382C3.08198 14.3584 2.90854 14.0922 2.76378 13.7187C2.65395 13.4371 2.52403 13.013 2.48858 12.233C2.44979 11.3898 2.44205 11.1364 2.44205 9.00006C2.44205 6.86368 2.45043 6.61107 2.48858 5.7671C2.5241 4.98714 2.65498 4.5639 2.76378 4.28147C2.90918 3.90797 3.08237 3.64147 3.36218 3.36128C3.64198 3.08109 3.90822 2.90765 4.28237 2.76288C4.56397 2.65306 4.98803 2.52314 5.768 2.48768C6.61126 2.4489 6.86458 2.44115 9 2.44115C11.1354 2.44115 11.389 2.44954 12.233 2.48768C13.0129 2.5232 13.4362 2.65408 13.7186 2.76288C14.0921 2.90765 14.3586 3.08147 14.6388 3.36128C14.919 3.64109 15.0918 3.90797 15.2372 4.28147C15.347 4.56307 15.4769 4.98714 15.5124 5.7671C15.5512 6.61107 15.5589 6.86368 15.5589 9.00006C15.5589 11.1364 15.5512 11.3891 15.5124 12.233C15.4769 13.013 15.3463 13.4369 15.2372 13.7187C15.0918 14.0922 14.9186 14.3587 14.6388 14.6382C14.359 14.9178 14.0921 15.0912 13.7186 15.2366C13.437 15.3464 13.0129 15.4764 12.233 15.5118C11.3897 15.5506 11.1364 15.5583 9 15.5583C6.86362 15.5583 6.61101 15.5506 5.768 15.5118ZM5.70176 1.04845C4.85011 1.08723 4.26816 1.22227 3.75994 1.42003C3.2336 1.62426 2.78803 1.89824 2.34278 2.34278C1.89754 2.78733 1.62426 3.2336 1.42003 3.75994C1.22227 4.26848 1.08723 4.85011 1.04845 5.70176C1.00902 6.55475 1 6.82746 1 9C1 11.1725 1.00902 11.4452 1.04845 12.2982C1.08723 13.15 1.22227 13.7315 1.42003 14.2401C1.62426 14.7661 1.8976 15.2129 2.34278 15.6572C2.78797 16.1016 3.2336 16.3752 3.75994 16.58C4.26912 16.7777 4.85011 16.9128 5.70176 16.9516C6.5552 16.9903 6.82746 17 9 17C11.1725 17 11.4452 16.991 12.2982 16.9516C13.15 16.9128 13.7315 16.7777 14.2401 16.58C14.7661 16.3752 15.212 16.1018 15.6572 15.6572C16.1025 15.2127 16.3752 14.7661 16.58 14.2401C16.7777 13.7315 16.9134 13.1499 16.9516 12.2982C16.9903 11.4446 16.9994 11.1725 16.9994 9C16.9994 6.82746 16.9903 6.55475 16.9516 5.70176C16.9128 4.85005 16.7777 4.26816 16.58 3.75994C16.3752 3.23392 16.1018 2.78803 15.6572 2.34278C15.2127 1.89754 14.7661 1.62426 14.2407 1.42003C13.7315 1.22227 13.1499 1.08659 12.2989 1.04845C11.4459 1.00966 11.1732 1 9.00064 1C6.8281 1 6.5552 1.00902 5.70176 1.04845Z" fill="url(#paint1_radial_9250_16840)"/>
<path d="M11.7898 3.46006C11.222 3.43747 10.7501 3.43181 9 3.43181C6.86839 3.43181 6.63341 3.43958 5.81351 3.47729L5.81299 3.47731C5.14147 3.50784 4.82377 3.61506 4.64232 3.68583L4.63986 3.68679L4.63986 3.68678C4.39347 3.78212 4.2445 3.8797 4.06315 4.0613C3.88196 4.24274 3.78379 4.39254 3.68757 4.63926C3.61565 4.82617 3.50864 5.14458 3.47822 5.81183L11.7898 3.46006ZM11.7898 3.46006C11.5447 3.7459 11.388 4.09608 11.3376 4.46766M11.7898 3.46006L11.3376 4.46766M11.3376 4.46766C10.6374 4.1058 9.84256 3.90144 9 3.90144C6.18408 3.90144 3.90144 6.18408 3.90144 9C3.90144 11.8159 6.18408 14.0986 9 14.0986C11.8159 14.0986 14.0986 11.8159 14.0986 9C14.0986 8.15751 13.8942 7.36276 13.5324 6.66259C13.5718 6.65725 13.6111 6.6507 13.6503 6.64293C13.98 6.57748 14.2863 6.42815 14.5402 6.21044C14.563 6.77752 14.5683 7.2485 14.5683 9.00006C14.5683 11.1326 14.5605 11.3669 14.5228 12.1875L14.5228 12.188C14.4923 12.8575 14.385 13.176 14.3137 13.3601C14.2173 13.6073 14.1193 13.7569 13.9386 13.9374C13.7573 14.1185 13.6069 14.217 13.3592 14.3134L13.3586 14.3137C13.1772 14.3844 12.8595 14.4916 12.188 14.5222L12.1874 14.5222C11.3675 14.5599 11.1326 14.5677 9 14.5677C6.86742 14.5677 6.63316 14.5599 5.81353 14.5222L5.81307 14.5222C5.14161 14.4916 4.82388 14.3844 4.64199 14.3135L4.64176 14.3134C4.39409 14.217 4.24404 14.1188 4.06219 13.9372C3.8805 13.7558 3.78282 13.6066 3.68748 13.3606L3.68672 13.3587C3.61596 13.1773 3.50873 12.8596 3.47821 12.188L3.47818 12.1875C3.44048 11.3676 3.4327 11.1326 3.4327 9.00006C3.4327 6.8685 3.44109 6.63331 3.47821 5.81217L11.3376 4.46766ZM3.40128 17.5034L3.4007 17.5032C2.75548 17.2521 2.19154 16.9059 1.64294 16.3584C1.093 15.8095 0.746952 15.2434 0.496733 14.5991L3.40128 17.5034ZM3.40128 17.5034C4.02257 17.7447 4.71111 17.8981 5.65669 17.9412L5.65679 17.9412M3.40128 17.5034L5.65679 17.9412M5.65679 17.9412C6.5325 17.981 6.82216 17.9907 9 17.9907C11.1771 17.9907 11.4679 17.9816 12.344 17.9412C13.2891 17.8981 13.9782 17.7447 14.5991 17.5033L14.5995 17.5031M5.65679 17.9412L14.5995 17.5031M14.5995 17.5031C15.244 17.2522 15.8082 16.9063 16.3572 16.3583C16.9076 15.8087 17.2526 15.2428 17.5031 14.5995L17.5033 14.5991M14.5995 17.5031L17.5033 14.5991M17.5033 14.5991C17.7445 13.9787 17.8988 13.2894 17.9412 12.3432C17.981 11.467 17.99 11.1772 17.99 9C17.99 6.82279 17.981 6.53238 17.9412 5.65676L17.9412 5.6567M17.5033 14.5991L17.9412 5.6567M17.9412 5.6567C17.8981 4.71139 17.7448 4.02165 17.5032 3.40069L17.5031 3.40051M17.9412 5.6567L17.5031 3.40051M17.5031 3.40051C17.2522 2.75604 16.9063 2.19176 16.3583 1.64284C15.8092 1.09288 15.2434 0.746924 14.5996 0.496684L14.5994 0.49658M17.5031 3.40051L14.5994 0.49658M14.5994 0.49658C13.9786 0.255499 13.2895 0.101256 12.3439 0.0588155C11.4686 0.0190181 11.1785 0.00934511 9.00064 0.00934511C6.82402 0.00934511 6.53269 0.018355 5.65669 0.0588188L14.5994 0.49658ZM3.40158 0.496463C4.02217 0.25509 4.71159 0.101914 5.65605 0.0588484L3.40158 0.496463ZM3.40158 0.496463C2.75524 0.74725 2.19123 1.09421 1.64284 1.64173M3.40158 0.496463L1.64284 1.64173M1.64284 1.64173C1.09314 2.19056 0.747068 2.75594 0.496733 3.40089L1.64284 1.64173ZM0.00934511 9C0.00934511 6.82341 0.0183547 6.53224 0.0588188 5.65669L0.00934511 9ZM0.00934511 9C0.00934511 11.1769 0.0183569 11.4678 0.0588353 12.3437L0.00934511 9ZM7.32441 9C7.32441 8.07411 8.07473 7.32377 9 7.32377C9.92558 7.32377 10.6762 8.07442 10.6762 9C10.6762 9.92558 9.92558 10.6762 9 10.6762C8.07473 10.6762 7.32441 9.92589 7.32441 9ZM0.496598 3.40123C0.255214 4.02207 0.101935 4.71119 0.0588495 5.65602L0.496598 3.40123ZM0.0588495 12.344C0.101931 13.2888 0.255191 13.9778 0.496537 14.5986L0.0588495 12.344Z" stroke="#EAECEF" stroke-width="1.98131"/>
<defs>
<radialGradient id="paint0_radial_9250_16840" cx="0" cy="0" r="1" gradientUnits="userSpaceOnUse" gradientTransform="translate(3.1257 17.0756) scale(20.8867 20.8867)">
<stop offset="0.09" stop-color="#FA8F21"/>
<stop offset="0.78" stop-color="#D82D7E"/>
</radialGradient>
<radialGradient id="paint1_radial_9250_16840" cx="0" cy="0" r="1" gradientUnits="userSpaceOnUse" gradientTransform="translate(10.7033 17.7924) scale(16.4616)">
<stop offset="0.64" stop-color="#8C3AAA" stop-opacity="0"/>
<stop offset="1" stop-color="#8C3AAA"/>
</radialGradient>
</defs>
</svg>
