<svg width="16" height="16" viewBox="0 0 16 16" fill="none" xmlns="http://www.w3.org/2000/svg">
<path d="M8.00073 16C3.57284 16.0011 -0.0129213 12.3976 3.50004e-05 7.9672C0.0128837 3.57367 3.59629 0.000516161 8.00424 5.57259e-08C12.4293 -0.000518248 16.031 3.61457 15.9998 8.06052C15.9693 12.406 12.435 15.9981 8.00073 16ZM7.99637 11.7353C8.10344 11.7353 8.21052 11.7353 8.3176 11.7353C9.00984 11.7351 9.70173 11.7193 10.3933 11.6878C10.9178 11.6645 11.4425 11.6415 11.9619 11.558C12.5457 11.4642 12.9352 11.1397 13.1066 10.5694C13.1682 10.3642 13.197 10.1511 13.2211 9.93823C13.3274 8.99297 13.3556 8.04057 13.3054 7.09069C13.2791 6.57914 13.2463 6.06832 13.144 5.56503C13.0223 4.96657 12.6722 4.58298 12.0717 4.44264C11.8835 4.39864 11.6904 4.38003 11.498 4.3625C10.7485 4.29419 9.99668 4.27043 9.24476 4.25533C8.7172 4.24474 8.18954 4.23751 7.66165 4.2433C7.00865 4.25047 6.35584 4.26053 5.7034 4.28827C5.14755 4.3119 4.59141 4.33429 4.0408 4.42176C3.45709 4.51448 3.06615 4.83679 2.89358 5.40717C2.8315 5.61235 2.80249 5.8254 2.77826 6.03822C2.67167 6.98344 2.64324 7.93584 2.69326 8.88573C2.71949 9.39726 2.75482 9.90756 2.85362 10.4116C2.94858 10.896 3.20522 11.2539 3.66218 11.456C3.88272 11.5535 4.12096 11.5769 4.35675 11.6025C4.96731 11.6687 5.58076 11.6933 6.19419 11.7107C6.79472 11.7278 7.39565 11.7244 7.99637 11.7353V11.7353Z" fill="#AEB5C1"/>
<path d="M7.99647 11.7363C7.39576 11.7253 6.79483 11.7287 6.19429 11.7117C5.58086 11.6942 4.96742 11.6696 4.35686 11.6034C4.12107 11.5778 3.88283 11.5544 3.66228 11.4569C3.20533 11.2549 2.94868 10.8969 2.85372 10.4125C2.75492 9.90851 2.7196 9.3982 2.69336 8.88668C2.64334 7.93678 2.67177 6.98438 2.77836 6.03916C2.8026 5.82634 2.8316 5.61329 2.89368 5.40812C3.06625 4.83773 3.45719 4.51543 4.04091 4.4227C4.59151 4.33524 5.14765 4.31284 5.7035 4.28921C6.35595 4.26148 7.00876 4.25141 7.66175 4.24424C8.18964 4.23845 8.71731 4.24568 9.24486 4.25627C9.99678 4.27137 10.7486 4.29513 11.4981 4.36344C11.6905 4.38098 11.8836 4.39958 12.0718 4.44359C12.6723 4.58392 13.0224 4.96752 13.1441 5.56597C13.2464 6.06926 13.2792 6.58009 13.3055 7.09163C13.3557 8.04152 13.3275 8.99392 13.2212 9.93917C13.1971 10.152 13.1683 10.3652 13.1067 10.5704C12.9353 11.1407 12.5458 11.4652 11.962 11.559C11.4426 11.6424 10.9179 11.6655 10.3934 11.6888C9.70183 11.7195 9.00994 11.7354 8.3177 11.7363C8.21062 11.7363 8.10355 11.7363 7.99647 11.7363V11.7363ZM6.91414 6.41484V9.56741C7.84176 9.04066 8.76137 8.51845 9.69002 7.99111L6.91414 6.41484Z" fill="white"/>
<path d="M6.91406 6.41406L9.68994 7.99034C8.76129 8.51768 7.84168 9.03989 6.91406 9.56664V6.41406Z" fill="#AEB5C1"/>
</svg>
