<svg width="16" height="16" viewBox="0 0 16 16" fill="none" xmlns="http://www.w3.org/2000/svg">
<path d="M0 8C0 11.4153 2.14067 14.3313 5.15333 15.4787C5.08 14.854 5.002 13.824 5.17 13.1013C5.31467 12.48 6.104 9.14267 6.104 9.14267C6.104 9.14267 5.866 8.666 5.866 7.96C5.866 6.85333 6.50733 6.02667 7.30667 6.02667C7.98667 6.02667 8.31467 6.53667 8.31467 7.148C8.31467 7.83133 7.87933 8.85267 7.65467 9.8C7.46733 10.5927 8.05267 11.2393 8.834 11.2393C10.2493 11.2393 11.338 9.74667 11.338 7.592C11.338 5.68467 9.96733 4.352 8.01067 4.352C5.74533 4.352 4.41533 6.05133 4.41533 7.808C4.41533 8.49267 4.67867 9.226 5.008 9.62533C5.03608 9.65549 5.05592 9.69237 5.06561 9.73242C5.0753 9.77247 5.07452 9.81434 5.06333 9.854C5.00267 10.106 4.868 10.6467 4.842 10.7573C4.80667 10.9027 4.72667 10.934 4.57533 10.8633C3.58067 10.4007 2.95933 8.94667 2.95933 7.77867C2.95933 5.266 4.784 2.95933 8.22067 2.95933C10.9833 2.95933 13.1307 4.928 13.1307 7.55867C13.1307 10.3033 11.4007 12.5127 8.998 12.5127C8.19067 12.5127 7.43267 12.0927 7.17267 11.5973C7.17267 11.5973 6.77333 13.1187 6.67667 13.4907C6.48867 14.2133 5.96733 15.128 5.644 15.6473C6.38933 15.8767 7.18 16 8 16C12.418 16 16 12.418 16 8C16 3.582 12.418 0 8 0C3.582 0 0 3.582 0 8Z" fill="#AEB5C1"/>
</svg>
