<svg width="17" height="16" viewBox="0 0 17 16" fill="none" xmlns="http://www.w3.org/2000/svg">
<g clip-path="url(#clip0_8620_24109)">
<path d="M16.1928 0.163875C16.0897 0.0788012 15.9644 0.0250478 15.8317 0.00897924C15.699 -0.0070893 15.5645 0.0152 15.4441 0.073208L1.40278 7.40121C1.19662 7.50862 1.02246 7.66854 0.897905 7.86481C0.773348 8.06109 0.702804 8.28676 0.693403 8.51904C0.684001 8.75131 0.736074 8.98195 0.84436 9.18765C0.952647 9.39335 1.11331 9.56682 1.31011 9.69054L5.26945 12.1812V14.9285C5.26953 15.1251 5.32787 15.3172 5.43709 15.4806C5.54632 15.644 5.70153 15.7713 5.88311 15.8465C6.06469 15.9217 6.26449 15.9414 6.45726 15.9031C6.65002 15.8647 6.8271 15.7701 6.96611 15.6312L8.42811 14.1685L11.0161 15.7965C11.1938 15.9082 11.3954 15.9759 11.6045 15.9942C11.8135 16.0124 12.0239 15.9807 12.2182 15.9015C12.4125 15.8224 12.5852 15.6981 12.722 15.539C12.8587 15.3799 12.9557 15.1905 13.0048 14.9865L16.4008 0.819875C16.4247 0.701865 16.4181 0.579708 16.3818 0.464931C16.3454 0.350155 16.2803 0.246543 16.1928 0.163875ZM12.0888 3.32721C12.1232 3.31033 12.1624 3.30584 12.1998 3.3145C12.2371 3.32317 12.2704 3.34444 12.2939 3.37475C12.3174 3.40506 12.3297 3.44255 12.3288 3.48088C12.3278 3.51922 12.3137 3.55607 12.2888 3.58521L5.90411 10.8379C5.87768 10.8677 5.84146 10.8871 5.80198 10.8926C5.76251 10.8981 5.72236 10.8893 5.68878 10.8679L2.28211 8.72454C2.25735 8.70889 2.23715 8.68698 2.22355 8.66103C2.20995 8.63509 2.20343 8.60601 2.20464 8.57674C2.20586 8.54747 2.21477 8.51903 2.23048 8.4943C2.24619 8.46957 2.26814 8.44942 2.29411 8.43587L12.0888 3.32721ZM6.60211 14.1072V13.0179L7.26878 13.4385L6.60211 14.1072ZM11.7794 14.4405C11.7731 14.4663 11.7608 14.4901 11.7435 14.5101C11.7262 14.5302 11.7044 14.5458 11.6798 14.5558C11.6553 14.5657 11.6288 14.5697 11.6024 14.5674C11.576 14.5651 11.5506 14.5566 11.5281 14.5425L7.11878 11.7692C7.09837 11.7563 7.08101 11.7392 7.06788 11.7189C7.05476 11.6986 7.0462 11.6758 7.04278 11.6519C7.03926 11.6281 7.04102 11.6038 7.04793 11.5808C7.05485 11.5577 7.06674 11.5365 7.08278 11.5185L14.0394 3.61787C14.064 3.58978 14.0973 3.57075 14.134 3.56384C14.1707 3.55692 14.2086 3.56252 14.2417 3.57973C14.2749 3.59694 14.3012 3.62478 14.3167 3.65877C14.3321 3.69276 14.3356 3.73095 14.3268 3.76721L11.7794 14.4405Z" fill="#AEB5C1"/>
</g>
<defs>
<clipPath id="clip0_8620_24109">
<rect width="16" height="16" fill="white" transform="translate(0.555542)"/>
</clipPath>
</defs>
</svg>
