<svg width="17" height="16" viewBox="0 0 17 16" fill="none" xmlns="http://www.w3.org/2000/svg">
<path d="M1.889 11.9096C1.71219 11.9096 1.54262 11.9798 1.41759 12.1048C1.29257 12.2299 1.22233 12.3994 1.22233 12.5762V13.5762C1.22224 13.5982 1.22649 13.6199 1.23484 13.6401C1.24318 13.6604 1.25546 13.6788 1.27095 13.6943C1.28645 13.7098 1.30485 13.7221 1.32511 13.7304C1.34537 13.7387 1.36709 13.743 1.389 13.7429H3.72233C3.74424 13.743 3.76596 13.7387 3.78622 13.7304C3.80648 13.7221 3.82489 13.7098 3.84038 13.6943C3.85587 13.6788 3.86815 13.6604 3.87649 13.6401C3.88484 13.6199 3.88909 13.5982 3.889 13.5762V12.5762C3.889 12.3994 3.81876 12.2299 3.69374 12.1048C3.56871 11.9798 3.39914 11.9096 3.22233 11.9096H1.889Z" fill="#AEB5C1"/>
<path d="M5.889 9.90958C5.71219 9.90958 5.54262 9.97982 5.41759 10.1048C5.29257 10.2299 5.22233 10.3994 5.22233 10.5762V13.5762C5.22224 13.5982 5.22649 13.6199 5.23484 13.6401C5.24318 13.6604 5.25546 13.6788 5.27095 13.6943C5.28644 13.7098 5.30485 13.7221 5.32511 13.7304C5.34537 13.7387 5.36709 13.743 5.389 13.7429H7.72233C7.74424 13.743 7.76596 13.7387 7.78622 13.7304C7.80648 13.7221 7.82489 13.7098 7.84038 13.6943C7.85587 13.6788 7.86815 13.6604 7.87649 13.6401C7.88484 13.6199 7.88909 13.5982 7.889 13.5762V10.5762C7.889 10.3994 7.81876 10.2299 7.69374 10.1048C7.56871 9.97982 7.39914 9.90958 7.22233 9.90958H5.889Z" fill="#AEB5C1"/>
<path d="M9.889 7.57624C9.71219 7.57624 9.54262 7.64648 9.41759 7.77151C9.29257 7.89653 9.22233 8.0661 9.22233 8.24291V13.5762C9.22224 13.5982 9.22649 13.6199 9.23484 13.6401C9.24318 13.6604 9.25546 13.6788 9.27095 13.6943C9.28645 13.7098 9.30485 13.7221 9.32511 13.7304C9.34538 13.7387 9.36709 13.743 9.389 13.7429H11.7223C11.7442 13.743 11.766 13.7387 11.7862 13.7304C11.8065 13.7221 11.8249 13.7098 11.8404 13.6943C11.8559 13.6788 11.8681 13.6604 11.8765 13.6401C11.8848 13.6199 11.8891 13.5982 11.889 13.5762V8.24291C11.889 8.0661 11.8188 7.89653 11.6937 7.77151C11.5687 7.64648 11.3991 7.57624 11.2223 7.57624H9.889Z" fill="#AEB5C1"/>
<path d="M13.389 13.7429H15.7223C15.7442 13.743 15.766 13.7387 15.7862 13.7304C15.8065 13.7221 15.8249 13.7098 15.8404 13.6943C15.8559 13.6788 15.8681 13.6604 15.8765 13.6401C15.8848 13.6199 15.8891 13.5982 15.889 13.5762V5.57624C15.889 5.39943 15.8188 5.22986 15.6937 5.10484C15.5687 4.97981 15.3991 4.90958 15.2223 4.90958H13.889C13.7122 4.90958 13.5426 4.97981 13.4176 5.10484C13.2926 5.22986 13.2223 5.39943 13.2223 5.57624V13.5762C13.2222 13.5982 13.2265 13.6199 13.2348 13.6401C13.2432 13.6604 13.2555 13.6788 13.271 13.6943C13.2864 13.7098 13.3049 13.7221 13.3251 13.7304C13.3454 13.7387 13.3671 13.743 13.389 13.7429Z" fill="#AEB5C1"/>
<path d="M12.6017 2.80425L12.8064 3.11091C12.8522 3.17924 12.9141 3.23523 12.9866 3.27395C13.0592 3.31267 13.1402 3.33292 13.2224 3.33291H13.2391C13.3243 3.33008 13.4074 3.3055 13.4804 3.26151C13.5535 3.21752 13.6141 3.15558 13.6564 3.08158L14.9897 0.748246C15.0357 0.667619 15.0584 0.575794 15.0552 0.483027C15.0521 0.390259 15.0232 0.300202 14.9717 0.222912C14.9207 0.145228 14.8487 0.08351 14.7642 0.0448345C14.6797 0.00615892 14.5859 -0.00790844 14.4937 0.00424536L11.8271 0.337579C11.7424 0.34799 11.6619 0.379904 11.5931 0.430277C11.5243 0.480651 11.4695 0.547806 11.434 0.625342C11.3985 0.702879 11.3835 0.788214 11.3903 0.873214C11.3972 0.958213 11.4257 1.04005 11.4731 1.11091L11.6777 1.41758C11.7021 1.45448 11.7109 1.49953 11.7021 1.54287C11.6934 1.58622 11.6678 1.62434 11.6311 1.64891L2.18575 7.94558C2.03864 8.04371 1.93654 8.19626 1.90191 8.36967C1.86728 8.54308 1.90295 8.72314 2.00108 8.87025C2.09921 9.01735 2.25176 9.11945 2.42517 9.15409C2.59858 9.18872 2.77864 9.15304 2.92575 9.05491L12.3711 2.75825C12.3892 2.74608 12.4096 2.73762 12.431 2.73334C12.4525 2.72907 12.4745 2.72907 12.496 2.73334C12.5174 2.73762 12.5378 2.74608 12.5559 2.75825C12.5741 2.77042 12.5897 2.78605 12.6017 2.80425Z" fill="#AEB5C1"/>
<path d="M1.22233 15.9996H15.889C16.0658 15.9996 16.2354 15.9293 16.3604 15.8043C16.4854 15.6793 16.5557 15.5097 16.5557 15.3329C16.5557 15.1561 16.4854 14.9865 16.3604 14.8615C16.2354 14.7365 16.0658 14.6662 15.889 14.6662H1.22233C1.04552 14.6662 0.87595 14.7365 0.750926 14.8615C0.625902 14.9865 0.555664 15.1561 0.555664 15.3329C0.555664 15.5097 0.625902 15.6793 0.750926 15.8043C0.87595 15.9293 1.04552 15.9996 1.22233 15.9996Z" fill="#AEB5C1"/>
</svg>
