<svg width="17" height="16" viewBox="0 0 17 16" fill="none" xmlns="http://www.w3.org/2000/svg">
<g clip-path="url(#clip0_8620_24163)">
<path d="M14.9155 5.98698C15.0203 5.98407 15.1228 5.95625 15.2146 5.90583C15.3064 5.8554 15.3849 5.78383 15.4435 5.69703C15.5022 5.61023 15.5393 5.51071 15.5518 5.40671C15.5644 5.30271 15.5519 5.19722 15.5155 5.09898C14.933 3.58691 13.9028 2.28861 12.5628 1.37754C11.2227 0.466462 9.63657 -0.0140085 8.01621 0.000311004C1.06821 0.474978 0.055542 6.21165 0.055542 8.00031C0.0582429 10.0243 0.827302 11.9721 2.20801 13.452C3.58871 14.9319 5.47862 15.8341 7.49754 15.977C7.64813 15.9848 7.79776 15.9489 7.92845 15.8737C8.05914 15.7985 8.16531 15.6871 8.23421 15.553C8.32296 15.3881 8.35022 15.197 8.31115 15.0138C8.27207 14.8307 8.1692 14.6673 8.02088 14.553C7.08057 13.8467 6.33091 12.9174 5.83954 11.849C5.82992 11.8278 5.82484 11.8048 5.82462 11.7814C5.8244 11.7581 5.82906 11.735 5.83828 11.7136C5.84751 11.6922 5.8611 11.673 5.8782 11.6572C5.89529 11.6413 5.9155 11.6292 5.93754 11.6216C6.0683 11.5783 6.18217 11.495 6.26313 11.3836C6.34409 11.2721 6.38807 11.1381 6.38888 11.0003C6.38888 10.8235 6.31864 10.6539 6.19361 10.5289C6.06859 10.4039 5.89902 10.3336 5.72221 10.3336H5.45554C5.4177 10.3337 5.38097 10.3208 5.35141 10.2972C5.32185 10.2735 5.3012 10.2406 5.29288 10.2036C5.13279 9.4802 5.0532 8.74126 5.05554 8.00031C5.0543 7.37423 5.11077 6.74937 5.22421 6.13365C5.23217 6.09589 5.25289 6.06203 5.28287 6.03775C5.31286 6.01347 5.35029 6.00025 5.38888 6.00031C12.6555 6.00031 14.4375 6.00431 14.9155 5.98698ZM1.93488 10.3336C1.90052 10.3337 1.867 10.3231 1.83894 10.3032C1.81088 10.2834 1.78966 10.2554 1.77821 10.223C1.30306 8.90287 1.26172 7.46555 1.66021 6.12031C1.67018 6.08575 1.69111 6.05535 1.71984 6.03371C1.74858 6.01207 1.78357 6.00035 1.81954 6.00031H3.69088C3.7149 6.00032 3.73864 6.00552 3.76046 6.01556C3.78229 6.0256 3.80169 6.04024 3.81732 6.05848C3.83296 6.07671 3.84448 6.09811 3.85107 6.12121C3.85767 6.14431 3.85919 6.16857 3.85554 6.19231C3.76529 6.79072 3.72072 7.39514 3.72221 8.00031C3.72211 8.71611 3.78907 9.43034 3.92221 10.1336C3.9266 10.1578 3.92565 10.1826 3.91943 10.2063C3.91321 10.23 3.90187 10.2521 3.88621 10.271C3.87061 10.2898 3.85104 10.3049 3.82892 10.3153C3.80679 10.3257 3.78265 10.331 3.75821 10.331L1.93488 10.3336ZM5.41621 13.7723C5.43769 13.8024 5.44857 13.8387 5.44714 13.8756C5.44571 13.9126 5.43206 13.948 5.40832 13.9763C5.38459 14.0046 5.35212 14.0242 5.31602 14.0321C5.27991 14.0399 5.24223 14.0355 5.20888 14.0196C4.2041 13.5452 3.33342 12.8278 2.67554 11.9323C2.65697 11.9076 2.64566 11.8781 2.64288 11.8473C2.6401 11.8165 2.64596 11.7855 2.6598 11.7578C2.67365 11.7301 2.69492 11.7068 2.72125 11.6905C2.74758 11.6743 2.77792 11.6656 2.80888 11.6656H4.20488C4.23886 11.6657 4.27201 11.6761 4.29989 11.6956C4.32777 11.715 4.34905 11.7425 4.36088 11.7743C4.62307 12.4835 4.97793 13.1549 5.41621 13.771V13.7723ZM4.25554 4.55164C4.24465 4.58528 4.22335 4.61459 4.1947 4.63532C4.16606 4.65605 4.13157 4.66714 4.09621 4.66698H2.58888C2.55889 4.66715 2.52942 4.6592 2.5036 4.64397C2.47777 4.62873 2.45655 4.60679 2.4422 4.58047C2.42784 4.55415 2.42088 4.52443 2.42205 4.49447C2.42323 4.46451 2.4325 4.43543 2.44888 4.41031C3.12456 3.35795 4.08132 2.51574 5.21088 1.97898C5.24423 1.96308 5.28191 1.95871 5.31802 1.96656C5.35412 1.97441 5.38659 1.99404 5.41032 2.02235C5.43406 2.05067 5.44771 2.08607 5.44914 2.12298C5.45057 2.1599 5.43969 2.19625 5.41821 2.22631C4.91724 2.93933 4.52537 3.72306 4.25554 4.55164ZM5.87088 4.66698C5.84352 4.66695 5.8166 4.66019 5.79247 4.6473C5.76835 4.6344 5.74777 4.61577 5.73255 4.59304C5.71733 4.57031 5.70794 4.54418 5.70521 4.51697C5.70247 4.48975 5.70648 4.46228 5.71688 4.43698C6.17618 3.27245 6.95237 2.25978 7.95754 1.51364C7.98569 1.49336 8.01951 1.48244 8.05421 1.48244C8.08891 1.48244 8.12273 1.49336 8.15088 1.51364C9.15219 2.26222 9.92678 3.27332 10.3889 4.43498C10.3994 4.46035 10.4035 4.48791 10.4008 4.51523C10.3981 4.54255 10.3888 4.56879 10.3735 4.59164C10.3588 4.61439 10.3387 4.63316 10.315 4.64629C10.2912 4.65943 10.2647 4.66653 10.2375 4.66698H5.87088ZM12.0155 4.66698C11.9806 4.66705 11.9464 4.65607 11.9181 4.6356C11.8897 4.61512 11.8685 4.58621 11.8575 4.55298C11.583 3.71541 11.1836 2.92406 10.6729 2.20564C10.6513 2.17575 10.6403 2.13955 10.6415 2.10271C10.6427 2.06587 10.6561 2.03047 10.6795 2.00204C10.703 1.97362 10.7352 1.95378 10.7712 1.94563C10.8071 1.93747 10.8448 1.94146 10.8782 1.95698C12.0275 2.48957 12.9995 3.34142 13.6782 4.41098C13.6942 4.43618 13.7031 4.46521 13.7041 4.49504C13.705 4.52487 13.698 4.55441 13.6836 4.58057C13.6692 4.60673 13.6481 4.62855 13.6224 4.64375C13.5967 4.65895 13.5674 4.66697 13.5375 4.66698H12.0155Z" fill="#2FD9C4"/>
<path d="M14.173 13.1718C14.1462 13.145 14.1294 13.1098 14.1252 13.0721C14.1211 13.0344 14.13 12.9964 14.1503 12.9645C14.6359 12.2012 14.8227 11.2856 14.675 10.3931C14.5272 9.50065 14.0552 8.69411 13.3495 8.1281C12.6439 7.5621 11.7541 7.27644 10.8508 7.3259C9.94756 7.37536 9.09432 7.75644 8.45465 8.39611C7.81498 9.03577 7.4339 9.88902 7.38444 10.7923C7.33499 11.6956 7.62064 12.5853 8.18665 13.291C8.75265 13.9967 9.55919 14.4686 10.4517 14.6164C11.3441 14.7642 12.2598 14.5774 13.023 14.0918C13.055 14.0714 13.093 14.0626 13.1307 14.0667C13.1684 14.0708 13.2035 14.0877 13.2303 14.1145L14.9223 15.8038C15.0481 15.9252 15.2165 15.9924 15.3913 15.9909C15.5661 15.9894 15.7333 15.9193 15.8569 15.7957C15.9805 15.6721 16.0506 15.5049 16.0521 15.3301C16.0536 15.1553 15.9864 14.9869 15.865 14.8611L14.173 13.1718ZM11.0557 8.66713C11.5172 8.66713 11.9683 8.80398 12.352 9.06037C12.7357 9.31676 13.0348 9.68118 13.2114 10.1075C13.388 10.5339 13.4342 11.0031 13.3442 11.4557C13.2541 11.9083 13.0319 12.3241 12.7056 12.6504C12.3793 12.9767 11.9635 13.1989 11.5109 13.289C11.0583 13.379 10.5891 13.3328 10.1627 13.1562C9.73639 12.9796 9.37197 12.6805 9.11558 12.2968C8.85919 11.9131 8.72234 11.462 8.72234 11.0005C8.72234 10.3816 8.96818 9.78813 9.40576 9.35055C9.84335 8.91296 10.4368 8.66713 11.0557 8.66713Z" fill="#2FD9C4"/>
</g>
<defs>
<clipPath id="clip0_8620_24163">
<rect width="16" height="16" fill="white" transform="translate(0.055542)"/>
</clipPath>
</defs>
</svg>
