<svg width="17" height="16" viewBox="0 0 17 16" fill="none" xmlns="http://www.w3.org/2000/svg">
<path d="M8.55566 2.23242C6.43464 2.23472 4.40114 3.07831 2.90134 4.5781C1.40155 6.0779 0.557958 8.11139 0.555664 10.2324V11.8264C0.556194 12.3413 0.760967 12.835 1.12505 13.199C1.48913 13.5631 1.98278 13.7679 2.49766 13.7684H14.6137C15.1286 13.7679 15.6222 13.5631 15.9863 13.199C16.3504 12.835 16.5551 12.3413 16.5557 11.8264V10.2324C16.5534 8.11139 15.7098 6.0779 14.21 4.5781C12.7102 3.07831 10.6767 2.23472 8.55566 2.23242ZM14.6137 12.4324H2.49766C2.33675 12.4323 2.18244 12.3684 2.0684 12.2549C1.95437 12.1414 1.88988 11.9873 1.889 11.8264V10.9338H3.55566C3.68827 10.9338 3.81545 10.8811 3.90922 10.7873C4.00299 10.6935 4.05566 10.5664 4.05566 10.4338C4.05566 10.3011 4.00299 10.174 3.90922 10.0802C3.81545 9.98643 3.68827 9.93376 3.55566 9.93376H1.89566C1.93146 9.10818 2.12163 8.29662 2.45633 7.54109L3.809 8.32376C3.92392 8.39006 4.06048 8.40799 4.18863 8.37361C4.31678 8.33923 4.42603 8.25535 4.49233 8.14042C4.55864 8.0255 4.57657 7.88894 4.54219 7.76079C4.50781 7.63264 4.42392 7.52339 4.309 7.45709L2.929 6.65709C3.36711 5.97054 3.9267 5.36961 4.58033 4.88376L5.33366 6.18842C5.40138 6.30182 5.5106 6.38438 5.63817 6.4186C5.76573 6.45283 5.90161 6.43602 6.017 6.37176C6.07388 6.3389 6.12372 6.29515 6.16369 6.24302C6.20365 6.19089 6.23295 6.1314 6.24992 6.06794C6.26688 6.00448 6.27117 5.9383 6.26255 5.87318C6.25393 5.80806 6.23256 5.74528 6.19966 5.68842L5.42566 4.34776C6.2394 3.91243 7.13531 3.65241 8.05566 3.58442V5.10176C8.05566 5.23436 8.10834 5.36154 8.20211 5.45531C8.29588 5.54908 8.42306 5.60176 8.55566 5.60176C8.68827 5.60176 8.81545 5.54908 8.90922 5.45531C9.00299 5.36154 9.05566 5.23436 9.05566 5.10176V3.58442C10.0906 3.66304 11.093 3.98209 11.983 4.51621C12.873 5.05032 13.6261 5.78476 14.1823 6.66109L12.8023 7.46109C12.6874 7.52739 12.6035 7.63664 12.5691 7.76479C12.5348 7.89294 12.5527 8.0295 12.619 8.14442C12.6853 8.25935 12.7945 8.34323 12.9227 8.37761C13.0508 8.41199 13.1874 8.39406 13.3023 8.32776L14.655 7.54642C14.9891 8.3003 15.1792 9.10999 15.2157 9.93376H13.5557C13.49 9.93376 13.425 9.94669 13.3643 9.97182C13.3037 9.99694 13.2485 10.0338 13.2021 10.0802C13.1557 10.1266 13.1189 10.1818 13.0937 10.2424C13.0686 10.3031 13.0557 10.3681 13.0557 10.4338C13.0557 10.4994 13.0686 10.5644 13.0937 10.6251C13.1189 10.6858 13.1557 10.7409 13.2021 10.7873C13.2485 10.8337 13.3037 10.8706 13.3643 10.8957C13.425 10.9208 13.49 10.9338 13.5557 10.9338H15.2223V11.8251C15.2224 11.9051 15.2067 11.9844 15.1762 12.0583C15.1457 12.1323 15.1009 12.1995 15.0443 12.2561C14.9878 12.3128 14.9207 12.3577 14.8468 12.3885C14.7729 12.4192 14.6937 12.435 14.6137 12.4351V12.4324Z" fill="#AEB5C1"/>
<path d="M11.599 5.41709C11.5439 5.38131 11.4824 5.35673 11.4178 5.34477C11.3533 5.3328 11.287 5.33369 11.2228 5.34738C11.1586 5.36106 11.0977 5.38728 11.0436 5.42452C10.9895 5.46176 10.9433 5.5093 10.9077 5.56442L8.90766 8.64376C8.56308 8.56025 8.20006 8.60128 7.8828 8.75959C7.56555 8.9179 7.31449 9.1833 7.17403 9.50885C7.03356 9.8344 7.01274 10.1991 7.11524 10.5386C7.21774 10.878 7.43696 11.1702 7.73414 11.3636C8.03132 11.557 8.38731 11.6391 8.73916 11.5953C9.09101 11.5516 9.41606 11.3848 9.65683 11.1245C9.8976 10.8643 10.0386 10.5272 10.0548 10.173C10.0711 9.81886 9.96158 9.47033 9.74566 9.18909L11.7457 6.10909C11.8179 5.99784 11.843 5.86249 11.8155 5.73275C11.788 5.60302 11.7101 5.48949 11.599 5.41709Z" fill="#AEB5C1"/>
</svg>
