<svg width="17" height="17" viewBox="0 0 17 17" fill="none" xmlns="http://www.w3.org/2000/svg">
<path d="M6.27124 9.17988C6.59197 9.61525 7.00116 9.9755 7.47105 10.2362C7.94095 10.4969 8.46056 10.6519 8.99465 10.6907C9.52874 10.7296 10.0648 10.6513 10.5665 10.4613C11.0682 10.2713 11.5237 9.9739 11.9023 9.58937L14.1428 7.31439C14.823 6.59928 15.1994 5.64151 15.1909 4.64736C15.1823 3.6532 14.7896 2.70221 14.0973 1.99921C13.405 1.29622 12.4684 0.897454 11.4893 0.888815C10.5102 0.880176 9.56699 1.26235 8.86272 1.95303L8.05519 2.76056" stroke="#F49EFC" stroke-width="1.78395" stroke-linecap="round" stroke-linejoin="round"/>
<path d="M9.83943 6.86818C9.5187 6.43281 9.10952 6.07256 8.63962 5.81188C8.16972 5.5512 7.65011 5.39618 7.11602 5.35734C6.58193 5.3185 6.04587 5.39675 5.54418 5.58678C5.04249 5.7768 4.58692 6.07416 4.20837 6.45869L1.96789 8.73366C1.28769 9.44877 0.911311 10.4065 0.919819 11.4007C0.928327 12.3949 1.32104 13.3458 2.01338 14.0488C2.70572 14.7518 3.64228 15.1506 4.62136 15.1592C5.60043 15.1679 6.54368 14.7857 7.24795 14.095L8.05548 13.2875" stroke="#F49EFC" stroke-width="1.78395" stroke-linecap="round" stroke-linejoin="round"/>
</svg>
