<svg width="17" height="16" viewBox="0 0 17 16" fill="none" xmlns="http://www.w3.org/2000/svg">
<g clip-path="url(#clip0_8620_24165)">
<path d="M16.0557 6.33016C16.0541 6.05614 15.9681 5.78926 15.8095 5.56583C15.6508 5.3424 15.4272 5.17329 15.169 5.08149C15.1186 5.06328 15.0646 5.05747 15.0115 5.06457C14.9584 5.07167 14.9078 5.09146 14.864 5.12227C14.8201 5.15308 14.7844 5.194 14.7597 5.24156C14.7351 5.28912 14.7223 5.34192 14.7223 5.39549L14.727 7.94483C14.7271 7.99828 14.7401 8.05093 14.7649 8.09831C14.7896 8.1457 14.8254 8.18644 14.8692 8.21709C14.913 8.24775 14.9635 8.26742 15.0165 8.27446C15.0695 8.28149 15.1234 8.27567 15.1737 8.25749C15.4324 8.16442 15.656 7.99366 15.8139 7.76857C15.9718 7.54349 16.0562 7.2751 16.0557 7.00016V6.33016Z" fill="#7A66F0"/>
<path d="M13.7221 2.33349C13.7216 2.16546 13.6785 2.00029 13.5969 1.8534C13.5153 1.70651 13.3978 1.58269 13.2554 1.49349C12.6994 1.14016 12.2761 1.43616 11.4381 1.83949C9.36501 2.95726 7.05786 3.57116 4.70341 3.63149C4.61828 3.63627 4.53822 3.67348 4.47969 3.73549C4.42116 3.79749 4.38861 3.87956 4.38875 3.96483V9.70216C4.40141 10.7202 4.69431 11.7151 5.23529 12.5776C5.77627 13.4401 6.54441 14.1369 7.45541 14.5915C7.53393 14.6311 7.61951 14.6547 7.70722 14.6611C7.79492 14.6675 7.88302 14.6565 7.96644 14.6286C8.04986 14.6008 8.12696 14.5568 8.19328 14.499C8.25961 14.4413 8.31385 14.371 8.3529 14.2922C8.39194 14.2134 8.41501 14.1277 8.42078 14.0399C8.42655 13.9522 8.4149 13.8642 8.38651 13.7809C8.35811 13.6977 8.31353 13.6209 8.25533 13.555C8.19714 13.4891 8.12647 13.4353 8.04741 13.3968C7.37075 13.0596 6.79788 12.5457 6.38946 11.9095C5.98105 11.2733 5.75229 10.5384 5.72741 9.78283C7.72005 9.93605 9.66005 10.4965 11.4274 11.4295C12.3447 11.8608 12.7194 12.1195 13.2647 11.7628C13.4053 11.672 13.5208 11.5471 13.6004 11.3998C13.6799 11.2525 13.7211 11.0876 13.7201 10.9202L13.7221 2.33349Z" fill="#7A66F0"/>
<path d="M3.38889 4.01149C3.38889 3.92309 3.35377 3.8383 3.29126 3.77579C3.22875 3.71328 3.14396 3.67816 3.05556 3.67816L2.38022 3.68349C1.76119 3.68667 1.16872 3.93535 0.732874 4.37495C0.297027 4.81455 0.0534283 5.40913 0.0555558 6.02816L0.0615558 7.3615C0.0645546 7.98022 0.313176 8.57242 0.752744 9.00786C1.19231 9.44331 1.78683 9.68633 2.40556 9.6835H3.05556C3.14396 9.6835 3.22875 9.64838 3.29126 9.58586C3.35377 9.52335 3.38889 9.43857 3.38889 9.35016V4.01149Z" fill="#7A66F0"/>
</g>
<defs>
<clipPath id="clip0_8620_24165">
<rect width="16" height="16" fill="white" transform="translate(0.055542)"/>
</clipPath>
</defs>
</svg>
