<svg width="17" height="16" viewBox="0 0 17 16" fill="none" xmlns="http://www.w3.org/2000/svg">
<g clip-path="url(#clip0_8620_24159)">
<path d="M16.4173 7.24949L14.3707 3.58282C14.2585 3.38015 14.0944 3.211 13.8952 3.09277C13.696 2.97455 13.469 2.91152 13.2373 2.91016H3.76667C3.53529 2.91118 3.30836 2.97379 3.10918 3.09153C2.91001 3.20928 2.74577 3.37793 2.63333 3.58016L0.586667 7.24949C0.538119 7.35148 0.508742 7.46154 0.5 7.57416L0.5 11.5742C0.5 11.8394 0.605357 12.0937 0.792893 12.2813C0.98043 12.4688 1.23478 12.5742 1.5 12.5742H15.5C15.7652 12.5742 16.0196 12.4688 16.2071 12.2813C16.3946 12.0937 16.5 11.8394 16.5 11.5742V7.57416C16.4953 7.46136 16.4672 7.35079 16.4173 7.24949ZM3.72 4.32682C3.73426 4.30075 3.75528 4.279 3.78086 4.26387C3.80643 4.24873 3.83562 4.24077 3.86533 4.24082L13.1087 4.23016C13.1383 4.23004 13.1675 4.2379 13.193 4.25291C13.2186 4.26793 13.2397 4.28954 13.254 4.31549L14.748 6.99282C14.7622 7.01818 14.7695 7.0468 14.7692 7.07585C14.7689 7.10489 14.761 7.13336 14.7463 7.15842C14.7316 7.18349 14.7107 7.20427 14.6855 7.21873C14.6603 7.23318 14.6317 7.2408 14.6027 7.24082H12.1667C12.0353 7.24043 11.9051 7.2661 11.7837 7.31634C11.6623 7.36657 11.552 7.44038 11.4593 7.53349C11.2724 7.72153 11.1673 7.97571 11.1667 8.24082C11.1667 8.50604 11.0613 8.76039 10.8738 8.94793C10.6862 9.13547 10.4319 9.24082 10.1667 9.24082H6.83333C6.56812 9.24082 6.31376 9.13547 6.12623 8.94793C5.93869 8.76039 5.83333 8.50604 5.83333 8.24082C5.83333 7.97561 5.72798 7.72125 5.54044 7.53372C5.3529 7.34618 5.09855 7.24082 4.83333 7.24082H2.396C2.36707 7.24066 2.33867 7.23299 2.31358 7.21857C2.2885 7.20415 2.26758 7.18347 2.25287 7.15855C2.23816 7.13364 2.23016 7.10533 2.22966 7.0764C2.22916 7.04747 2.23617 7.0189 2.25 6.99349L3.72 4.32682Z" fill="#FF6726"/>
</g>
<defs>
<clipPath id="clip0_8620_24159">
<rect width="16" height="16" fill="white" transform="translate(0.5)"/>
</clipPath>
</defs>
</svg>
