<svg width="17" height="17" viewBox="0 0 17 17" fill="none" xmlns="http://www.w3.org/2000/svg">
<path d="M6.61145 9.77892C6.95104 10.2399 7.3843 10.6213 7.88184 10.8974C8.37938 11.1734 8.92956 11.3375 9.49506 11.3786C10.0606 11.4198 10.6282 11.3369 11.1594 11.1357C11.6906 10.9345 12.1729 10.6196 12.5738 10.2125L14.946 7.80371C15.6662 7.04653 16.0648 6.03242 16.0557 4.97978C16.0467 3.92715 15.6309 2.92022 14.8979 2.17587C14.1648 1.43152 13.1731 1.0093 12.1365 1.00015C11.0998 0.991005 10.1011 1.39566 9.35537 2.12696L8.50034 2.982" stroke="#AEB5C1" stroke-width="1.78395" stroke-linecap="round" stroke-linejoin="round"/>
<path d="M10.3889 7.33262C10.0493 6.87164 9.61605 6.4902 9.11851 6.21419C8.62097 5.93817 8.07079 5.77404 7.50529 5.73291C6.93979 5.69179 6.37219 5.77464 5.84099 5.97584C5.30979 6.17705 4.82742 6.4919 4.4266 6.89904L2.05433 9.30784C1.33412 10.065 0.935599 11.0791 0.944607 12.1318C0.953616 13.1844 1.36943 14.1913 2.10249 14.9357C2.83556 15.68 3.82721 16.1022 4.86388 16.1114C5.90055 16.1205 6.89929 15.7159 7.64498 14.9846L8.50001 14.1295" stroke="#AEB5C1" stroke-width="1.78395" stroke-linecap="round" stroke-linejoin="round"/>
</svg>
