<svg width="17" height="16" viewBox="0 0 17 16" fill="none" xmlns="http://www.w3.org/2000/svg">
<path d="M8.05566 2.23242C5.93464 2.23472 3.90114 3.07831 2.40134 4.5781C0.90155 6.0779 0.0579581 8.11139 0.0556641 10.2324V11.8264C0.0561935 12.3413 0.260967 12.835 0.625047 13.199C0.989128 13.5631 1.48278 13.7679 1.99766 13.7684H14.1137C14.6286 13.7679 15.1222 13.5631 15.4863 13.199C15.8504 12.835 16.0551 12.3413 16.0557 11.8264V10.2324C16.0534 8.11139 15.2098 6.0779 13.71 4.5781C12.2102 3.07831 10.1767 2.23472 8.05566 2.23242ZM14.1137 12.4324H1.99766C1.83675 12.4323 1.68244 12.3684 1.5684 12.2549C1.45437 12.1414 1.38988 11.9873 1.389 11.8264V10.9338H3.05566C3.18827 10.9338 3.31545 10.8811 3.40922 10.7873C3.50299 10.6935 3.55566 10.5664 3.55566 10.4338C3.55566 10.3011 3.50299 10.174 3.40922 10.0802C3.31545 9.98643 3.18827 9.93376 3.05566 9.93376H1.39566C1.43146 9.10818 1.62163 8.29662 1.95633 7.54109L3.309 8.32376C3.42392 8.39006 3.56048 8.40799 3.68863 8.37361C3.81678 8.33923 3.92603 8.25535 3.99233 8.14042C4.05864 8.0255 4.07657 7.88894 4.04219 7.76079C4.00781 7.63264 3.92392 7.52339 3.809 7.45709L2.429 6.65709C2.86711 5.97054 3.4267 5.36961 4.08033 4.88376L4.83366 6.18842C4.90138 6.30182 5.0106 6.38438 5.13817 6.4186C5.26573 6.45283 5.40161 6.43602 5.517 6.37176C5.57388 6.3389 5.62372 6.29515 5.66369 6.24302C5.70365 6.19089 5.73295 6.1314 5.74992 6.06794C5.76688 6.00448 5.77117 5.9383 5.76255 5.87318C5.75393 5.80806 5.73256 5.74528 5.69966 5.68842L4.92566 4.34776C5.7394 3.91243 6.63531 3.65241 7.55566 3.58442V5.10176C7.55566 5.23436 7.60834 5.36154 7.70211 5.45531C7.79588 5.54908 7.92306 5.60176 8.05566 5.60176C8.18827 5.60176 8.31545 5.54908 8.40922 5.45531C8.50299 5.36154 8.55566 5.23436 8.55566 5.10176V3.58442C9.59065 3.66304 10.593 3.98209 11.483 4.51621C12.373 5.05032 13.1261 5.78476 13.6823 6.66109L12.3023 7.46109C12.1874 7.52739 12.1035 7.63664 12.0691 7.76479C12.0348 7.89294 12.0527 8.0295 12.119 8.14442C12.1853 8.25935 12.2945 8.34323 12.4227 8.37761C12.5508 8.41199 12.6874 8.39406 12.8023 8.32776L14.155 7.54642C14.4891 8.3003 14.6792 9.10999 14.7157 9.93376H13.0557C12.99 9.93376 12.925 9.94669 12.8643 9.97182C12.8037 9.99694 12.7485 10.0338 12.7021 10.0802C12.6557 10.1266 12.6189 10.1818 12.5937 10.2424C12.5686 10.3031 12.5557 10.3681 12.5557 10.4338C12.5557 10.4994 12.5686 10.5644 12.5937 10.6251C12.6189 10.6858 12.6557 10.7409 12.7021 10.7873C12.7485 10.8337 12.8037 10.8706 12.8643 10.8957C12.925 10.9208 12.99 10.9338 13.0557 10.9338H14.7223V11.8251C14.7224 11.9051 14.7067 11.9844 14.6762 12.0583C14.6457 12.1323 14.6009 12.1995 14.5443 12.2561C14.4878 12.3128 14.4207 12.3577 14.3468 12.3885C14.2729 12.4192 14.1937 12.435 14.1137 12.4351V12.4324Z" fill="#FF5353"/>
<path d="M11.099 5.41709C11.0439 5.38131 10.9824 5.35673 10.9178 5.34477C10.8533 5.3328 10.787 5.33369 10.7228 5.34738C10.6586 5.36106 10.5977 5.38728 10.5436 5.42452C10.4895 5.46176 10.4433 5.5093 10.4077 5.56442L8.40766 8.64376C8.06308 8.56025 7.70006 8.60128 7.3828 8.75959C7.06555 8.9179 6.81449 9.1833 6.67403 9.50885C6.53356 9.8344 6.51274 10.1991 6.61524 10.5386C6.71774 10.878 6.93696 11.1702 7.23414 11.3636C7.53132 11.557 7.88731 11.6391 8.23916 11.5953C8.59101 11.5516 8.91606 11.3848 9.15683 11.1245C9.3976 10.8643 9.53857 10.5272 9.55483 10.173C9.57109 9.81886 9.46158 9.47033 9.24566 9.18909L11.2457 6.10909C11.3179 5.99784 11.343 5.86249 11.3155 5.73275C11.288 5.60302 11.2101 5.48949 11.099 5.41709Z" fill="#FF5353"/>
</svg>
