<svg width="17" height="18" viewBox="0 0 17 18" fill="none" xmlns="http://www.w3.org/2000/svg">
<path d="M4.77763 5.34276V4.90973C4.77763 2.7582 6.43533 1 8.5 1C10.5647 1 12.2224 2.7582 12.2224 4.90973V5.34401H14.7635C14.9172 5.34416 15.0654 5.40135 15.1793 5.50451C15.2932 5.60766 15.3648 5.74944 15.3802 5.90236L16.4969 17.0695C16.5056 17.1557 16.4961 17.2428 16.469 17.3251C16.442 17.4074 16.398 17.4832 16.3399 17.5475C16.2818 17.6117 16.2109 17.6632 16.1317 17.6984C16.0525 17.7336 15.9669 17.7518 15.8802 17.7519H1.11978C1.03313 17.7518 0.947457 17.7336 0.868283 17.6984C0.789108 17.6632 0.718189 17.6117 0.660092 17.5475C0.601996 17.4832 0.558012 17.4074 0.530975 17.3251C0.503937 17.2428 0.494445 17.1557 0.50311 17.0695L1.61982 5.90236C1.63519 5.74944 1.70677 5.60766 1.82071 5.50451C1.93464 5.40135 2.0828 5.34416 2.23649 5.34401H4.77763V5.34276ZM6.01842 5.34276H10.9816V4.90973C10.9816 3.42823 9.86239 2.24079 8.5 2.24079C7.13761 2.24079 6.01842 3.42823 6.01842 4.90973V5.34401V5.34276ZM4.77763 6.58355H2.79857L1.80594 16.5099H15.1941L14.2002 6.58355H12.2224V8.44474C12.2224 8.60928 12.157 8.76708 12.0407 8.88342C11.9243 8.99977 11.7665 9.06513 11.602 9.06513C11.4374 9.06513 11.2796 8.99977 11.1633 8.88342C11.0469 8.76708 10.9816 8.60928 10.9816 8.44474V6.58355H6.01842V8.44474C6.01842 8.60928 5.95306 8.76708 5.83671 8.88342C5.72036 8.99977 5.56256 9.06513 5.39803 9.06513C5.23349 9.06513 5.07569 8.99977 4.95934 8.88342C4.84299 8.76708 4.77763 8.60928 4.77763 8.44474V6.58355Z" fill="#AEB5C1" stroke="#AEB5C1" stroke-width="0.5"/>
</svg>
