<svg width="17" height="16" viewBox="0 0 17 16" fill="none" xmlns="http://www.w3.org/2000/svg">
<path d="M1.389 11.9096C1.21219 11.9096 1.04262 11.9798 0.917594 12.1048C0.79257 12.2299 0.722332 12.3994 0.722332 12.5762V13.5762C0.722244 13.5982 0.726495 13.6199 0.734839 13.6401C0.743184 13.6604 0.755457 13.6788 0.770951 13.6943C0.786445 13.7098 0.804853 13.7221 0.825114 13.7304C0.845375 13.7387 0.867087 13.743 0.888999 13.7429H3.22233C3.24424 13.743 3.26596 13.7387 3.28622 13.7304C3.30648 13.7221 3.32489 13.7098 3.34038 13.6943C3.35587 13.6788 3.36815 13.6604 3.37649 13.6401C3.38484 13.6199 3.38909 13.5982 3.389 13.5762V12.5762C3.389 12.3994 3.31876 12.2299 3.19374 12.1048C3.06871 11.9798 2.89914 11.9096 2.72233 11.9096H1.389Z" fill="#3A9EFE"/>
<path d="M5.389 9.90958C5.21219 9.90958 5.04262 9.97982 4.91759 10.1048C4.79257 10.2299 4.72233 10.3994 4.72233 10.5762V13.5762C4.72224 13.5982 4.72649 13.6199 4.73484 13.6401C4.74318 13.6604 4.75546 13.6788 4.77095 13.6943C4.78644 13.7098 4.80485 13.7221 4.82511 13.7304C4.84537 13.7387 4.86709 13.743 4.889 13.7429H7.22233C7.24424 13.743 7.26596 13.7387 7.28622 13.7304C7.30648 13.7221 7.32489 13.7098 7.34038 13.6943C7.35587 13.6788 7.36815 13.6604 7.37649 13.6401C7.38484 13.6199 7.38909 13.5982 7.389 13.5762V10.5762C7.389 10.3994 7.31876 10.2299 7.19374 10.1048C7.06871 9.97982 6.89914 9.90958 6.72233 9.90958H5.389Z" fill="#3A9EFE"/>
<path d="M9.389 7.57624C9.21219 7.57624 9.04262 7.64648 8.91759 7.77151C8.79257 7.89653 8.72233 8.0661 8.72233 8.24291V13.5762C8.72224 13.5982 8.72649 13.6199 8.73484 13.6401C8.74318 13.6604 8.75546 13.6788 8.77095 13.6943C8.78645 13.7098 8.80485 13.7221 8.82511 13.7304C8.84538 13.7387 8.86709 13.743 8.889 13.7429H11.2223C11.2442 13.743 11.266 13.7387 11.2862 13.7304C11.3065 13.7221 11.3249 13.7098 11.3404 13.6943C11.3559 13.6788 11.3681 13.6604 11.3765 13.6401C11.3848 13.6199 11.3891 13.5982 11.389 13.5762V8.24291C11.389 8.0661 11.3188 7.89653 11.1937 7.77151C11.0687 7.64648 10.8991 7.57624 10.7223 7.57624H9.389Z" fill="#3A9EFE"/>
<path d="M12.889 13.7429H15.2223C15.2442 13.743 15.266 13.7387 15.2862 13.7304C15.3065 13.7221 15.3249 13.7098 15.3404 13.6943C15.3559 13.6788 15.3681 13.6604 15.3765 13.6401C15.3848 13.6199 15.3891 13.5982 15.389 13.5762V5.57624C15.389 5.39943 15.3188 5.22986 15.1937 5.10484C15.0687 4.97981 14.8991 4.90958 14.7223 4.90958H13.389C13.2122 4.90958 13.0426 4.97981 12.9176 5.10484C12.7926 5.22986 12.7223 5.39943 12.7223 5.57624V13.5762C12.7222 13.5982 12.7265 13.6199 12.7348 13.6401C12.7432 13.6604 12.7555 13.6788 12.771 13.6943C12.7864 13.7098 12.8049 13.7221 12.8251 13.7304C12.8454 13.7387 12.8671 13.743 12.889 13.7429Z" fill="#3A9EFE"/>
<path d="M12.1017 2.80425L12.3064 3.11091C12.3522 3.17924 12.4141 3.23523 12.4866 3.27395C12.5592 3.31267 12.6402 3.33292 12.7224 3.33291H12.7391C12.8243 3.33008 12.9074 3.3055 12.9804 3.26151C13.0535 3.21752 13.1141 3.15558 13.1564 3.08158L14.4897 0.748246C14.5357 0.667619 14.5584 0.575794 14.5552 0.483027C14.5521 0.390259 14.5232 0.300202 14.4717 0.222912C14.4207 0.145228 14.3487 0.08351 14.2642 0.0448345C14.1797 0.00615892 14.0859 -0.00790844 13.9937 0.00424536L11.3271 0.337579C11.2424 0.34799 11.1619 0.379904 11.0931 0.430277C11.0243 0.480651 10.9695 0.547806 10.934 0.625342C10.8985 0.702879 10.8835 0.788214 10.8903 0.873214C10.8972 0.958213 10.9257 1.04005 10.9731 1.11091L11.1777 1.41758C11.2021 1.45448 11.2109 1.49953 11.2021 1.54287C11.1934 1.58622 11.1678 1.62434 11.1311 1.64891L1.68575 7.94558C1.53864 8.04371 1.43654 8.19626 1.40191 8.36967C1.36728 8.54308 1.40295 8.72314 1.50108 8.87025C1.59921 9.01735 1.75176 9.11945 1.92517 9.15409C2.09858 9.18872 2.27864 9.15304 2.42575 9.05491L11.8711 2.75825C11.8892 2.74608 11.9096 2.73762 11.931 2.73334C11.9525 2.72907 11.9745 2.72907 11.996 2.73334C12.0174 2.73762 12.0378 2.74608 12.0559 2.75825C12.0741 2.77042 12.0897 2.78605 12.1017 2.80425Z" fill="#3A9EFE"/>
<path d="M0.722331 15.9996H15.389C15.5658 15.9996 15.7354 15.9293 15.8604 15.8043C15.9854 15.6793 16.0557 15.5097 16.0557 15.3329C16.0557 15.1561 15.9854 14.9865 15.8604 14.8615C15.7354 14.7365 15.5658 14.6662 15.389 14.6662H0.722331C0.54552 14.6662 0.37595 14.7365 0.250926 14.8615C0.125902 14.9865 0.0556641 15.1561 0.0556641 15.3329C0.0556641 15.5097 0.125902 15.6793 0.250926 15.8043C0.37595 15.9293 0.54552 15.9996 0.722331 15.9996Z" fill="#3A9EFE"/>
</svg>
