<svg width="16" height="16" viewBox="0 0 16 16" fill="none" xmlns="http://www.w3.org/2000/svg">
<path d="M15.9173 7.24949L13.8707 3.58282C13.7585 3.38015 13.5944 3.211 13.3952 3.09277C13.196 2.97455 12.969 2.91152 12.7373 2.91016H3.26667C3.03529 2.91118 2.80836 2.97379 2.60918 3.09153C2.41001 3.20928 2.24577 3.37793 2.13333 3.58016L0.0866667 7.24949C0.0381194 7.35148 0.00874197 7.46154 0 7.57416L0 11.5742C0 11.8394 0.105357 12.0937 0.292893 12.2813C0.48043 12.4688 0.734784 12.5742 1 12.5742H15C15.2652 12.5742 15.5196 12.4688 15.7071 12.2813C15.8946 12.0937 16 11.8394 16 11.5742V7.57416C15.9953 7.46136 15.9672 7.35079 15.9173 7.24949ZM3.22 4.32682C3.23426 4.30075 3.25528 4.279 3.28086 4.26387C3.30643 4.24873 3.33562 4.24077 3.36533 4.24082L12.6087 4.23016C12.6383 4.23004 12.6675 4.2379 12.693 4.25291C12.7186 4.26793 12.7397 4.28954 12.754 4.31549L14.248 6.99282C14.2622 7.01818 14.2695 7.0468 14.2692 7.07585C14.2689 7.10489 14.261 7.13336 14.2463 7.15842C14.2316 7.18349 14.2107 7.20427 14.1855 7.21873C14.1603 7.23318 14.1317 7.2408 14.1027 7.24082H11.6667C11.5353 7.24043 11.4051 7.2661 11.2837 7.31634C11.1623 7.36657 11.052 7.44038 10.9593 7.53349C10.7724 7.72153 10.6673 7.97571 10.6667 8.24082C10.6667 8.50604 10.5613 8.76039 10.3738 8.94793C10.1862 9.13547 9.93188 9.24082 9.66667 9.24082H6.33333C6.06812 9.24082 5.81376 9.13547 5.62623 8.94793C5.43869 8.76039 5.33333 8.50604 5.33333 8.24082C5.33333 7.97561 5.22798 7.72125 5.04044 7.53372C4.8529 7.34618 4.59855 7.24082 4.33333 7.24082H1.896C1.86707 7.24066 1.83867 7.23299 1.81358 7.21857C1.7885 7.20415 1.76758 7.18347 1.75287 7.15855C1.73816 7.13364 1.73016 7.10533 1.72966 7.0764C1.72916 7.04747 1.73617 7.0189 1.75 6.99349L3.22 4.32682Z" fill="#AEB5C1"/>
</svg>
