<svg width="17" height="16" viewBox="0 0 17 16" fill="none" xmlns="http://www.w3.org/2000/svg">
<g clip-path="url(#clip0_8620_24161)">
<path d="M15.6928 0.163875C15.5897 0.0788012 15.4644 0.0250478 15.3317 0.00897924C15.199 -0.0070893 15.0645 0.0152 14.9441 0.073208L0.902781 7.40121C0.696621 7.50862 0.522463 7.66854 0.397905 7.86481C0.273348 8.06109 0.202804 8.28676 0.193403 8.51904C0.184001 8.75131 0.236074 8.98195 0.34436 9.18765C0.452647 9.39335 0.613309 9.56682 0.810115 9.69054L4.76945 12.1812V14.9285C4.76953 15.1251 4.82787 15.3172 4.93709 15.4806C5.04632 15.644 5.20153 15.7713 5.38311 15.8465C5.56469 15.9217 5.76449 15.9414 5.95726 15.9031C6.15002 15.8647 6.3271 15.7701 6.46611 15.6312L7.92811 14.1685L10.5161 15.7965C10.6938 15.9082 10.8954 15.9759 11.1045 15.9942C11.3135 16.0124 11.5239 15.9807 11.7182 15.9015C11.9125 15.8224 12.0852 15.6981 12.222 15.539C12.3587 15.3799 12.4557 15.1905 12.5048 14.9865L15.9008 0.819875C15.9247 0.701865 15.9181 0.579708 15.8818 0.464931C15.8454 0.350155 15.7803 0.246543 15.6928 0.163875ZM11.5888 3.32721C11.6232 3.31033 11.6624 3.30584 11.6998 3.3145C11.7371 3.32317 11.7704 3.34444 11.7939 3.37475C11.8174 3.40506 11.8297 3.44255 11.8288 3.48088C11.8278 3.51922 11.8137 3.55607 11.7888 3.58521L5.40411 10.8379C5.37768 10.8677 5.34146 10.8871 5.30198 10.8926C5.26251 10.8981 5.22236 10.8893 5.18878 10.8679L1.78211 8.72454C1.75735 8.70889 1.73715 8.68698 1.72355 8.66103C1.70995 8.63509 1.70343 8.60601 1.70464 8.57674C1.70586 8.54747 1.71477 8.51903 1.73048 8.4943C1.74619 8.46957 1.76814 8.44942 1.79411 8.43587L11.5888 3.32721ZM6.10211 14.1072V13.0179L6.76878 13.4385L6.10211 14.1072ZM11.2794 14.4405C11.2731 14.4663 11.2608 14.4901 11.2435 14.5101C11.2262 14.5302 11.2044 14.5458 11.1798 14.5558C11.1553 14.5657 11.1288 14.5697 11.1024 14.5674C11.076 14.5651 11.0506 14.5566 11.0281 14.5425L6.61878 11.7692C6.59837 11.7563 6.58101 11.7392 6.56788 11.7189C6.55476 11.6986 6.5462 11.6758 6.54278 11.6519C6.53926 11.6281 6.54102 11.6038 6.54793 11.5808C6.55485 11.5577 6.56674 11.5365 6.58278 11.5185L13.5394 3.61787C13.564 3.58978 13.5973 3.57075 13.634 3.56384C13.6707 3.55692 13.7086 3.56252 13.7417 3.57973C13.7749 3.59694 13.8012 3.62478 13.8167 3.65877C13.8321 3.69276 13.8356 3.73095 13.8268 3.76721L11.2794 14.4405Z" fill="#7A66F0"/>
</g>
<defs>
<clipPath id="clip0_8620_24161">
<rect width="16" height="16" fill="white" transform="translate(0.055542)"/>
</clipPath>
</defs>
</svg>
