<svg width="17" height="16" viewBox="0 0 17 16" fill="none" xmlns="http://www.w3.org/2000/svg">
<path d="M15.3382 1.38458C15.4131 1.54687 15.5394 1.67487 15.7062 1.74744L16.4005 2.04859C16.4466 2.06876 16.4858 2.10194 16.5133 2.14406C16.5409 2.18618 16.5555 2.23541 16.5555 2.28573C16.5555 2.33606 16.5409 2.38529 16.5133 2.42741C16.4858 2.46953 16.4466 2.5027 16.4005 2.52288L15.7119 2.82402C15.5475 2.89348 15.416 3.02336 15.3445 3.18688L14.7994 4.42518C14.7023 4.62004 14.4091 4.62004 14.3114 4.42518L13.7663 3.18688C13.6931 3.02453 13.5621 2.8952 13.3989 2.82402L12.7103 2.52288C12.6642 2.5027 12.625 2.46953 12.5975 2.42741C12.5699 2.38529 12.5553 2.33606 12.5553 2.28573C12.5553 2.23541 12.5699 2.18618 12.5975 2.14406C12.625 2.10194 12.6642 2.06876 12.7103 2.04859L13.3989 1.74744C13.5633 1.67798 13.6948 1.54811 13.7663 1.38458L14.3114 0.146287C14.4086 -0.0485718 14.7017 -0.0485718 14.7994 0.146287L15.3382 1.38458ZM8.54595 1.80859C8.59952 1.9213 8.69267 2.01038 8.80765 2.05887L9.30135 2.26459C9.44991 2.33145 9.44991 2.52574 9.30135 2.59259L8.80765 2.79831C8.69135 2.84478 8.59756 2.93448 8.54595 3.0486L8.15968 3.90003C8.08826 4.03318 7.87969 4.03318 7.80884 3.90003L7.42257 3.0486C7.36922 2.93572 7.27601 2.84657 7.16087 2.79831L6.66717 2.59259C6.63438 2.57951 6.60625 2.55688 6.58644 2.52765C6.56663 2.49841 6.55604 2.46391 6.55604 2.42859C6.55604 2.39328 6.56663 2.35877 6.58644 2.32954C6.60625 2.3003 6.63438 2.27768 6.66717 2.26459L7.16087 2.05887C7.27717 2.0124 7.37096 1.9227 7.42257 1.80859L7.80884 0.957151C7.88027 0.824007 8.08883 0.824007 8.15968 0.957151L8.54595 1.80859ZM1.69882 13.7144L0.748572 14.6441C0.687396 14.705 0.638849 14.7773 0.605722 14.857C0.572595 14.9367 0.555542 15.0221 0.555542 15.1084C0.555542 15.1947 0.572595 15.2801 0.605722 15.3598C0.638849 15.4395 0.687396 15.5118 0.748572 15.5727L0.982848 15.807C1.23427 16.0653 1.65139 16.0653 1.90281 15.8013L2.84163 14.8613L2.83991 14.8596L10.8413 6.8572L11.7978 5.90462C12.0464 5.65033 12.0464 5.19604 11.7978 4.94747L11.6092 4.75833C11.3555 4.50861 10.8413 4.57147 10.5556 4.85718L1.69882 13.7144ZM14.2411 8.17036C14.1233 8.11366 14.0299 8.01623 13.9783 7.89607L13.5869 6.9692C13.5137 6.82006 13.3057 6.82006 13.2383 6.9692L12.8469 7.89664C12.7952 8.01662 12.7018 8.11384 12.5841 8.17036L12.0944 8.39436C11.9475 8.46864 11.9475 8.68007 12.0944 8.74864L12.5835 8.97265C12.7013 9.02935 12.7947 9.12677 12.8463 9.24693L13.2383 10.1738C13.3115 10.3229 13.5195 10.3229 13.5869 10.1738L13.9783 9.24693C14.0299 9.12674 14.1233 9.02931 14.2411 8.97265L14.7308 8.74864C14.8777 8.67436 14.8777 8.46293 14.7308 8.39436L14.2411 8.17036ZM6.27005 6.8572C6.4216 6.8572 6.56693 6.797 6.67409 6.68983C6.78125 6.58267 6.84145 6.43732 6.84145 6.28577C6.84145 6.13421 6.78125 5.98887 6.67409 5.8817C6.56693 5.77454 6.4216 5.71433 6.27005 5.71433C6.1185 5.71433 5.97317 5.77454 5.86601 5.8817C5.75885 5.98887 5.69865 6.13421 5.69865 6.28577C5.69865 6.43732 5.75885 6.58267 5.86601 6.68983C5.97317 6.797 6.1185 6.8572 6.27005 6.8572ZM16.5553 6.28577C16.5553 6.43732 16.4951 6.58267 16.388 6.68983C16.2808 6.797 16.1355 6.8572 15.9839 6.8572C15.8324 6.8572 15.687 6.797 15.5799 6.68983C15.4727 6.58267 15.4125 6.43732 15.4125 6.28577C15.4125 6.13421 15.4727 5.98887 15.5799 5.8817C15.687 5.77454 15.8324 5.71433 15.9839 5.71433C16.1355 5.71433 16.2808 5.77454 16.388 5.8817C16.4951 5.98887 16.5553 6.13421 16.5553 6.28577ZM10.2699 1.14287C10.4214 1.14287 10.5668 1.08266 10.6739 0.975498C10.7811 0.868333 10.8413 0.722987 10.8413 0.571433C10.8413 0.41988 10.7811 0.274534 10.6739 0.167369C10.5668 0.0602044 10.4214 0 10.2699 0C10.1183 0 9.97299 0.0602044 9.86583 0.167369C9.75867 0.274534 9.69847 0.41988 9.69847 0.571433C9.69847 0.722987 9.75867 0.868333 9.86583 0.975498C9.97299 1.08266 10.1183 1.14287 10.2699 1.14287ZM10.8413 10.8572C10.8413 11.0088 10.7811 11.1541 10.6739 11.2613C10.5668 11.3685 10.4214 11.4287 10.2699 11.4287C10.1183 11.4287 9.97299 11.3685 9.86583 11.2613C9.75867 11.1541 9.69847 11.0088 9.69847 10.8572C9.69847 10.7057 9.75867 10.5603 9.86583 10.4532C9.97299 10.346 10.1183 10.2858 10.2699 10.2858C10.4214 10.2858 10.5668 10.346 10.6739 10.4532C10.7811 10.5603 10.8413 10.7057 10.8413 10.8572Z" fill="#AEB5C1"/>
</svg>
