<svg width="17" height="16" viewBox="0 0 17 16" fill="none" xmlns="http://www.w3.org/2000/svg">
<path d="M14.8382 1.38458C14.9131 1.54687 15.0394 1.67487 15.2062 1.74744L15.9005 2.04859C15.9466 2.06876 15.9858 2.10194 16.0133 2.14406C16.0409 2.18618 16.0555 2.23541 16.0555 2.28573C16.0555 2.33606 16.0409 2.38529 16.0133 2.42741C15.9858 2.46953 15.9466 2.5027 15.9005 2.52288L15.2119 2.82402C15.0475 2.89348 14.916 3.02336 14.8445 3.18688L14.2994 4.42518C14.2023 4.62004 13.9091 4.62004 13.8114 4.42518L13.2663 3.18688C13.1931 3.02453 13.0621 2.8952 12.8989 2.82402L12.2103 2.52288C12.1642 2.5027 12.125 2.46953 12.0975 2.42741C12.0699 2.38529 12.0553 2.33606 12.0553 2.28573C12.0553 2.23541 12.0699 2.18618 12.0975 2.14406C12.125 2.10194 12.1642 2.06876 12.2103 2.04859L12.8989 1.74744C13.0633 1.67798 13.1948 1.54811 13.2663 1.38458L13.8114 0.146287C13.9086 -0.0485718 14.2017 -0.0485718 14.2994 0.146287L14.8382 1.38458ZM8.04595 1.80859C8.09952 1.9213 8.19267 2.01038 8.30765 2.05887L8.80135 2.26459C8.94991 2.33145 8.94991 2.52574 8.80135 2.59259L8.30765 2.79831C8.19135 2.84478 8.09756 2.93448 8.04595 3.0486L7.65968 3.90003C7.58826 4.03318 7.37969 4.03318 7.30884 3.90003L6.92257 3.0486C6.86922 2.93572 6.77601 2.84657 6.66087 2.79831L6.16717 2.59259C6.13438 2.57951 6.10625 2.55688 6.08644 2.52765C6.06663 2.49841 6.05604 2.46391 6.05604 2.42859C6.05604 2.39328 6.06663 2.35877 6.08644 2.32954C6.10625 2.3003 6.13438 2.27768 6.16717 2.26459L6.66087 2.05887C6.77717 2.0124 6.87096 1.9227 6.92257 1.80859L7.30884 0.957151C7.38027 0.824007 7.58883 0.824007 7.65968 0.957151L8.04595 1.80859ZM1.19882 13.7144L0.248572 14.6441C0.187396 14.705 0.138849 14.7773 0.105722 14.857C0.0725955 14.9367 0.055542 15.0221 0.055542 15.1084C0.055542 15.1947 0.0725955 15.2801 0.105722 15.3598C0.138849 15.4395 0.187396 15.5118 0.248572 15.5727L0.482848 15.807C0.734265 16.0653 1.15139 16.0653 1.40281 15.8013L2.34163 14.8613L2.33991 14.8596L10.3413 6.8572L11.2978 5.90462C11.5464 5.65033 11.5464 5.19604 11.2978 4.94747L11.1092 4.75833C10.8555 4.50861 10.3413 4.57147 10.0556 4.85718L1.19882 13.7144ZM13.7411 8.17036C13.6233 8.11366 13.5299 8.01623 13.4783 7.89607L13.0869 6.9692C13.0137 6.82006 12.8057 6.82006 12.7383 6.9692L12.3469 7.89664C12.2952 8.01662 12.2018 8.11384 12.0841 8.17036L11.5944 8.39436C11.4475 8.46864 11.4475 8.68007 11.5944 8.74864L12.0835 8.97265C12.2013 9.02935 12.2947 9.12677 12.3463 9.24693L12.7383 10.1738C12.8115 10.3229 13.0195 10.3229 13.0869 10.1738L13.4783 9.24693C13.5299 9.12674 13.6233 9.02931 13.7411 8.97265L14.2308 8.74864C14.3777 8.67436 14.3777 8.46293 14.2308 8.39436L13.7411 8.17036ZM5.77005 6.8572C5.9216 6.8572 6.06693 6.797 6.17409 6.68983C6.28125 6.58267 6.34145 6.43732 6.34145 6.28577C6.34145 6.13421 6.28125 5.98887 6.17409 5.8817C6.06693 5.77454 5.9216 5.71433 5.77005 5.71433C5.6185 5.71433 5.47317 5.77454 5.36601 5.8817C5.25885 5.98887 5.19865 6.13421 5.19865 6.28577C5.19865 6.43732 5.25885 6.58267 5.36601 6.68983C5.47317 6.797 5.6185 6.8572 5.77005 6.8572ZM16.0553 6.28577C16.0553 6.43732 15.9951 6.58267 15.888 6.68983C15.7808 6.797 15.6355 6.8572 15.4839 6.8572C15.3324 6.8572 15.187 6.797 15.0799 6.68983C14.9727 6.58267 14.9125 6.43732 14.9125 6.28577C14.9125 6.13421 14.9727 5.98887 15.0799 5.8817C15.187 5.77454 15.3324 5.71433 15.4839 5.71433C15.6355 5.71433 15.7808 5.77454 15.888 5.8817C15.9951 5.98887 16.0553 6.13421 16.0553 6.28577ZM9.76988 1.14287C9.92142 1.14287 10.0668 1.08266 10.1739 0.975498C10.2811 0.868333 10.3413 0.722987 10.3413 0.571433C10.3413 0.41988 10.2811 0.274534 10.1739 0.167369C10.0668 0.0602044 9.92142 0 9.76988 0C9.61833 0 9.47299 0.0602044 9.36583 0.167369C9.25867 0.274534 9.19847 0.41988 9.19847 0.571433C9.19847 0.722987 9.25867 0.868333 9.36583 0.975498C9.47299 1.08266 9.61833 1.14287 9.76988 1.14287ZM10.3413 10.8572C10.3413 11.0088 10.2811 11.1541 10.1739 11.2613C10.0668 11.3685 9.92142 11.4287 9.76988 11.4287C9.61833 11.4287 9.47299 11.3685 9.36583 11.2613C9.25867 11.1541 9.19847 11.0088 9.19847 10.8572C9.19847 10.7057 9.25867 10.5603 9.36583 10.4532C9.47299 10.346 9.61833 10.2858 9.76988 10.2858C9.92142 10.2858 10.0668 10.346 10.1739 10.4532C10.2811 10.5603 10.3413 10.7057 10.3413 10.8572Z" fill="#FF6726"/>
</svg>
