<svg width="17" height="16" viewBox="0 0 17 16" fill="none" xmlns="http://www.w3.org/2000/svg">
<path d="M12.1368 8.79758C12.7366 8.79758 13.2645 8.46967 13.5364 7.9738L16.3996 2.78323C16.467 2.66201 16.5016 2.52528 16.4999 2.38659C16.4983 2.24789 16.4604 2.11204 16.3901 1.99246C16.3198 1.87289 16.2196 1.77374 16.0992 1.70482C15.9788 1.63591 15.8425 1.59963 15.7038 1.59956H3.86707L3.11528 0H0.5V1.59956H2.09956L4.97877 7.66989L3.89906 9.62135C3.31522 10.6931 4.08301 11.9967 5.29868 11.9967H14.896V10.3971H5.29868L6.17844 8.79758H12.1368ZM4.62686 3.19912H14.3442L12.1368 7.19802H6.52234L4.62686 3.19912ZM5.29868 12.7965C4.41892 12.7965 3.70712 13.5163 3.70712 14.396C3.70712 15.2758 4.41892 15.9956 5.29868 15.9956C6.17844 15.9956 6.89824 15.2758 6.89824 14.396C6.89824 13.5163 6.17844 12.7965 5.29868 12.7965ZM13.2965 12.7965C12.4167 12.7965 11.7049 13.5163 11.7049 14.396C11.7049 15.2758 12.4167 15.9956 13.2965 15.9956C14.1762 15.9956 14.896 15.2758 14.896 14.396C14.896 13.5163 14.1762 12.7965 13.2965 12.7965Z" fill="#AEB5C1"/>
</svg>
