<svg width="17" height="16" viewBox="0 0 17 16" fill="none" xmlns="http://www.w3.org/2000/svg">
<g clip-path="url(#clip0_8620_24134)">
<path d="M16.5557 6.33016C16.5541 6.05614 16.4681 5.78926 16.3095 5.56583C16.1508 5.3424 15.9272 5.17329 15.669 5.08149C15.6186 5.06328 15.5646 5.05747 15.5115 5.06457C15.4584 5.07167 15.4078 5.09146 15.364 5.12227C15.3201 5.15308 15.2844 5.194 15.2597 5.24156C15.2351 5.28912 15.2223 5.34192 15.2223 5.39549L15.227 7.94483C15.2271 7.99828 15.2401 8.05093 15.2649 8.09831C15.2896 8.1457 15.3254 8.18644 15.3692 8.21709C15.413 8.24775 15.4635 8.26742 15.5165 8.27446C15.5695 8.28149 15.6234 8.27567 15.6737 8.25749C15.9324 8.16442 16.156 7.99366 16.3139 7.76857C16.4718 7.54349 16.5562 7.2751 16.5557 7.00016V6.33016Z" fill="#AEB5C1"/>
<path d="M14.2221 2.33349C14.2216 2.16546 14.1785 2.00029 14.0969 1.8534C14.0153 1.70651 13.8978 1.58269 13.7554 1.49349C13.1994 1.14016 12.7761 1.43616 11.9381 1.83949C9.86501 2.95726 7.55786 3.57116 5.20341 3.63149C5.11828 3.63627 5.03822 3.67348 4.97969 3.73549C4.92116 3.79749 4.88861 3.87956 4.88875 3.96483V9.70216C4.90141 10.7202 5.19431 11.7151 5.73529 12.5776C6.27627 13.4401 7.04441 14.1369 7.95541 14.5915C8.03393 14.6311 8.11951 14.6547 8.20722 14.6611C8.29492 14.6675 8.38302 14.6565 8.46644 14.6286C8.54986 14.6008 8.62696 14.5568 8.69328 14.499C8.75961 14.4413 8.81385 14.371 8.8529 14.2922C8.89194 14.2134 8.91501 14.1277 8.92078 14.0399C8.92655 13.9522 8.9149 13.8642 8.88651 13.7809C8.85811 13.6977 8.81353 13.6209 8.75533 13.555C8.69714 13.4891 8.62647 13.4353 8.54741 13.3968C7.87075 13.0596 7.29788 12.5457 6.88946 11.9095C6.48105 11.2733 6.25229 10.5384 6.22741 9.78283C8.22005 9.93605 10.16 10.4965 11.9274 11.4295C12.8447 11.8608 13.2194 12.1195 13.7647 11.7628C13.9053 11.672 14.0208 11.5471 14.1004 11.3998C14.1799 11.2525 14.2211 11.0876 14.2201 10.9202L14.2221 2.33349Z" fill="#AEB5C1"/>
<path d="M3.88889 4.01149C3.88889 3.92309 3.85377 3.8383 3.79126 3.77579C3.72875 3.71328 3.64396 3.67816 3.55556 3.67816L2.88022 3.68349C2.26119 3.68667 1.66872 3.93535 1.23287 4.37495C0.797027 4.81455 0.553428 5.40913 0.555556 6.02816L0.561556 7.3615C0.564555 7.98022 0.813176 8.57242 1.25274 9.00786C1.69231 9.44331 2.28683 9.68633 2.90556 9.6835H3.55556C3.64396 9.6835 3.72875 9.64838 3.79126 9.58586C3.85377 9.52335 3.88889 9.43857 3.88889 9.35016V4.01149Z" fill="#AEB5C1"/>
</g>
<defs>
<clipPath id="clip0_8620_24134">
<rect width="16" height="16" fill="white" transform="translate(0.555542)"/>
</clipPath>
</defs>
</svg>
