<svg width="17" height="16" viewBox="0 0 17 16" fill="none" xmlns="http://www.w3.org/2000/svg">
<g clip-path="url(#clip0_8620_24124)">
<path d="M15.4155 5.98698C15.5203 5.98407 15.6228 5.95625 15.7146 5.90583C15.8064 5.8554 15.8849 5.78383 15.9435 5.69703C16.0022 5.61023 16.0393 5.51071 16.0518 5.40671C16.0644 5.30271 16.0519 5.19722 16.0155 5.09898C15.433 3.58691 14.4028 2.28861 13.0628 1.37754C11.7227 0.466462 10.1366 -0.0140085 8.51621 0.000311004C1.56821 0.474978 0.555542 6.21165 0.555542 8.00031C0.558243 10.0243 1.3273 11.9721 2.70801 13.452C4.08871 14.9319 5.97862 15.8341 7.99754 15.977C8.14813 15.9848 8.29776 15.9489 8.42845 15.8737C8.55914 15.7985 8.66531 15.6871 8.73421 15.553C8.82296 15.3881 8.85022 15.197 8.81115 15.0138C8.77207 14.8307 8.6692 14.6673 8.52088 14.553C7.58057 13.8467 6.83091 12.9174 6.33954 11.849C6.32992 11.8278 6.32484 11.8048 6.32462 11.7814C6.3244 11.7581 6.32906 11.735 6.33828 11.7136C6.34751 11.6922 6.3611 11.673 6.3782 11.6572C6.39529 11.6413 6.4155 11.6292 6.43754 11.6216C6.5683 11.5783 6.68217 11.495 6.76313 11.3836C6.84409 11.2721 6.88807 11.1381 6.88888 11.0003C6.88888 10.8235 6.81864 10.6539 6.69361 10.5289C6.56859 10.4039 6.39902 10.3336 6.22221 10.3336H5.95554C5.9177 10.3337 5.88097 10.3208 5.85141 10.2972C5.82185 10.2735 5.8012 10.2406 5.79288 10.2036C5.63279 9.4802 5.5532 8.74126 5.55554 8.00031C5.5543 7.37423 5.61077 6.74937 5.72421 6.13365C5.73217 6.09589 5.75289 6.06203 5.78287 6.03775C5.81286 6.01347 5.85029 6.00025 5.88888 6.00031C13.1555 6.00031 14.9375 6.00431 15.4155 5.98698ZM2.43488 10.3336C2.40052 10.3337 2.367 10.3231 2.33894 10.3032C2.31088 10.2834 2.28966 10.2554 2.27821 10.223C1.80306 8.90287 1.76172 7.46555 2.16021 6.12031C2.17018 6.08575 2.19111 6.05535 2.21984 6.03371C2.24858 6.01207 2.28357 6.00035 2.31954 6.00031H4.19088C4.2149 6.00032 4.23864 6.00552 4.26046 6.01556C4.28229 6.0256 4.30169 6.04024 4.31732 6.05848C4.33296 6.07671 4.34448 6.09811 4.35107 6.12121C4.35767 6.14431 4.35919 6.16857 4.35554 6.19231C4.26529 6.79072 4.22072 7.39514 4.22221 8.00031C4.22211 8.71611 4.28907 9.43034 4.42221 10.1336C4.4266 10.1578 4.42565 10.1826 4.41943 10.2063C4.41321 10.23 4.40187 10.2521 4.38621 10.271C4.37061 10.2898 4.35104 10.3049 4.32892 10.3153C4.30679 10.3257 4.28265 10.331 4.25821 10.331L2.43488 10.3336ZM5.91621 13.7723C5.93769 13.8024 5.94857 13.8387 5.94714 13.8756C5.94571 13.9126 5.93206 13.948 5.90832 13.9763C5.88459 14.0046 5.85212 14.0242 5.81602 14.0321C5.77991 14.0399 5.74223 14.0355 5.70888 14.0196C4.7041 13.5452 3.83342 12.8278 3.17554 11.9323C3.15697 11.9076 3.14566 11.8781 3.14288 11.8473C3.1401 11.8165 3.14596 11.7855 3.1598 11.7578C3.17365 11.7301 3.19492 11.7068 3.22125 11.6905C3.24758 11.6743 3.27792 11.6656 3.30888 11.6656H4.70488C4.73886 11.6657 4.77201 11.6761 4.79989 11.6956C4.82777 11.715 4.84905 11.7425 4.86088 11.7743C5.12307 12.4835 5.47793 13.1549 5.91621 13.771V13.7723ZM4.75554 4.55164C4.74465 4.58528 4.72335 4.61459 4.6947 4.63532C4.66606 4.65605 4.63157 4.66714 4.59621 4.66698H3.08888C3.05889 4.66715 3.02942 4.6592 3.0036 4.64397C2.97777 4.62873 2.95655 4.60679 2.9422 4.58047C2.92784 4.55415 2.92088 4.52443 2.92205 4.49447C2.92323 4.46451 2.9325 4.43543 2.94888 4.41031C3.62456 3.35795 4.58132 2.51574 5.71088 1.97898C5.74423 1.96308 5.78191 1.95871 5.81802 1.96656C5.85412 1.97441 5.88659 1.99404 5.91032 2.02235C5.93406 2.05067 5.94771 2.08607 5.94914 2.12298C5.95057 2.1599 5.93969 2.19625 5.91821 2.22631C5.41724 2.93933 5.02537 3.72306 4.75554 4.55164ZM6.37088 4.66698C6.34352 4.66695 6.3166 4.66019 6.29247 4.6473C6.26835 4.6344 6.24777 4.61577 6.23255 4.59304C6.21733 4.57031 6.20794 4.54418 6.20521 4.51697C6.20247 4.48975 6.20648 4.46228 6.21688 4.43698C6.67618 3.27245 7.45237 2.25978 8.45754 1.51364C8.48569 1.49336 8.51951 1.48244 8.55421 1.48244C8.58891 1.48244 8.62273 1.49336 8.65088 1.51364C9.65219 2.26222 10.4268 3.27332 10.8889 4.43498C10.8994 4.46035 10.9035 4.48791 10.9008 4.51523C10.8981 4.54255 10.8888 4.56879 10.8735 4.59164C10.8588 4.61439 10.8387 4.63316 10.815 4.64629C10.7912 4.65943 10.7647 4.66653 10.7375 4.66698H6.37088ZM12.5155 4.66698C12.4806 4.66705 12.4464 4.65607 12.4181 4.6356C12.3897 4.61512 12.3685 4.58621 12.3575 4.55298C12.083 3.71541 11.6836 2.92406 11.1729 2.20564C11.1513 2.17575 11.1403 2.13955 11.1415 2.10271C11.1427 2.06587 11.1561 2.03047 11.1795 2.00204C11.203 1.97362 11.2352 1.95378 11.2712 1.94563C11.3071 1.93747 11.3448 1.94146 11.3782 1.95698C12.5275 2.48957 13.4995 3.34142 14.1782 4.41098C14.1942 4.43618 14.2031 4.46521 14.2041 4.49504C14.205 4.52487 14.198 4.55441 14.1836 4.58057C14.1692 4.60673 14.1481 4.62855 14.1224 4.64375C14.0967 4.65895 14.0674 4.66697 14.0375 4.66698H12.5155Z" fill="#AEB5C1"/>
<path d="M14.673 13.1718C14.6462 13.145 14.6294 13.1098 14.6252 13.0721C14.6211 13.0344 14.63 12.9964 14.6503 12.9645C15.1359 12.2012 15.3227 11.2856 15.175 10.3931C15.0272 9.50065 14.5552 8.69411 13.8495 8.1281C13.1439 7.5621 12.2541 7.27644 11.3508 7.3259C10.4476 7.37536 9.59432 7.75644 8.95465 8.39611C8.31498 9.03577 7.9339 9.88902 7.88444 10.7923C7.83499 11.6956 8.12064 12.5853 8.68665 13.291C9.25265 13.9967 10.0592 14.4686 10.9517 14.6164C11.8441 14.7642 12.7598 14.5774 13.523 14.0918C13.555 14.0714 13.593 14.0626 13.6307 14.0667C13.6684 14.0708 13.7035 14.0877 13.7303 14.1145L15.4223 15.8038C15.5481 15.9252 15.7165 15.9924 15.8913 15.9909C16.0661 15.9894 16.2333 15.9193 16.3569 15.7957C16.4805 15.6721 16.5506 15.5049 16.5521 15.3301C16.5536 15.1553 16.4864 14.9869 16.365 14.8611L14.673 13.1718ZM11.5557 8.66713C12.0172 8.66713 12.4683 8.80398 12.852 9.06037C13.2357 9.31676 13.5348 9.68118 13.7114 10.1075C13.888 10.5339 13.9342 11.0031 13.8442 11.4557C13.7541 11.9083 13.5319 12.3241 13.2056 12.6504C12.8793 12.9767 12.4635 13.1989 12.0109 13.289C11.5583 13.379 11.0891 13.3328 10.6627 13.1562C10.2364 12.9796 9.87197 12.6805 9.61558 12.2968C9.35919 11.9131 9.22234 11.462 9.22234 11.0005C9.22234 10.3816 9.46818 9.78813 9.90576 9.35055C10.3433 8.91296 10.9368 8.66713 11.5557 8.66713Z" fill="#AEB5C1"/>
</g>
<defs>
<clipPath id="clip0_8620_24124">
<rect width="16" height="16" fill="white" transform="translate(0.555542)"/>
</clipPath>
</defs>
</svg>
