<svg width="25" height="26" viewBox="0 0 25 26" fill="none" xmlns="http://www.w3.org/2000/svg">
<g clip-path="url(#clip0_7635_22004)">
<path d="M7.81185 11.4375H6.77018C6.49391 11.4375 6.22896 11.5472 6.03361 11.7426C5.83826 11.9379 5.72852 12.2029 5.72852 12.4792C5.72852 12.7554 5.83826 13.0204 6.03361 13.2157C6.22896 13.4111 6.49391 13.5208 6.77018 13.5208H7.81185C8.08812 13.5208 8.35307 13.4111 8.54842 13.2157C8.74377 13.0204 8.85352 12.7554 8.85352 12.4792C8.85352 12.2029 8.74377 11.9379 8.54842 11.7426C8.35307 11.5472 8.08812 11.4375 7.81185 11.4375Z" fill="#FF6726"/>
<path d="M13.0208 11.4375H11.9792C11.7029 11.4375 11.4379 11.5472 11.2426 11.7426C11.0472 11.9379 10.9375 12.2029 10.9375 12.4792C10.9375 12.7554 11.0472 13.0204 11.2426 13.2157C11.4379 13.4111 11.7029 13.5208 11.9792 13.5208H13.0208C13.2971 13.5208 13.5621 13.4111 13.7574 13.2157C13.9528 13.0204 14.0625 12.7554 14.0625 12.4792C14.0625 12.2029 13.9528 11.9379 13.7574 11.7426C13.5621 11.5472 13.2971 11.4375 13.0208 11.4375Z" fill="#FF6726"/>
<path d="M18.2298 11.4375H17.1882C16.9119 11.4375 16.6469 11.5472 16.4516 11.7426C16.2562 11.9379 16.1465 12.2029 16.1465 12.4792C16.1465 12.7554 16.2562 13.0204 16.4516 13.2157C16.6469 13.4111 16.9119 13.5208 17.1882 13.5208H18.2298C18.5061 13.5208 18.771 13.4111 18.9664 13.2157C19.1617 13.0204 19.2715 12.7554 19.2715 12.4792C19.2715 12.2029 19.1617 11.9379 18.9664 11.7426C18.771 11.5472 18.5061 11.4375 18.2298 11.4375Z" fill="#FF6726"/>
<path d="M7.81185 15.6016H6.77018C6.49391 15.6016 6.22896 15.7113 6.03361 15.9067C5.83826 16.102 5.72852 16.367 5.72852 16.6432C5.72852 16.9195 5.83826 17.1844 6.03361 17.3798C6.22896 17.5751 6.49391 17.6849 6.77018 17.6849H7.81185C8.08812 17.6849 8.35307 17.5751 8.54842 17.3798C8.74377 17.1844 8.85352 16.9195 8.85352 16.6432C8.85352 16.367 8.74377 16.102 8.54842 15.9067C8.35307 15.7113 8.08812 15.6016 7.81185 15.6016Z" fill="#FF6726"/>
<path d="M13.0208 15.6016H11.9792C11.7029 15.6016 11.4379 15.7113 11.2426 15.9067C11.0472 16.102 10.9375 16.367 10.9375 16.6432C10.9375 16.9195 11.0472 17.1844 11.2426 17.3798C11.4379 17.5751 11.7029 17.6849 11.9792 17.6849H13.0208C13.2971 17.6849 13.5621 17.5751 13.7574 17.3798C13.9528 17.1844 14.0625 16.9195 14.0625 16.6432C14.0625 16.367 13.9528 16.102 13.7574 15.9067C13.5621 15.7113 13.2971 15.6016 13.0208 15.6016Z" fill="#FF6726"/>
<path d="M18.2298 15.6016H17.1882C16.9119 15.6016 16.6469 15.7113 16.4516 15.9067C16.2562 16.102 16.1465 16.367 16.1465 16.6432C16.1465 16.9195 16.2562 17.1844 16.4516 17.3798C16.6469 17.5751 16.9119 17.6849 17.1882 17.6849H18.2298C18.5061 17.6849 18.771 17.5751 18.9664 17.3798C19.1617 17.1844 19.2715 16.9195 19.2715 16.6432C19.2715 16.367 19.1617 16.102 18.9664 15.9067C18.771 15.7113 18.5061 15.6016 18.2298 15.6016Z" fill="#FF6726"/>
<path d="M7.81185 19.7734H6.77018C6.49391 19.7734 6.22896 19.8832 6.03361 20.0785C5.83826 20.2739 5.72852 20.5388 5.72852 20.8151C5.72852 21.0914 5.83826 21.3563 6.03361 21.5517C6.22896 21.747 6.49391 21.8568 6.77018 21.8568H7.81185C8.08812 21.8568 8.35307 21.747 8.54842 21.5517C8.74377 21.3563 8.85352 21.0914 8.85352 20.8151C8.85352 20.5388 8.74377 20.2739 8.54842 20.0785C8.35307 19.8832 8.08812 19.7734 7.81185 19.7734Z" fill="#FF6726"/>
<path d="M13.0208 19.7734H11.9792C11.7029 19.7734 11.4379 19.8832 11.2426 20.0785C11.0472 20.2739 10.9375 20.5388 10.9375 20.8151C10.9375 21.0914 11.0472 21.3563 11.2426 21.5517C11.4379 21.747 11.7029 21.8568 11.9792 21.8568H13.0208C13.2971 21.8568 13.5621 21.747 13.7574 21.5517C13.9528 21.3563 14.0625 21.0914 14.0625 20.8151C14.0625 20.5388 13.9528 20.2739 13.7574 20.0785C13.5621 19.8832 13.2971 19.7734 13.0208 19.7734Z" fill="#FF6726"/>
<path d="M18.2298 19.7734H17.1882C16.9119 19.7734 16.6469 19.8832 16.4516 20.0785C16.2562 20.2739 16.1465 20.5388 16.1465 20.8151C16.1465 21.0914 16.2562 21.3563 16.4516 21.5517C16.6469 21.747 16.9119 21.8568 17.1882 21.8568H18.2298C18.5061 21.8568 18.771 21.747 18.9664 21.5517C19.1617 21.3563 19.2715 21.0914 19.2715 20.8151C19.2715 20.5388 19.1617 20.2739 18.9664 20.0785C18.771 19.8832 18.5061 19.7734 18.2298 19.7734Z" fill="#FF6726"/>
<path d="M22.3965 3.625H19.5319C19.4628 3.625 19.3966 3.59756 19.3478 3.54873C19.2989 3.49989 19.2715 3.43365 19.2715 3.36458V1.54167C19.2715 1.2654 19.1617 1.00045 18.9664 0.805097C18.771 0.609747 18.5061 0.5 18.2298 0.5C17.9536 0.5 17.6886 0.609747 17.4932 0.805097C17.2979 1.00045 17.1882 1.2654 17.1882 1.54167V6.48958C17.1882 6.69678 17.1058 6.8955 16.9593 7.04201C16.8128 7.18852 16.6141 7.27083 16.4069 7.27083C16.1997 7.27083 16.001 7.18852 15.8545 7.04201C15.708 6.8955 15.6257 6.69678 15.6257 6.48958V4.14583C15.6257 4.0077 15.5708 3.87522 15.4731 3.77755C15.3754 3.67987 15.243 3.625 15.1048 3.625H8.5944C8.52551 3.625 8.45943 3.59771 8.41063 3.54909C8.36182 3.50048 8.33426 3.43451 8.33398 3.36562V1.54167C8.33398 1.2654 8.22424 1.00045 8.02889 0.805097C7.83354 0.609747 7.56859 0.5 7.29232 0.5C7.01605 0.5 6.7511 0.609747 6.55575 0.805097C6.3604 1.00045 6.25065 1.2654 6.25065 1.54167V6.48958C6.25065 6.69678 6.16834 6.8955 6.02183 7.04201C5.87532 7.18852 5.6766 7.27083 5.4694 7.27083C5.2622 7.27083 5.06349 7.18852 4.91697 7.04201C4.77046 6.8955 4.68815 6.69678 4.68815 6.48958V4.14583C4.68815 4.0077 4.63328 3.87522 4.5356 3.77755C4.43793 3.67987 4.30545 3.625 4.16732 3.625H2.60482C2.05228 3.625 1.52238 3.84449 1.13168 4.23519C0.740978 4.62589 0.521484 5.1558 0.521484 5.70833V23.4167C0.521484 23.9692 0.740978 24.4991 1.13168 24.8898C1.52238 25.2805 2.05228 25.5 2.60482 25.5H22.3965C22.949 25.5 23.4789 25.2805 23.8696 24.8898C24.2603 24.4991 24.4798 23.9692 24.4798 23.4167V5.70833C24.4798 5.1558 24.2603 4.62589 23.8696 4.23519C23.4789 3.84449 22.949 3.625 22.3965 3.625ZM22.3965 22.8958C22.3965 23.034 22.3416 23.1664 22.2439 23.2641C22.1463 23.3618 22.0138 23.4167 21.8757 23.4167H3.12565C2.98752 23.4167 2.85504 23.3618 2.75737 23.2641C2.65969 23.1664 2.60482 23.034 2.60482 22.8958V10.3958C2.60482 10.2577 2.65969 10.1252 2.75737 10.0275C2.85504 9.92987 2.98752 9.875 3.12565 9.875H21.8757C22.0138 9.875 22.1463 9.92987 22.2439 10.0275C22.3416 10.1252 22.3965 10.2577 22.3965 10.3958V22.8958Z" fill="#FF6726"/>
</g>
<defs>
<clipPath id="clip0_7635_22004">
<rect width="25" height="25" fill="white" transform="translate(0 0.5)"/>
</clipPath>
</defs>
</svg>
