<svg width="92" height="32" viewBox="0 0 92 32" fill="none" xmlns="http://www.w3.org/2000/svg">
<path d="M50.1292 7.27706C50.1292 9.52209 50.1227 11.7671 50.1292 14.0121C50.1292 14.9863 50.1481 15.9604 50.1236 16.9346C50.1255 17.1014 50.1422 17.2676 50.1735 17.4313C50.2084 17.6523 50.4561 17.8437 50.7388 17.8667C51.0214 17.8896 51.304 17.8973 51.5866 17.9059C51.6544 17.9059 51.7561 17.8523 51.7411 17.9806C51.7298 18.0887 51.8409 18.2389 51.6365 18.2992C51.1805 18.4342 50.7312 18.5863 50.2772 18.7308C49.8231 18.8753 49.369 19.0083 48.9141 19.1471C48.8717 19.1604 48.8302 19.1767 48.7869 19.1882C48.4007 19.2839 48.2509 19.1586 48.2509 18.7604C48.2509 18.393 48.232 18.0255 48.2188 17.6571C48.2188 17.6025 48.2471 17.526 48.1595 17.5068C48.1298 17.5006 48.0989 17.5032 48.0706 17.5144C48.0424 17.5256 48.0179 17.5449 48.0003 17.57C47.2164 18.4585 46.1488 19.037 44.9858 19.2035C44.3264 19.2906 43.6746 19.2992 43.0255 19.1164C42.3203 18.9149 41.69 18.5049 41.2149 17.9384C40.4707 17.0772 40.0769 16.0599 39.9074 14.9375C39.8241 14.435 39.7979 13.9244 39.8292 13.4159C39.8999 12.4416 40.1989 11.4986 40.7015 10.6656C41.1655 9.88815 41.7825 9.21634 42.514 8.6924C43.2412 8.17183 44.0287 7.79956 44.9199 7.68092C45.7866 7.56662 46.6667 7.61529 47.5161 7.82443C47.6889 7.86911 47.8567 7.9313 48.0172 8.01009C48.1454 8.0704 48.1887 8.05887 48.1887 7.90582C48.1887 6.21866 48.1887 4.53063 48.1802 2.84258C48.1802 2.23778 47.7516 1.81673 47.0969 1.72773C47.0111 1.71625 46.9085 1.74974 46.916 1.59854C46.9235 1.48083 46.8972 1.37653 47.0536 1.30667C47.7356 1.00523 48.4082 0.684659 49.0846 0.36982C49.3078 0.26647 49.5282 0.156421 49.7553 0.058812C50.0304 -0.0598496 50.1321 0.0100076 50.1321 0.305705V7.27706H50.1292ZM48.1859 13.4016C48.1859 12.3929 48.2047 11.3843 48.1802 10.3757C48.1623 9.61585 47.762 8.92497 47.0055 8.63975C46.6572 8.51163 46.294 8.42994 45.925 8.39668C45.4595 8.34499 44.9885 8.38237 44.5365 8.50674C43.5944 8.77373 42.9464 9.39385 42.4951 10.2484C42.0806 11.034 41.913 11.8858 41.88 12.7671C41.8412 13.6269 41.9736 14.4858 42.269 15.2925C42.4893 15.9194 42.8559 16.4829 43.3373 16.9346C44.0645 17.5987 44.9312 17.8992 45.9212 17.8734C46.7408 17.8523 47.3955 17.5001 47.9711 16.9518C48.045 16.8825 48.1031 16.7976 48.1412 16.703C48.1792 16.6084 48.1964 16.5065 48.1915 16.4044C48.1774 15.4035 48.1859 14.4025 48.1859 13.4016Z" fill="#858FA1"/>
<path d="M61.6924 13.9632C61.6924 12.8331 61.6924 11.7038 61.6924 10.5737C61.6924 10.1785 61.4737 9.89043 61.1724 9.6694C60.9519 9.50149 60.7058 9.37211 60.4431 9.28661C60.329 9.25214 60.2464 9.20529 60.2452 9.05404C60.2446 8.90286 60.2773 8.82057 60.4235 8.76695C61.3531 8.41098 62.2802 8.04642 63.2092 7.68465C63.2431 7.66968 63.2781 7.65688 63.3138 7.64637C63.567 7.58708 63.6139 7.6215 63.6139 7.89331C63.6139 8.30477 63.6056 8.71624 63.6068 9.1268C63.6068 9.22249 63.5539 9.35647 63.6377 9.40429C63.7382 9.46267 63.8184 9.33443 63.8992 9.27701C64.487 8.86458 65.0695 8.44449 65.7037 8.10861C66.4846 7.70107 67.3631 7.52435 68.2385 7.59855C68.8977 7.6445 69.5075 7.8502 69.9633 8.38326C70.3211 8.8091 70.4965 9.31626 70.604 9.85119C70.7972 10.7775 70.7496 11.7182 70.7538 12.6551C70.7538 13.79 70.7538 14.925 70.7538 16.0608C70.7538 16.5393 70.7449 17.0178 70.7425 17.4963C70.7425 17.9259 70.9018 18.1202 71.3178 18.2321C71.6174 18.3113 71.9259 18.3487 72.2355 18.3432C72.4043 18.3432 72.4899 18.3652 72.5012 18.5709C72.5172 18.8503 72.5202 18.8724 72.2486 18.8724C70.629 18.8724 69.0094 18.8724 67.3898 18.8724C67.3161 18.8724 67.1949 18.924 67.177 18.8178C67.1438 18.6596 67.1473 18.4957 67.1883 18.3394C67.1937 18.3221 67.2692 18.3211 67.3126 18.3231C67.6204 18.3305 67.9283 18.311 68.2326 18.2647C68.6154 18.2121 68.7729 18.0188 68.7895 17.6226C68.799 17.4015 68.7943 17.1795 68.7943 16.9584C68.7943 15.1164 68.7943 13.2742 68.7943 11.433C68.7943 10.8703 68.7229 10.3172 68.4804 9.79951C68.2207 9.24356 67.7524 9.01963 67.1871 8.9153C66.1227 8.72391 65.2092 9.1172 64.3224 9.63299C64.175 9.73424 64.0205 9.82475 63.86 9.90384C63.6413 9.99283 63.5943 10.1373 63.5949 10.3632C63.6086 12.5383 63.6086 14.7125 63.6151 16.8867C63.6151 17.1413 63.6282 17.3948 63.6455 17.6522C63.6734 18.0867 63.8951 18.303 64.3307 18.3221C64.6012 18.3327 64.8734 18.3345 65.1438 18.3221C65.2841 18.3221 65.3227 18.3613 65.3221 18.502C65.3221 18.8752 65.3286 18.8752 64.9536 18.8752C63.4012 18.8752 61.8499 18.8752 60.2981 18.88C60.1305 18.88 60.0806 18.8532 60.0948 18.6705C60.1222 18.3403 60.1067 18.3451 60.4859 18.3489C60.704 18.3601 60.9228 18.3385 61.1349 18.2848C61.504 18.1747 61.6217 18.0121 61.6544 17.6255C61.7055 17.035 61.6716 16.4436 61.6847 15.8532C61.7002 15.2235 61.6847 14.5929 61.6847 13.9623L61.6924 13.9632Z" fill="#858FA1"/>
<path d="M34.7744 17.426C34.3621 17.8268 33.9129 18.1866 33.433 18.5006C32.6794 18.9868 31.8796 19.3475 30.9593 19.2853C30.1114 19.2279 29.3154 19.0068 28.7427 18.3044C28.2716 17.7216 28.2048 17.048 28.3658 16.3341C28.5542 15.4996 29.1364 15.001 29.8279 14.6115C30.7021 14.1168 31.6507 13.7981 32.5908 13.4632C33.2418 13.2326 33.8945 13.0049 34.5512 12.7934C34.7037 12.7436 34.7641 12.6852 34.7603 12.5149C34.748 11.9407 34.7509 11.3665 34.7603 10.7924C34.7678 10.1139 34.4588 9.61437 33.8918 9.29667C33.0977 8.85073 32.263 8.74357 31.4067 9.11482C30.7699 9.39044 30.4261 9.87272 30.4185 10.5895C30.411 11.3771 29.5132 11.7656 28.9499 11.6632C28.6673 11.6125 28.5872 11.3311 28.6739 10.9359C28.8124 10.3034 29.2335 9.87562 29.6809 9.47659C30.193 9.02281 30.7634 8.64195 31.3765 8.34448C32.3365 7.85374 33.4206 7.67086 34.4852 7.82011C35.3039 7.93495 35.8756 8.40763 36.3043 9.09858C36.5011 9.4199 36.6109 9.78826 36.6226 10.1665C36.7168 12.0804 36.6311 13.9943 36.6679 15.914C36.6688 16.3829 36.7088 16.8509 36.7875 17.313C36.9458 18.1475 37.7682 18.1647 38.2363 17.7915C38.3042 17.7379 38.3748 17.6174 38.4492 17.6614C38.5439 17.7351 38.6217 17.8288 38.6772 17.936C38.7083 17.9819 38.6518 18.0174 38.6207 18.047C38.0998 18.5475 37.5496 19.0116 36.8412 19.2088C36.3363 19.3485 35.8445 19.3341 35.4018 18.9762C35.0702 18.7082 34.9308 18.3503 34.8479 17.9523C34.8149 17.7944 34.8027 17.6298 34.7744 17.426ZM34.7556 15.1293C34.7556 14.6106 34.7556 14.091 34.7556 13.5723C34.7556 13.4374 34.7358 13.401 34.5898 13.4556C34.213 13.5953 33.8277 13.7053 33.449 13.8384C32.5503 14.1503 31.6497 14.4479 30.8829 15.0604C30.1161 15.6728 29.8627 17.0259 30.8076 17.7446C31.4952 18.2671 32.231 18.3523 33.0053 17.9943C33.5705 17.7331 34.0481 17.3245 34.5493 16.9609C34.6205 16.9158 34.6778 16.8514 34.7147 16.775C34.7517 16.6986 34.7669 16.6131 34.7584 16.5284C34.7471 16.0594 34.7556 15.5934 34.7556 15.1235V15.1293Z" fill="#858FA1"/>
<path d="M78.8182 11.9955C77.7341 11.9955 76.6518 11.9955 75.5647 11.9955C75.3668 11.9955 75.3074 12.051 75.308 12.2548C75.3127 13.2969 75.4025 14.3237 75.7597 15.3113C76.0913 16.2281 76.6268 16.9773 77.494 17.4357C78.5186 17.9774 79.5552 17.9381 80.5864 17.4357C81.1635 17.1523 81.6805 16.757 82.1085 16.2721C82.1608 16.2147 82.2125 16.0271 82.342 16.1764C82.4365 16.2874 82.6719 16.3572 82.499 16.5859C81.6508 17.7017 80.6494 18.6099 79.3044 19.0434C78.2678 19.3783 77.2319 19.2922 76.2239 18.875C74.9294 18.3381 74.2013 17.2941 73.7746 15.9945C73.4572 15.0223 73.3978 14.0146 73.4631 13.006C73.5202 12.0464 73.777 11.1101 74.2162 10.2586C74.7986 9.14184 75.6248 8.28348 76.8087 7.84231C77.5332 7.57152 78.291 7.53131 79.0601 7.62127C79.7085 7.68267 80.332 7.90769 80.8728 8.27581C81.7138 8.86146 82.1917 9.68348 82.4092 10.6758C82.4924 11.0355 82.4954 11.4096 82.4175 11.7706C82.3789 11.9419 82.2969 12.0012 82.1221 11.9993C81.0179 11.9917 79.9183 11.9955 78.8182 11.9955ZM77.7026 11.2749V11.2624C78.4265 11.2624 79.1486 11.2624 79.8696 11.2624C79.9742 11.2646 80.0764 11.23 80.159 11.1644C80.241 11.0988 80.2987 11.0064 80.3219 10.9027C80.5507 9.68638 80.039 8.64229 78.8087 8.3476C78.4206 8.24375 78.0128 8.23976 77.6224 8.336C77.2325 8.43224 76.8717 8.62563 76.5733 8.89877C75.897 9.48925 75.6135 10.2912 75.3948 11.1294C75.3573 11.2739 75.4381 11.2758 75.5315 11.2758L77.7026 11.2749Z" fill="#858FA1"/>
<path d="M7.03561 19.4302C5.87127 19.4474 4.80678 19.2847 3.79317 18.8704C3.16048 18.6162 2.5745 18.2554 2.05985 17.8034C1.25134 17.0918 0.679984 16.1429 0.424499 15.0876C0.318265 14.6285 0.257671 14.1598 0.243631 13.6885C0.18295 12.6012 0.425555 11.5185 0.943552 10.565C1.41513 9.68818 2.11561 8.96034 2.96795 8.46164C3.79976 7.97482 4.71384 7.65024 5.66308 7.50473C6.24846 7.39503 6.84394 7.35071 7.43882 7.37263C8.39797 7.42969 9.35082 7.56765 10.2874 7.78512C10.5578 7.84731 10.6106 7.95351 10.6238 8.21476C10.6586 8.94012 10.7311 9.66548 10.8056 10.389C10.8188 10.5191 10.8725 10.6387 10.7 10.6636C10.5418 10.6866 10.3515 10.765 10.2658 10.5277C10.197 10.3363 10.1377 10.1449 10.0576 9.95353C9.61958 8.94205 8.85936 8.34777 7.79203 8.1382C6.81446 7.93799 5.7988 8.08815 4.91794 8.56313C4.05599 9.01957 3.4531 9.72483 3.0518 10.6301C2.59491 11.6589 2.50731 12.7354 2.57607 13.833C2.64296 14.9086 2.92557 15.9383 3.55107 16.8245C4.40548 18.0416 5.55004 18.723 7.0535 18.7383C8.00683 18.7508 8.84337 18.4733 9.55177 17.8225C10.0397 17.3747 10.3732 16.8178 10.6435 16.2187C10.7264 16.0359 10.863 16.0627 10.9968 16.079C11.1306 16.0952 11.1683 16.2053 11.1588 16.3335C11.1221 16.8187 10.9855 17.2809 10.847 17.7421C10.7434 18.0814 10.6074 18.4096 10.441 18.7221C10.4208 18.7638 10.3916 18.8003 10.3556 18.829C10.3195 18.8577 10.2775 18.8777 10.2328 18.8876C9.53893 19.1074 8.82798 19.2675 8.10763 19.3661C7.75346 19.4254 7.39418 19.4469 7.03561 19.4302Z" fill="#858FA1"/>
<path d="M88.4046 7.53962C89.308 7.54433 90.2002 7.75046 91.0168 8.14345C91.0679 8.16265 91.1125 8.19809 91.1422 8.24458C91.1725 8.29107 91.1874 8.34619 91.1844 8.40186C91.2165 9.04299 91.267 9.68225 91.3098 10.3215C91.3151 10.398 91.3151 10.4746 91.3145 10.5502C91.3145 10.5808 91.3145 10.621 91.3003 10.6392C91.2153 10.7291 90.7582 10.5827 90.7255 10.4574C90.5805 9.89659 90.3796 9.36546 89.988 8.92622C89.6421 8.54163 89.1684 8.30091 88.6578 8.25061C87.9446 8.16355 87.2647 8.27839 86.7012 8.7722C86.0778 9.31861 86.0849 10.0612 86.4261 10.7138C86.7898 11.4105 87.4561 11.7579 88.1217 12.0823C88.9443 12.4842 89.8174 12.7875 90.571 13.3167C91.1808 13.7416 91.6551 14.2651 91.8186 15.0306C92.0379 16.0565 91.8185 16.9713 91.1285 17.7465C90.2215 18.7675 89.0703 19.2039 87.7194 19.157C86.7874 19.1411 85.8692 18.9225 85.027 18.5158C84.9337 18.4756 84.8534 18.4085 84.797 18.3226C84.7405 18.2367 84.7096 18.1359 84.709 18.0326C84.6412 17.267 84.561 16.5014 84.4903 15.7282C84.4826 15.6488 84.4415 15.5186 84.5206 15.4976C84.6543 15.4632 84.7934 15.4019 84.9378 15.4383C85.0044 15.4574 84.9747 15.5292 84.9866 15.577C85.1857 16.399 85.5084 17.157 86.117 17.7541C86.8885 18.5091 87.9185 18.711 88.9057 18.2938C89.5125 18.0354 89.8477 17.5541 89.9155 16.8641C90.0171 15.8507 89.5036 15.2306 88.7178 14.7406C88.1312 14.3761 87.5012 14.1072 86.8849 13.8057C86.1717 13.4564 85.4935 13.0564 85.0638 12.3368C84.8629 11.9821 84.728 11.5929 84.6662 11.1885C84.5765 10.6877 84.6187 10.1715 84.7886 9.69276C85.0341 8.98364 85.5078 8.47745 86.1265 8.10613C86.8296 7.69177 87.5969 7.52815 88.4046 7.53962Z" fill="#858FA1"/>
<path d="M21.1007 12.9585C21.1007 11.8102 21.0951 10.6666 21.1007 9.5202C21.1007 9.32881 21.047 9.27713 20.8624 9.2848C20.5091 9.30013 20.154 9.29247 19.8007 9.2848C19.7197 9.2848 19.5822 9.33745 19.5709 9.22545C19.5568 9.08387 19.4767 8.91638 19.651 8.79104C19.9534 8.56994 20.2473 8.3384 20.5384 8.1001C21.3768 7.41301 22.1011 6.6312 22.5939 5.64648C22.6334 5.56705 22.6372 5.45509 22.7643 5.4283C23.0018 5.38619 23.0564 5.4283 23.0554 5.67997C23.0554 6.34411 23.0469 7.00819 23.0441 7.67233C23.0441 8.00536 23.0441 8.0073 23.3804 7.9977C24.4214 7.96612 25.4632 7.98623 26.5042 7.98526C26.6549 7.98526 26.7142 8.01973 26.7086 8.17665C26.6982 8.47425 26.6935 8.77281 26.7086 9.0695C26.7161 9.23982 26.6709 9.2886 26.4985 9.28673C25.4293 9.2781 24.3592 9.28673 23.29 9.2781C23.1016 9.2781 23.0347 9.3116 23.0356 9.52401C23.0451 11.6465 23.0356 13.7691 23.0469 15.8916C23.0409 16.3334 23.1327 16.771 23.3155 17.172C23.663 17.9059 24.3234 18.083 25.0054 17.9834C25.4636 17.9048 25.8874 17.6866 26.2206 17.3576C26.3299 17.2619 26.3836 17.2763 26.4712 17.3729C26.5955 17.5117 26.7161 17.6265 26.5127 17.8064C25.9352 18.3203 25.3643 18.8352 24.606 19.0706C23.9408 19.2843 23.2309 19.3101 22.5524 19.1452C21.7696 18.9538 21.3852 18.3892 21.2336 17.6255C21.1316 17.0616 21.0858 16.4887 21.0969 15.9155C21.1001 14.9299 21.1013 13.9442 21.1007 12.9585Z" fill="#858FA1"/>
<path d="M56.8608 12.7919C56.8608 14.3421 56.8778 15.8933 56.8533 17.4436C56.842 18.1776 57.1547 18.3278 57.7698 18.3699C57.9351 18.3843 58.1011 18.3843 58.2663 18.3699C58.4773 18.3469 58.5489 18.4101 58.5433 18.6388C58.5433 18.8493 58.4782 18.9125 58.288 18.88C58.273 18.8785 58.2578 18.8785 58.2428 18.88C56.6771 18.88 55.1105 18.8799 53.5439 18.8867C53.3217 18.8867 53.3301 18.7824 53.3292 18.6273C53.3283 18.4723 53.3217 18.3556 53.5449 18.369C53.8211 18.3989 54.1002 18.3866 54.3729 18.3326C54.497 18.3085 54.6113 18.2474 54.701 18.1571C54.7908 18.0667 54.852 17.9512 54.8769 17.8254C54.9442 17.5365 54.974 17.2399 54.9655 16.9431C54.9655 14.8273 54.956 12.7115 54.9711 10.5957C54.9711 9.98225 54.7026 9.56601 54.2175 9.25592C54.1171 9.18969 54.0084 9.13722 53.8944 9.09997C53.7389 9.05402 53.6966 8.96599 53.6919 8.80521C53.6853 8.63012 53.8059 8.60138 53.9085 8.56503C54.7272 8.27795 55.5486 7.99086 56.3681 7.70377C56.4962 7.65782 56.6281 7.68656 56.7572 7.66169C56.7722 7.65891 56.7877 7.65994 56.8023 7.66458C56.8168 7.66923 56.8301 7.67744 56.8408 7.68849C56.8515 7.69948 56.8595 7.71301 56.864 7.72786C56.8685 7.74265 56.8693 7.75841 56.8664 7.77362C56.8608 7.85018 56.8664 7.92674 56.8664 8.00329L56.8608 12.7919Z" fill="#858FA1"/>
<path d="M16.3971 12.7185C16.3971 14.3004 16.4027 15.8832 16.3971 17.465C16.3971 18.1493 16.6985 18.3263 17.26 18.3675C17.4775 18.3818 17.697 18.3751 17.9194 18.3675C18.0315 18.3675 18.0927 18.3904 18.0785 18.5177C18.0706 18.5787 18.0706 18.6404 18.0785 18.7014C18.0983 18.8459 18.0371 18.8794 17.9005 18.8784C17.2081 18.8717 16.5148 18.8784 15.8215 18.8784C14.903 18.8784 13.9836 18.8699 13.0642 18.8842C12.8108 18.889 12.8861 18.732 12.8758 18.6029C12.8654 18.4737 12.8616 18.3454 13.0642 18.3693C13.2295 18.38 13.3952 18.3817 13.5606 18.3742C14.2587 18.3818 14.4819 18.0708 14.497 17.4172C14.5177 16.4316 14.5027 15.4459 14.5027 14.4602C14.5027 13.1453 14.4885 11.8305 14.5083 10.5166C14.5168 9.95488 14.2596 9.58266 13.8263 9.29938C13.698 9.20712 13.5549 9.13811 13.4033 9.09555C13.2516 9.06113 13.2384 8.96447 13.2507 8.86111C13.2629 8.75774 13.2413 8.64677 13.4137 8.59123C14.2182 8.32811 15.0151 8.03528 15.813 7.75296C15.862 7.73576 15.9072 7.71662 15.9599 7.70225C16.317 7.59792 16.3971 7.65727 16.3971 8.02381V12.7185Z" fill="#858FA1"/>
<path d="M60.6341 31.9967C59.7325 31.9785 58.9952 31.7163 58.4139 31.102C58.0169 30.6784 57.7699 30.1326 57.7121 29.5507C57.6066 28.6703 57.9005 27.9392 58.4742 27.3229C58.8749 26.8997 59.4016 26.6222 59.9732 26.5335C60.7209 26.4062 61.4502 26.4626 62.1188 26.8569C62.8374 27.2818 63.2938 27.9096 63.4234 28.7536C63.5827 29.7938 63.235 30.6484 62.4653 31.3249C62.0772 31.6592 61.6029 31.874 61.0989 31.944C60.9218 31.9718 60.7453 32.0168 60.6341 31.9967ZM62.5675 29.2052C62.5889 28.8847 62.4617 28.4818 62.265 28.0885C61.569 26.7057 59.7076 26.7335 58.9358 27.8885C58.2547 28.9096 58.559 30.4234 59.5896 31.1211C59.9405 31.3448 60.3518 31.4502 60.7649 31.422C61.178 31.3938 61.572 31.2336 61.89 30.9641C62.3827 30.5287 62.5652 29.9708 62.5675 29.2052Z" fill="#858FA1"/>
<path d="M54.8109 31.8501H53.411C53.7615 31.5535 53.7153 31.1745 53.72 30.8081C53.7257 30.3736 53.7275 29.9391 53.7389 29.5046C53.7389 29.3515 53.7012 29.2874 53.5363 29.2884C52.708 29.2954 51.8796 29.2954 51.0513 29.2884C50.8902 29.2884 50.8431 29.3458 50.845 29.5028C50.8535 30.0453 50.845 30.587 50.8553 31.1296C50.861 31.3918 50.8968 31.6568 51.1568 31.8472H49.7842C50.1564 31.4913 50.0612 31.0291 50.0668 30.5937C50.0769 29.5831 50.0803 28.5723 50.0773 27.5611C50.0725 27.376 50.0526 27.1916 50.0179 27.0099C50.0068 26.9263 49.9735 26.8474 49.9216 26.7816C49.8696 26.7159 49.8009 26.6658 49.723 26.6367H51.1247C50.8733 26.9065 50.8525 27.2262 50.8544 27.5535C50.8563 27.8807 50.8629 28.2233 50.8544 28.5621C50.8544 28.7075 50.9081 28.7534 51.0353 28.7534C51.8925 28.7534 52.7497 28.7429 53.607 28.7477C53.7323 28.7477 53.7407 28.6664 53.737 28.5985C53.7069 28.1133 53.7634 27.6262 53.705 27.1419C53.6807 26.9455 53.5816 26.7665 53.4289 26.6434H54.777C54.4944 26.941 54.5066 27.3018 54.5076 27.6664C54.5076 28.8147 54.5076 29.963 54.5076 31.1056C54.5113 31.3831 54.566 31.6492 54.8109 31.8501Z" fill="#858FA1"/>
<path d="M36.5672 31.853C36.2563 31.853 35.985 31.8606 35.7146 31.853C35.3737 31.8396 35.1447 31.63 34.9394 31.3792C34.3964 30.7278 33.8969 30.0402 33.4444 29.3208C33.3502 29.162 33.3765 29.1343 33.5386 29.0979C33.8113 29.0516 34.0694 28.9408 34.2922 28.7744C34.6822 28.4548 34.7933 28.0778 34.6304 27.6625C34.442 27.1935 33.954 27.0491 33.5461 27.0969C33.1382 27.1448 33.1307 27.162 33.1307 27.6069C33.1307 28.7298 33.1307 29.852 33.1307 30.9735C33.1307 31.296 33.1599 31.6041 33.4378 31.8491H32.0408C32.4044 31.5687 32.3394 31.1793 32.3432 30.8166C32.3526 29.6749 32.3432 28.5333 32.3432 27.3916C32.3432 27.1103 32.2876 26.8405 32.038 26.6261C32.7615 26.6261 33.4585 26.6012 34.1528 26.6347C34.6521 26.6576 35.0948 26.8395 35.3548 27.3314C35.6629 27.918 35.4198 28.6022 34.945 28.9639C34.7797 29.0934 34.5922 29.1907 34.392 29.251C34.3073 29.2759 34.2225 29.3056 34.3308 29.4319C34.784 29.9553 35.1645 30.5391 35.6431 31.0405C35.8751 31.2855 36.13 31.5069 36.4043 31.7018C36.4683 31.7401 36.5238 31.7916 36.5672 31.853Z" fill="#858FA1"/>
<path d="M25.0771 31.8568H23.7262C23.8722 31.7028 24.0342 31.5966 24.1247 31.4224C24.4544 30.7879 24.6635 30.1037 24.9357 29.4453C25.2485 28.6893 25.5358 27.9219 25.8335 27.1592C25.8863 27.0233 25.9277 26.8855 25.8156 26.7554C25.7403 26.6673 25.793 26.6281 25.8749 26.6271C26.1839 26.6224 26.492 26.6271 26.801 26.6271C26.881 26.6271 26.9102 26.6749 26.9385 26.7477C27.2682 27.5943 27.5998 28.4412 27.9333 29.2884C28.181 29.9095 28.4354 30.5277 28.6869 31.1468C28.7989 31.4348 28.9965 31.6803 29.2521 31.8492H27.7166C27.8108 31.787 27.9173 31.742 27.9521 31.6329C27.987 31.5238 27.9276 31.4099 27.888 31.3047C27.7477 30.9219 27.5998 30.5467 27.4632 30.1649C27.3963 29.9735 27.3125 29.8721 27.0807 29.8827C26.5617 29.9066 26.0445 29.8922 25.5227 29.8827C25.4115 29.8827 25.3521 29.9056 25.3126 30.0233C25.1694 30.4425 25.0064 30.8549 24.8632 31.274C24.7803 31.5526 24.8152 31.6348 25.0771 31.8568ZM25.566 29.3343C26.0652 29.319 26.5306 29.2989 26.995 29.3296C27.1184 29.3372 27.1335 29.2865 27.0845 29.1764C27.0233 29.0396 26.9856 28.8894 26.9319 28.7534C26.7492 28.275 26.5645 27.8051 26.3582 27.2769C26.0869 27.9812 25.8354 28.6358 25.566 29.3343Z" fill="#858FA1"/>
<path d="M15.2138 31.8538H13.5944C14.0042 31.6806 13.845 31.4299 13.7669 31.2079C13.6293 30.8184 13.4664 30.4356 13.3298 30.0528C13.3201 30.0019 13.2918 29.9566 13.2506 29.9261C13.2092 29.8955 13.1581 29.882 13.1074 29.8883C12.551 29.8953 11.994 29.8953 11.4363 29.8883C11.3885 29.8811 11.3398 29.8924 11.2997 29.9198C11.2596 29.9472 11.2311 29.9889 11.2196 30.0366C11.0783 30.4487 10.9352 30.8602 10.7901 31.2711C10.71 31.4988 10.7081 31.7017 10.9964 31.8519H9.60876C10.1514 31.4921 10.2559 30.9026 10.4679 30.383C10.8852 29.361 11.2808 28.3304 11.6821 27.3026C11.7566 27.1112 11.88 26.9198 11.6916 26.715C11.6388 26.6586 11.7151 26.6289 11.7669 26.6289C12.0834 26.6289 12.4 26.6289 12.7156 26.6289C12.8032 26.6289 12.822 26.7035 12.8465 26.7648C13.1291 27.4701 13.4042 28.1763 13.6868 28.8806C13.9951 29.6461 14.306 30.4117 14.6194 31.1773C14.729 31.4693 14.9406 31.7101 15.2138 31.8538ZM12.2596 27.2777C11.9958 27.9619 11.7519 28.5897 11.5126 29.2193C11.4636 29.3486 11.5682 29.3342 11.636 29.3313C12.0948 29.3093 12.5535 29.3131 13.049 29.339C12.789 28.6481 12.5347 27.9877 12.2596 27.2777Z" fill="#858FA1"/>
<path d="M19.4308 29.3928C19.9178 29.3411 20.3266 29.1565 20.5828 28.7545C21.002 28.0952 20.7355 27.2369 19.7689 27.1785C19.6419 27.1641 19.5136 27.1641 19.3865 27.1785C19.0539 27.234 19.0728 27.1785 19.0699 27.5143C19.0699 28.0952 19.0756 28.6761 19.0756 29.257C19.0756 29.8378 19.0652 30.4321 19.0756 31.0187C19.0822 31.3316 19.1312 31.6417 19.4835 31.8378H18.0045C18.2448 31.634 18.2947 31.3593 18.2947 31.0579C18.2947 29.8458 18.2947 28.6321 18.2947 27.4167C18.3009 27.1893 18.2445 26.9646 18.1317 26.7679C18.0705 26.6674 18.0846 26.6177 18.1863 26.6225C18.9861 26.656 19.7925 26.5268 20.5866 26.7115C21.1292 26.8387 21.5833 27.2971 21.6407 27.7641C21.6874 28.0621 21.6395 28.3675 21.504 28.636C21.3686 28.9046 21.1525 29.1223 20.8871 29.2579C20.4717 29.478 20.0393 29.5747 19.5739 29.4684C19.5526 29.4628 19.532 29.4545 19.5127 29.4435C19.492 29.435 19.475 29.4216 19.4308 29.3928Z" fill="#858FA1"/>
<path d="M75.9499 30.9416C75.856 31.2201 75.7615 31.4967 75.6765 31.7771C75.6516 31.8623 75.6005 31.8565 75.5422 31.8565H72.4183C72.7143 31.577 72.7304 31.2345 72.7304 30.8861C72.7304 29.779 72.7375 28.6727 72.7304 27.5655C72.7304 27.2373 72.75 26.8822 72.3779 26.6172H75.2617V27.4785C74.7731 27.0535 74.2073 27.1703 73.6486 27.2172C73.5423 27.2267 73.5048 27.2574 73.5066 27.3646C73.5066 27.7693 73.5066 28.1742 73.5066 28.5789C73.5066 28.6976 73.5423 28.7416 73.6617 28.7359C74.0142 28.7196 74.3702 28.7684 74.7196 28.7081C74.8498 28.6851 74.8195 28.7617 74.8207 28.8201C74.8207 29.0392 74.8207 29.2593 74.8207 29.4947C74.4361 29.1723 73.9963 29.3196 73.5827 29.2928C73.4953 29.2871 73.509 29.3722 73.509 29.4296C73.509 29.9802 73.509 30.5298 73.509 31.0785C73.509 31.1407 73.5024 31.2038 73.5922 31.2106C74.1574 31.2508 74.7119 31.3943 75.2801 31.2191C75.5149 31.1474 75.7015 30.9971 75.9196 30.9043L75.9499 30.9416Z" fill="#858FA1"/>
<path d="M55.7211 2.45752C55.9107 2.45477 56.0989 2.49058 56.2748 2.56282C56.4506 2.63508 56.6104 2.74231 56.7448 2.87822C56.8793 3.01414 56.9856 3.17599 57.0575 3.35425C57.1294 3.53251 57.1656 3.72359 57.1638 3.91625C57.1619 4.1089 57.1222 4.29924 57.0469 4.47607C56.9716 4.65289 56.8623 4.81264 56.7253 4.9459C56.5883 5.07917 56.4265 5.18327 56.2494 5.25207C56.0722 5.32088 55.8833 5.353 55.6937 5.34655C55.3178 5.34352 54.9583 5.18961 54.6936 4.91838C54.4288 4.64716 54.2804 4.28062 54.2807 3.89869C54.2786 3.70698 54.3146 3.5168 54.3865 3.33955C54.4584 3.16229 54.5648 3.00158 54.6993 2.86704C54.8338 2.73251 54.9935 2.6269 55.1691 2.55653C55.3447 2.48617 55.5324 2.45249 55.7211 2.45752Z" fill="#858FA1"/>
<path d="M16.6714 3.87523C16.7223 4.70203 16.012 5.34414 15.265 5.34797C14.518 5.3518 13.8425 4.66471 13.8425 3.92307C13.8399 3.73142 13.8748 3.54116 13.9452 3.36334C14.0156 3.18552 14.1202 3.02369 14.2527 2.88728C14.3852 2.75086 14.5432 2.64257 14.7172 2.56871C14.8914 2.49485 15.0782 2.45689 15.2668 2.45703C16.0431 2.4666 16.7016 3.10393 16.6714 3.87523Z" fill="#858FA1"/>
<path d="M38.6348 27.4021C38.6536 27.1504 38.7741 26.9237 38.8231 26.6825C38.842 26.5868 38.9173 26.5725 38.9965 26.5868C39.7077 26.6777 40.4218 26.6117 41.1339 26.6279C41.5333 26.6375 41.9318 26.6279 42.3312 26.6279C42.448 26.6279 42.5639 26.6021 42.6948 26.5868C42.6166 26.894 42.5432 27.1887 42.4631 27.5055C42.2747 27.2289 42.0138 27.1686 41.7198 27.184C41.5032 27.1954 41.2196 27.0883 41.0868 27.2222C40.954 27.3562 41.0425 27.6566 41.0416 27.8815C41.036 28.8596 41.036 29.8375 41.0416 30.8156C41.0416 31.3562 40.986 31.3897 41.3892 31.8529H39.9762C40.4236 31.3505 40.2268 30.739 40.2437 30.1686C40.2729 29.2519 40.2616 28.3332 40.2692 27.4146C40.2692 27.2653 40.2522 27.1591 40.0553 27.1801C39.7576 27.2117 39.4571 27.1552 39.1585 27.226C38.9874 27.2755 38.8241 27.3493 38.6733 27.4452L38.6348 27.4021Z" fill="#858FA1"/>
<path d="M69.603 27.4991C69.4562 27.2503 69.2434 27.1785 68.9992 27.1766C68.7971 27.1766 68.5926 27.1852 68.39 27.1766C68.2206 27.1671 68.1665 27.2302 68.1683 27.3996C68.179 28.2532 68.1683 29.1058 68.1867 29.9585C68.1932 30.3652 68.1617 30.7719 68.2099 31.1776C68.2503 31.5164 68.2889 31.6111 68.5736 31.8427H67.1341C67.3736 31.5882 67.4033 31.2829 67.4016 30.9585C67.3944 29.7738 67.3944 28.5894 67.4016 27.4053C67.4016 27.2312 67.3659 27.1671 67.1811 27.1747C66.743 27.1929 66.2937 27.1269 65.8973 27.3958L65.7635 27.4915C65.8206 27.1985 65.9008 26.9105 66.0031 26.6302C66.0233 26.5623 66.097 26.5843 66.1404 26.59C66.9267 26.6857 67.7166 26.6197 68.5047 26.6283C68.9154 26.6283 69.3302 26.6733 69.7397 26.5948C69.8003 26.5834 69.855 26.5948 69.8342 26.6742C69.7641 26.9355 69.6862 27.2063 69.603 27.4991Z" fill="#858FA1"/>
<path d="M79.0209 26.6624C79.2093 26.5667 79.406 26.6317 79.598 26.6222C79.7899 26.6126 80.0039 26.6222 80.2078 26.6222C80.2262 26.6256 80.2446 26.6311 80.2624 26.6384C79.9023 26.9916 79.9896 27.4452 79.9861 27.8738C79.9748 28.9179 79.9778 29.961 79.9653 31.005C79.9653 31.1897 80.0104 31.2624 80.2048 31.2605C80.4919 31.2605 80.7801 31.2882 81.0684 31.3026C81.5201 31.3378 81.9676 31.1979 82.3213 30.9112C82.3397 30.8986 82.3599 30.8883 82.3807 30.8806C82.3985 30.873 82.4175 30.8681 82.4639 30.8529C82.3438 31.1667 82.2327 31.4595 82.121 31.7524C82.1126 31.7851 82.093 31.8138 82.0657 31.8333C82.0383 31.8528 82.0051 31.8617 81.9718 31.8586C80.9525 31.8586 79.9326 31.8586 78.8752 31.8586C78.9816 31.7786 79.0666 31.6728 79.1219 31.5509C79.1772 31.429 79.2015 31.295 79.1932 31.161C79.1998 29.8854 79.1974 28.6098 79.1932 27.3332C79.198 27.1043 79.1255 26.8806 78.9876 26.6997L79.0209 26.6624Z" fill="#858FA1"/>
<path d="M46.4207 26.9562C46.3661 27.3706 46.1532 27.6998 45.8697 27.9859C45.8529 28.0038 45.8326 28.018 45.8101 28.0275C45.7875 28.0371 45.7633 28.0417 45.7389 28.0412C45.7145 28.0406 45.6905 28.0349 45.6684 28.0244C45.6464 28.0139 45.6266 27.9988 45.6107 27.9802C45.5165 27.8845 45.6455 27.8337 45.6804 27.7811C45.7566 27.6625 45.8687 27.5715 45.9318 27.4366C45.995 27.3016 45.9432 27.271 45.848 27.2337C45.5758 27.1285 45.426 26.9533 45.4778 26.7639C45.5353 26.5533 45.6775 26.3648 45.9865 26.3935C46.105 26.4097 46.2139 26.4683 46.2934 26.5589C46.3731 26.6495 46.4183 26.7659 46.4207 26.8873C46.4226 26.9103 46.4207 26.9332 46.4207 26.9562Z" fill="#858FA1"/>
<path d="M78.987 26.7022L78.9436 26.642C78.9806 26.6156 79.0058 26.6317 79.0234 26.6674L78.987 26.7022Z" fill="#858FA1"/>
<path d="M38.6685 27.439C38.6481 27.4521 38.6388 27.5009 38.6082 27.4709C38.5776 27.4409 38.6027 27.4164 38.6351 27.4023L38.6685 27.439Z" fill="#858FA1"/>
<path d="M75.9146 30.9027C75.9321 30.8857 75.9427 30.8387 75.975 30.8697C76.0078 30.9008 75.9814 30.9243 75.9492 30.9394L75.9146 30.9027Z" fill="#858FA1"/>
</svg>
