<svg width="129" height="32" viewBox="0 0 129 32" fill="none" xmlns="http://www.w3.org/2000/svg">
<path d="M128.234 0.00390625V32.0039H125.747C125.611 31.9848 125.474 31.9495 125.337 31.9495C118.847 31.9425 112.357 31.9379 105.867 31.9334C87.6399 31.9213 69.4134 31.9092 51.1869 31.8966C48.0533 31.8946 44.9205 31.8891 41.7869 31.8881C28.2598 31.8845 14.7321 31.8815 1.20485 31.88C1.10637 31.88 1.00839 31.8951 0.909912 31.9037C0.909912 21.2708 0.909912 10.6373 0.909912 0.00440987C1.00839 0.0124675 1.10637 0.0280787 1.20485 0.0280787C43.4497 0.029086 85.6945 0.029086 127.94 0.0280787C128.038 0.0280787 128.136 0.0129708 128.235 0.00440987L128.234 0.00390625ZM106.534 18.5896C106.534 20.461 106.534 22.2553 106.534 24.0501C106.534 24.457 106.54 24.4631 106.931 24.4631C108.133 24.4636 109.335 24.4636 110.536 24.4631C110.93 24.4631 110.937 24.456 110.937 24.0536C110.937 21.6303 110.937 19.207 110.937 16.7842V16.4282C111.019 16.5329 111.061 16.5813 111.098 16.6326C112.903 19.1592 114.71 21.6847 116.512 24.2138C116.627 24.3759 116.747 24.4686 116.957 24.4671C118.077 24.459 119.195 24.4646 120.314 24.4625C120.613 24.4621 120.638 24.4344 120.638 24.1287C120.64 23.2146 120.639 22.3006 120.64 21.3866C120.641 16.9172 120.642 12.4483 120.643 7.97884C120.643 7.62735 120.641 7.62683 120.307 7.62683C119.072 7.62683 117.837 7.62683 116.602 7.62683C116.277 7.62683 116.276 7.62784 116.276 7.96173C116.276 10.3009 116.276 12.6406 116.276 14.9799V15.2966C116.186 15.1833 116.129 15.1138 116.076 15.0418C114.271 12.6396 112.466 10.238 110.665 7.83331C110.555 7.68625 110.44 7.62029 110.251 7.62231C109.132 7.63239 108.013 7.62784 106.895 7.62934C106.537 7.62934 106.534 7.63137 106.534 7.99447C106.533 9.81293 106.534 11.632 106.534 13.4832C104.978 8.7413 99.867 6.53757 95.653 8.11884C93.6185 8.88231 92.0639 10.2279 91.0691 12.1809C89.6885 14.8922 89.8684 17.599 91.2407 20.3069C91.1109 20.3069 91.0224 20.3069 90.934 20.3069C89.7821 20.3069 88.6295 20.3069 87.4779 20.3069C87.2444 20.3069 87.1273 20.1869 87.1269 19.9468C87.1269 15.9639 87.1269 11.9809 87.1269 7.998V7.62683H86.7988C85.564 7.62683 84.3288 7.62683 83.094 7.62683C82.8349 7.62683 82.7054 7.75945 82.705 8.02469C82.705 13.3658 82.705 18.7069 82.705 24.0486C82.705 24.4621 82.705 24.4631 83.1219 24.4631C86.1885 24.4631 89.2553 24.4631 92.3219 24.4631C92.3554 24.4631 92.3885 24.46 92.4214 24.4631C92.6521 24.4847 92.7488 24.3915 92.7429 24.1458C92.7298 23.5757 92.7384 23.0056 92.7398 22.4356C92.7398 22.3651 92.7498 22.2951 92.7567 22.2084C97.7766 26.5253 104.632 24.1735 106.534 18.5896H106.534ZM23.1171 18.9447C23.1171 20.7042 23.1211 22.4396 23.1121 24.1755C23.1111 24.4011 23.1892 24.4651 23.3966 24.4651C26.4634 24.4616 29.5306 24.4616 32.5973 24.4656C32.8296 24.4656 32.9166 24.3875 32.9141 24.1433C32.9022 22.9779 32.9067 21.8121 32.9032 20.6468C32.9022 20.3094 32.8987 20.3069 32.5725 20.3069C31.0888 20.3069 29.6047 20.3029 28.1211 20.3109C27.9042 20.3119 27.8311 20.249 27.8366 20.0259C27.8505 19.481 27.8411 18.9361 27.8411 18.3907C27.8411 18.1577 27.953 18.041 28.1768 18.0407C29.4948 18.0407 30.8128 18.0352 32.1308 18.0457C32.3626 18.0478 32.4237 17.9737 32.4218 17.7461C32.4113 16.5636 32.4173 15.3812 32.4168 14.1993C32.4168 13.8689 32.4158 13.8679 32.088 13.8674C30.7616 13.8674 29.4356 13.8634 28.1091 13.8709C27.9042 13.8719 27.8321 13.81 27.8376 13.5995C27.85 13.1135 27.8411 12.627 27.8415 12.1406C27.8415 11.916 27.9493 11.8033 28.1648 11.8027C29.6569 11.8027 31.149 11.8001 32.6406 11.8057C32.8246 11.8062 32.9127 11.7634 32.9117 11.5574C32.9037 10.3332 32.9032 9.10891 32.9047 7.88469C32.9047 7.69632 32.845 7.6228 32.6441 7.62333C29.5604 7.62987 26.4768 7.63088 23.3937 7.62585C23.1753 7.62585 23.1107 7.6923 23.1126 7.91288C23.1221 9.1457 23.1171 10.378 23.1171 11.6108C23.1171 12.1255 23.1171 12.6401 23.1171 13.2042C22.5238 11.6022 21.5827 10.4107 20.6084 9.60848C19.0825 8.35152 17.3527 7.63539 15.3642 7.62987C13.8637 7.62585 12.3637 7.62784 10.8631 7.62735C10.1584 7.62735 9.45408 7.63186 8.74934 7.62382C8.56828 7.62179 8.48372 7.67873 8.49965 7.86605C8.50462 7.92445 8.49965 7.98338 8.49965 8.04231C8.49965 13.3754 8.49965 18.7085 8.49965 24.0421C8.49965 24.4625 8.49965 24.4636 8.91047 24.4636C11.0989 24.4636 13.2872 24.4832 15.4752 24.4515C16.1053 24.4424 16.7534 24.3583 17.3586 24.1861C20.114 23.403 22.0224 21.6409 23.1166 18.9447H23.1171ZM46.1971 13.7027C46.2489 13.6423 46.2973 13.5975 46.3318 13.5441C46.977 12.5591 47.6178 11.571 48.2678 10.5885C48.3718 10.4314 48.3269 10.3382 48.2094 10.2244C47.5162 9.55259 46.7428 8.99462 45.8835 8.56304C44.1775 7.70639 42.3779 7.34231 40.4889 7.64498C38.1429 8.02067 36.1986 9.15476 34.7191 11.0372C33.1449 13.04 32.569 15.3162 33.1255 17.8312C33.6458 20.183 34.9638 21.9838 36.9944 23.2338C38.7314 24.3024 40.6229 24.6524 42.6266 24.3346C44.3606 24.0602 45.8631 23.2927 47.1553 22.0921C47.2585 21.9959 47.4278 21.9234 47.567 21.9224C49.0094 21.9103 50.4515 21.9179 51.8936 21.9113C52.0949 21.9103 52.1706 21.9667 52.1675 22.1807C52.1595 22.843 52.1751 23.5057 52.172 24.168C52.1709 24.3825 52.2535 24.4656 52.4666 24.4651C53.7263 24.46 54.986 24.4595 56.2457 24.4651C56.4702 24.4661 56.5424 24.3875 56.5424 24.1554C56.5362 18.7387 56.5362 13.3215 56.5424 7.90483C56.5424 7.68376 56.4802 7.6198 56.2613 7.6213C54.8523 7.63088 53.4434 7.62987 52.0341 7.6213C51.8418 7.62029 51.7343 7.69132 51.6328 7.84541C50.9931 8.8138 50.3458 9.77719 49.7006 10.7421C48.0208 13.2555 46.356 15.7786 44.6562 18.2784C43.6953 19.6925 42.3233 20.2792 40.6512 20.039C38.901 19.7877 37.5083 18.298 37.2959 16.5365C37.0814 14.7603 38.1211 12.9987 39.7987 12.3229C40.6619 11.9749 41.5728 11.9442 42.484 11.9985C43.6497 12.068 44.6877 12.4996 45.6137 13.2117C45.8102 13.3628 45.9943 13.531 46.1978 13.7027H46.1971ZM72.8864 7.62634H72.5517C71.3169 7.62634 70.0821 7.62634 68.8469 7.62634C68.5277 7.62634 68.5267 7.62683 68.5267 7.96023C68.5267 13.3432 68.5267 18.7256 68.5267 24.1085C68.5267 24.4585 68.5274 24.4616 68.87 24.4621C70.0966 24.4636 71.3235 24.4631 72.55 24.4621C72.8975 24.4621 72.9006 24.457 72.901 24.1146C72.901 22.1274 72.9061 20.1402 72.8954 18.1535C72.894 17.8926 72.9735 17.8312 73.2208 17.8332C74.6625 17.8443 76.105 17.8388 77.547 17.8388C77.7667 17.8388 77.8769 17.9484 77.8772 18.1676C77.8772 20.1548 77.8817 22.142 77.8721 24.1287C77.871 24.379 77.9394 24.4681 78.1909 24.4666C79.4261 24.4575 80.6609 24.4585 81.8957 24.4661C82.124 24.4676 82.209 24.4041 82.209 24.1539C82.2021 18.7377 82.2038 13.321 82.2031 7.90483C82.2031 7.8167 82.1938 7.72905 82.1876 7.62634C82.066 7.62634 81.9755 7.62634 81.885 7.62634C80.6585 7.62634 79.4312 7.62634 78.205 7.62634C77.879 7.62634 77.88 7.62735 77.8776 7.95467C77.8641 9.82402 77.8469 11.6934 77.8399 13.5627C77.8389 13.7798 77.7964 13.8739 77.5529 13.8719C76.0943 13.8609 74.6352 13.8618 73.1769 13.8709C72.9541 13.8724 72.8972 13.7984 72.8975 13.5818C72.901 12.0897 72.892 10.597 72.8875 9.1044C72.8861 8.6275 72.8875 8.15059 72.8875 7.62585L72.8864 7.62634ZM64.6954 18.0155C64.6954 15.9785 64.6996 13.9414 64.6906 11.9039C64.6896 11.6566 64.7666 11.5922 65.0025 11.5952C65.922 11.6073 66.8421 11.5962 67.7616 11.6032C67.9499 11.6047 68.029 11.5514 68.0279 11.3489C68.0214 10.1922 68.0214 9.03491 68.0279 7.87815C68.029 7.67971 67.9602 7.62179 67.7668 7.62231C64.2861 7.62836 60.8058 7.62885 57.3251 7.62483C57.1123 7.62483 57.0336 7.68876 57.0353 7.91186C57.0436 9.05201 57.0433 10.1922 57.0353 11.3323C57.0336 11.5413 57.1044 11.6058 57.3082 11.6037C58.2114 11.5952 59.1147 11.5997 60.0179 11.6002C60.2518 11.6002 60.3688 11.7201 60.3688 11.9598C60.3688 16.0087 60.3688 20.0581 60.3688 24.107C60.3688 24.4585 60.3688 24.4616 60.7073 24.4621C61.9253 24.4636 63.1439 24.4636 64.3618 24.4621C64.693 24.4621 64.6951 24.457 64.6951 24.1272C64.6951 22.0901 64.6951 20.0531 64.6951 18.0155H64.6954Z" fill="#858FA1"/>
<path d="M98.5177 20.2577C96.4373 20.3151 94.2972 18.6124 94.2961 16.0371C94.2951 13.7774 96.0595 11.8209 98.5081 11.8164C101.125 11.8119 102.763 13.9803 102.76 16.0526C102.756 18.3712 100.794 20.3075 98.5177 20.2577Z" fill="#858FA1"/>
<path d="M13.2667 16.0447C13.2667 14.6618 13.2712 13.2794 13.2622 11.8966C13.2607 11.6694 13.3189 11.5899 13.5537 11.5939C14.3485 11.6075 15.1442 11.5959 15.9395 11.5999C17.0412 11.6055 18.019 12.372 18.3602 13.429C18.6909 14.4528 18.8521 15.4932 18.7874 16.5664C18.7367 17.4069 18.5815 18.2358 18.2388 19.0008C17.8021 19.9757 16.9885 20.4537 15.948 20.499C15.1542 20.5337 14.3574 20.4965 13.5626 20.5115C13.3125 20.5166 13.2607 20.4249 13.2622 20.1923C13.2712 18.8094 13.2667 17.427 13.2667 16.0442V16.0447Z" fill="#858FA1"/>
<path d="M49.9612 18.1475C50.7052 17.099 51.4078 16.1095 52.14 15.0781C52.1514 15.1713 52.1607 15.2156 52.1614 15.2599C52.1659 16.1301 52.1645 17.0008 52.1759 17.8711C52.1784 18.0725 52.1227 18.1551 51.9114 18.1516C51.2844 18.141 50.6575 18.1475 49.9615 18.1475H49.9612Z" fill="#858FA1"/>
</svg>
