<svg width="51" height="32" viewBox="0 0 51 32" fill="none" xmlns="http://www.w3.org/2000/svg">
<path fill-rule="evenodd" clip-rule="evenodd" d="M2.20239 2.77384C1.13103 3.97828 0.75838 5.09007 0.898123 6.24818C0.991285 7.08202 1.22419 7.68424 1.31735 7.82321C2.15581 9.02765 1.78316 7.86954 1.78316 6.71143C1.78316 4.67315 3.27375 2.3106 5.55622 1.38411C7.41946 0.596592 9.60877 0.318646 11.6583 0.735567C13.6147 1.10616 15.4314 1.94 16.5028 3.37606C17.3878 4.53417 18.0865 5.87759 18.1331 8.28646C18.1331 8.37911 18.1331 8.51808 18.1331 8.7497C18.0865 9.86149 17.9468 11.7145 16.6891 13.6138C15.1985 15.8374 12.0776 17.3197 8.49082 17.3197C7.23314 17.3197 5.88229 17.1344 4.90409 17.0881C4.71776 17.0881 4.67118 16.9491 4.81093 16.8565C7.27972 15.2815 7.88527 11.8998 9.18954 9.02765C9.56219 8.14748 10.1212 6.29451 10.4006 5.69229C12.1241 2.1253 13.475 1.94 13.0558 1.89368C12.3105 1.80103 11.0994 1.94 9.70193 3.23709C8.91005 3.97828 7.93185 5.87758 7.37288 7.31364C6.30152 9.81517 5.55622 12.224 4.85751 13.6138C4.29853 14.7256 3.87931 15.6521 3.32033 16.2543C2.62162 17.0418 2.29555 17.1344 2.29555 17.1344C2.24897 17.1344 2.10923 17.1344 2.01607 17.2271C1.96949 17.2734 1.92291 17.3661 1.92291 17.505C1.92291 17.644 1.96949 17.783 2.01607 17.8293C2.10923 17.922 2.20239 17.922 2.29555 17.922C2.34213 17.922 8.07159 18.1073 9.46902 17.9683C13.6613 17.5977 16.2233 16.4859 18.1797 14.4939C20.0429 12.6873 20.4621 10.4174 20.4621 8.88868C20.4621 6.61878 19.9032 4.71947 18.366 3.19076C16.5493 1.38411 14.7327 0.411295 11.8912 0.0870232C10.3541 -0.0519503 8.49082 -0.051951 6.67416 0.364969C4.6246 0.735565 3.04085 1.80103 2.20239 2.77384Z" fill="#858FA1"/>
<path fill-rule="evenodd" clip-rule="evenodd" d="M27.9161 6.24609C24.6089 6.24609 21.7674 8.79394 20.929 11.944C20.4632 13.658 20.4632 15.4647 21.3482 16.5765C22.0935 17.5029 23.0251 17.8735 24.2828 17.8735C27.7298 17.8735 30.5247 15.2794 31.3631 12.083C31.8289 10.369 31.7823 8.60864 30.8507 7.45053C30.152 6.57037 29.1738 6.24609 27.9161 6.24609ZM23.6773 17.1324C23.3046 16.9471 22.8854 16.1132 22.8388 15.4183C22.7456 14.0749 22.7456 12.3146 23.6773 10.4616C25.0281 7.86745 27.2174 6.15344 28.7546 7.07993C29.0807 7.26523 29.2204 7.54318 29.4067 8.00642C29.9191 9.58146 29.4999 12.3146 28.3819 14.3066C26.8913 16.9007 24.9349 17.7809 23.6773 17.1324Z" fill="#858FA1"/>
<path fill-rule="evenodd" clip-rule="evenodd" d="M47.5714 6.1988C45.4753 6.29145 42.4475 7.68118 40.8172 11.7577C39.9321 13.935 40.2116 15.6027 40.724 16.4365C41.4227 17.5946 42.2612 17.8726 43.1462 17.9189C47.1988 18.1505 48.9688 14.8615 49.062 14.7688C49.1552 14.6299 49.2483 14.4446 49.0154 14.3056C48.7825 14.1666 48.6894 14.3982 48.5962 14.5372C47.7112 16.0196 45.6616 17.1314 44.2176 17.1314C43.1928 17.0851 42.6338 16.4828 42.4009 15.0931C42.2612 14.3982 42.4941 12.9622 42.5873 12.6379C43.4723 12.6842 47.6646 12.221 49.5744 9.99741C50.18 9.25622 50.4129 8.0981 50.0868 7.35691C49.7141 6.56939 48.4565 6.15247 47.5714 6.1988ZM46.6864 6.89367C47.1988 6.70837 47.7577 6.75469 48.1304 6.98632C48.8291 7.40324 48.8757 8.60767 47.8975 9.90476C46.5466 11.5724 43.5655 12.1747 42.8667 12.1283C43.8915 9.11724 45.615 7.21794 46.6864 6.89367Z" fill="#858FA1"/>
<path fill-rule="evenodd" clip-rule="evenodd" d="M20.0265 25.5168C20.0265 25.5168 22.5419 25.7021 25.2436 24.3124C27.9453 22.9226 29.8085 21.8572 31.1128 23.3859C32.4171 24.9146 30.647 26.2117 30.8799 26.397C31.1128 26.5823 31.4389 26.258 31.5786 26.119C31.7649 25.98 32.8363 24.6366 33.7213 24.3124C35.0722 23.8028 35.538 24.405 35.8641 24.6366C36.1901 24.8219 36.4696 25.0072 36.4696 25.0999C36.4696 25.1925 35.9106 25.2852 35.4914 25.6558C34.6995 26.3506 33.1158 30.4272 30.2743 31.539C27.4329 32.6044 23.8927 32.0949 17.3248 27.1381C22.5885 28.3426 22.9145 27.972 23.753 27.972C24.638 27.972 26.8739 27.7867 26.6876 27.3698C26.5013 26.9528 23.6133 28.2499 20.0265 25.5168Z" fill="#858FA1"/>
<path fill-rule="evenodd" clip-rule="evenodd" d="M32.0616 6.57037C31.7356 6.75566 32.9001 7.12626 33.0398 9.25719C33.133 10.4616 33.1796 11.7587 33.133 12.7778C33.0864 13.797 32.8069 16.7618 32.8535 17.086C32.9001 17.4103 33.0864 17.8735 33.5056 17.8272C33.9714 17.7809 36.7663 16.3448 39.0022 12.5462C41.2847 8.74762 41.797 6.24609 40.7723 6.24609C39.9338 6.24609 40.2599 6.75566 40.1201 7.49686C39.8872 8.79394 39.3748 10.6469 38.3501 12.1293C37.3253 13.7043 35.6018 16.0669 35.0894 15.9279C34.6236 15.7889 35.6949 9.62778 34.8099 7.82113C34.018 6.19977 32.4809 6.33874 32.0616 6.57037Z" fill="#858FA1"/>
</svg>
