<svg width="41" height="41" viewBox="0 0 41 41" fill="none" xmlns="http://www.w3.org/2000/svg">
<path d="M40.4259 20.2354C40.4259 31.1953 31.5411 40.0802 20.5811 40.0802C9.62113 40.0802 0.736328 31.1953 0.736328 20.2354C0.736328 9.27543 9.62113 0.390625 20.5811 0.390625C31.5411 0.390625 40.4259 9.27543 40.4259 20.2354Z" fill="white"/>
<path d="M40.4259 20.2252C40.4259 9.28059 31.5313 0.390625 20.5811 0.390625C9.63085 0.390625 0.736328 9.28059 0.736328 20.2252C0.736328 30.1323 8.00257 38.3306 17.4874 39.8157V25.9416H12.4193V20.2049H17.4874V15.8311C17.4874 10.8674 20.4386 8.10069 24.9571 8.10069C27.135 8.10069 29.3739 8.52789 29.3739 8.52789V13.3696H26.8907C24.4279 13.3696 23.6341 14.9156 23.6341 16.4821V20.2049H29.15L28.2748 25.9416H23.6545V39.8157C33.1596 38.3306 40.4259 30.1323 40.4259 20.2252Z" fill="#0866FF"/>
</svg>
