<svg width="47" height="41" viewBox="0 0 47 41" fill="none" xmlns="http://www.w3.org/2000/svg">
<path d="M40.5691 40.1949H7.16485C5.44244 40.1949 4.0332 38.7856 4.0332 37.0632V3.65899C4.0332 1.93659 5.44244 0.527344 7.16485 0.527344H40.5691C42.2915 0.527344 43.7007 1.93659 43.7007 3.65899V37.0632C43.7007 38.7856 42.2915 40.1949 40.5691 40.1949Z" fill="#4285F4"/>
<path d="M4.0332 20.4407L23.7887 40.1961H43.7007V15.2734H4.0332V20.4407Z" fill="url(#paint0_linear_7635_21891)"/>
<path opacity="0.2" d="M40.5691 39.9324H7.16485C5.44244 39.9324 4.0332 38.5232 4.0332 36.8008V37.0618C4.0332 38.7842 5.44244 40.1934 7.16485 40.1934H40.5691C42.2915 40.1934 43.7007 38.7842 43.7007 37.0618V36.8008C43.7007 38.5232 42.2915 39.9324 40.5691 39.9324Z" fill="#1A237E"/>
<path d="M7.16466 0.527344C5.75542 0.527344 4.55496 1.46684 4.1635 2.74559L0.901367 15.1417C0.901367 18.3255 3.45888 20.8831 6.64272 20.8831C9.80047 20.8831 12.3841 18.3255 12.3841 15.1417L14.2892 0.527344H7.16466Z" fill="#7BAAF7"/>
<path d="M43.5708 2.74559C43.1793 1.46684 41.9788 0.527344 40.5696 0.527344H33.4451L35.3502 15.1417C35.3502 18.3255 37.9077 20.8831 41.0915 20.8831C44.2754 20.8831 46.8329 18.3255 46.8329 15.1417L43.5708 2.74559ZM23.8675 0.527344H14.2899L12.3848 15.1417C12.3848 18.3255 14.9423 20.8831 18.1261 20.8831C21.2839 20.8831 23.8675 18.3255 23.8675 15.1417V0.527344Z" fill="#3F51B5"/>
<path d="M23.8672 0.527344V15.1417C23.8672 18.2994 26.4508 20.8831 29.6085 20.8831C32.7924 20.8831 35.3499 18.3255 35.3499 15.1417L33.4448 0.527344H23.8672Z" fill="#7BAAF7"/>
<path opacity="0.1" d="M46.8322 15.1406C46.8322 18.3245 44.2747 20.882 41.0908 20.882C37.907 20.882 35.3495 18.3245 35.3495 15.1406H46.8322ZM12.3841 15.1406C12.3841 18.3245 9.82656 20.882 6.64272 20.882C3.45888 20.882 0.901367 18.3245 0.901367 15.1406H12.3841ZM23.8668 15.1406C23.8668 18.3245 21.3093 20.882 18.1254 20.882C14.9416 20.882 12.3841 18.3245 12.3841 15.1406H23.8668ZM35.3495 15.1406C35.3495 18.3245 32.792 20.882 29.6081 20.882C26.4243 20.882 23.8668 18.3245 23.8668 15.1406H35.3495Z" fill="#231F20"/>
<path opacity="0.2" d="M41.0908 20.882C37.9331 20.882 35.3495 18.3245 35.3495 15.1406V15.4016V15.3494C35.219 18.4289 32.7137 20.882 29.6081 20.882C29.2167 20.882 28.8252 20.8298 28.4599 20.7776H28.4338C28.1728 20.7254 27.8857 20.6471 27.6509 20.5427H27.6248C27.5726 20.5166 27.5204 20.4905 27.4421 20.4644C27.416 20.4644 27.3899 20.4383 27.3638 20.4383C27.2855 20.4122 27.2333 20.3861 27.155 20.36C27.1289 20.36 27.1289 20.3339 27.1028 20.3339C27.0245 20.3078 26.9723 20.2556 26.894 20.2296C26.8679 20.2296 26.8679 20.2035 26.8419 20.2035C26.7897 20.1774 26.7114 20.1252 26.6592 20.0991C26.6331 20.0991 26.607 20.073 26.607 20.073C26.5548 20.0469 26.5026 20.0208 26.4765 19.9947C26.4504 19.9686 26.4243 19.9425 26.3721 19.9425C26.346 19.9164 26.2938 19.8903 26.2677 19.8642C26.2155 19.8381 26.1894 19.812 26.1372 19.7859C26.1111 19.7598 26.0589 19.7337 26.0328 19.7076C26.0067 19.6815 25.9546 19.6554 25.9285 19.6293C25.9024 19.6032 25.8763 19.5771 25.8241 19.551L25.7197 19.4466L25.6414 19.3683C25.5892 19.3423 25.5631 19.2901 25.5109 19.264C25.4848 19.2379 25.4587 19.1857 25.4065 19.1596L25.3021 19.0552C25.276 19.0291 25.2499 18.9769 25.1977 18.9508C25.1716 18.9247 25.1455 18.8986 25.1194 18.8464C25.0933 18.7942 25.0672 18.7681 25.0151 18.7159C24.989 18.6898 24.9629 18.6637 24.9368 18.6115C24.9107 18.5593 24.8585 18.5071 24.8324 18.481C24.8063 18.455 24.7802 18.4289 24.7802 18.4028C24.7541 18.3506 24.728 18.2984 24.7019 18.2723C24.6758 18.2462 24.6497 18.2201 24.6497 18.1679C24.6236 18.1157 24.5714 18.0635 24.5453 17.9852C24.5453 17.9591 24.5192 17.933 24.5192 17.933C24.4931 17.8808 24.4409 17.8025 24.4148 17.7503C24.4148 17.7242 24.3887 17.7242 24.3887 17.6981C24.3626 17.6459 24.3365 17.5677 24.3104 17.5155C24.3104 17.4894 24.2843 17.4633 24.2843 17.4633C24.2582 17.385 24.2321 17.3328 24.206 17.2545C24.206 17.2284 24.1799 17.2023 24.1799 17.2023L24.1017 16.9674V16.9413L24.0234 16.7064V16.6804C23.9973 16.576 23.9712 16.4977 23.9712 16.3933C23.919 15.9235 23.8668 15.5321 23.8668 15.1406V15.4538C23.8668 15.5321 23.8668 15.6104 23.8407 15.7148V15.7409C23.8407 15.8191 23.8146 15.8974 23.8146 15.9757V16.0279C23.8146 16.1062 23.7885 16.1584 23.7885 16.2367V16.315C23.7624 16.3933 23.7624 16.4455 23.7363 16.5238C23.7363 16.5499 23.7363 16.576 23.7102 16.6021C23.6841 16.6804 23.6841 16.7325 23.658 16.8108C23.658 16.8369 23.658 16.863 23.6319 16.8891C23.6058 16.9413 23.5797 17.0196 23.5536 17.0718C23.5536 17.0979 23.5275 17.124 23.5275 17.1501C23.5014 17.2023 23.4753 17.2545 23.4492 17.3328C23.4492 17.3589 23.4231 17.385 23.4231 17.4111L23.3448 17.5677C23.3187 17.5937 23.3187 17.6459 23.2926 17.672C23.2666 17.7242 23.2405 17.7503 23.2405 17.8025C23.2144 17.8547 23.1883 17.8808 23.1622 17.933C23.1361 17.9591 23.1361 17.9852 23.11 18.0374L23.0317 18.194C23.0056 18.2201 22.9795 18.2462 22.9795 18.2984C22.9534 18.3506 22.9273 18.4028 22.9012 18.4289C22.8751 18.455 22.849 18.481 22.849 18.5071C22.8229 18.5593 22.7968 18.6115 22.7446 18.6376C22.7185 18.6637 22.6924 18.6898 22.6663 18.742C22.6402 18.7942 22.6141 18.8203 22.5619 18.8725C22.5358 18.8986 22.5097 18.9508 22.4836 18.9769C22.4575 19.003 22.4314 19.0552 22.3793 19.0813L22.301 19.1596C22.2749 19.2118 22.2227 19.2379 22.1966 19.2901L22.1183 19.3683L21.9878 19.4988L21.9095 19.5771C21.8573 19.6032 21.8312 19.6554 21.779 19.6815C21.7529 19.6815 21.7529 19.7076 21.7268 19.7076C21.6746 19.7598 21.6224 19.7859 21.5702 19.8381L21.5441 19.8642C21.492 19.9164 21.4137 19.9686 21.3354 19.9947H21.3093C21.231 20.0469 21.1788 20.0991 21.1005 20.1252H21.0744C20.9961 20.1774 20.9178 20.2035 20.8395 20.2556C20.8134 20.2556 20.8134 20.2817 20.7873 20.2817C20.709 20.3078 20.6568 20.36 20.5786 20.3861C20.5525 20.3861 20.5525 20.4122 20.5264 20.4122C20.4742 20.4383 20.3959 20.4644 20.3176 20.4905C20.2915 20.4905 20.2654 20.5166 20.2393 20.5166C20.1871 20.5427 20.1349 20.5688 20.0566 20.5949H20.0305L19.7956 20.6732C19.7695 20.6732 19.7434 20.6993 19.7174 20.6993C19.6652 20.7254 19.5869 20.7254 19.5347 20.7515C19.4825 20.7515 19.4303 20.7776 19.3781 20.7776C19.3259 20.7776 19.2998 20.8037 19.2476 20.8037C19.1954 20.8037 19.1432 20.8298 19.091 20.8298C19.0388 20.8298 19.0127 20.8559 18.9605 20.8559C18.8822 20.882 18.7779 20.882 18.6996 20.882H18.6735C18.6213 20.882 18.543 20.882 18.4908 20.9081H18.0732C14.9155 20.9081 12.3319 18.3506 12.3319 15.1667C12.3319 17.0457 11.4185 18.7159 10.0353 19.7598L9.80047 19.9164C8.93926 20.5166 7.84319 20.882 6.64272 20.882C3.56327 20.882 1.03185 18.4289 0.901367 15.3755V15.4016C0.901367 18.5854 3.48498 21.1429 6.64272 21.1429C7.84319 21.1429 8.93926 20.7776 9.85266 20.1513L10.0875 19.9947C11.4968 18.9508 12.3841 17.2806 12.3841 15.4016C12.3841 18.5593 14.9677 21.1429 18.1254 21.1429H18.543C18.5952 21.1429 18.6735 21.1429 18.7257 21.1169H18.7518C18.8301 21.1169 18.9344 21.0908 19.0127 21.0908C19.0649 21.0908 19.091 21.0647 19.1432 21.0647C19.1954 21.0647 19.2476 21.0386 19.2998 21.0386C19.352 21.0386 19.3781 21.0125 19.4303 21.0125C19.4825 21.0125 19.5347 20.9864 19.5869 20.9864C19.6391 20.9603 19.7174 20.9603 19.7695 20.9342C19.7956 20.9342 19.8217 20.9081 19.8478 20.9081L20.0827 20.8298H20.1088C20.161 20.8037 20.2132 20.7776 20.2915 20.7515C20.3176 20.7515 20.3437 20.7254 20.3698 20.7254C20.4481 20.6993 20.5003 20.6732 20.5786 20.6471C20.6047 20.6471 20.6047 20.621 20.6307 20.621C20.709 20.5949 20.7612 20.5427 20.8395 20.5166C20.8656 20.5166 20.8656 20.4905 20.8917 20.4905C20.97 20.4383 21.0483 20.4122 21.1266 20.36H21.1527C21.231 20.3078 21.3093 20.2817 21.3615 20.2296H21.3876C21.4659 20.1774 21.518 20.1252 21.5963 20.0991L21.6224 20.073C21.6746 20.0208 21.7268 19.9947 21.779 19.9425C21.8051 19.9425 21.8051 19.9164 21.8312 19.9164C21.8834 19.8903 21.9095 19.8381 21.9617 19.812L22.04 19.7337L22.1705 19.6032L22.2488 19.5249C22.2749 19.4988 22.3271 19.4466 22.3532 19.3944L22.4314 19.3162C22.4575 19.2901 22.4836 19.2379 22.5358 19.2118C22.5619 19.1857 22.588 19.1596 22.6141 19.1074C22.6402 19.0552 22.6663 19.0291 22.7185 18.9769C22.7446 18.9508 22.7707 18.9247 22.7968 18.8725C22.8229 18.8203 22.8751 18.7681 22.9012 18.742C22.9273 18.7159 22.9534 18.6898 22.9534 18.6637C22.9795 18.6115 23.0056 18.5593 23.0317 18.5332C23.0578 18.5071 23.0839 18.481 23.0839 18.4289L23.1622 18.2723C23.1883 18.2462 23.1883 18.2201 23.2144 18.1679C23.2405 18.1157 23.2666 18.0896 23.2926 18.0374C23.3187 17.9852 23.3448 17.9591 23.3448 17.9069C23.3709 17.8808 23.3709 17.8286 23.397 17.8025L23.4753 17.6459C23.4753 17.6198 23.5014 17.5937 23.5014 17.5677C23.5275 17.5155 23.5536 17.4633 23.5797 17.385C23.5797 17.3589 23.6058 17.3328 23.6058 17.3067C23.6319 17.2545 23.658 17.1762 23.6841 17.124C23.6841 17.0979 23.7102 17.0718 23.7102 17.0457C23.7363 16.9674 23.7624 16.9152 23.7624 16.8369C23.7624 16.8108 23.7624 16.7847 23.7885 16.7586C23.8146 16.6804 23.8146 16.6282 23.8407 16.5499V16.4716C23.8668 16.3933 23.8668 16.3411 23.8668 16.2628V16.2106C23.8668 16.1323 23.8929 16.054 23.8929 15.9757V15.9496C23.8929 15.8713 23.919 15.7931 23.919 15.6887V15.3755C23.919 15.767 23.9712 16.1584 24.0234 16.5238C24.0495 16.6282 24.0756 16.7064 24.0756 16.8108V16.8369L24.1539 17.0718V17.0979L24.2321 17.3328C24.2321 17.3589 24.2582 17.385 24.2582 17.385C24.2843 17.4633 24.3104 17.5155 24.3365 17.5937C24.3365 17.6198 24.3626 17.6459 24.3626 17.6459C24.3887 17.6981 24.4148 17.7764 24.4409 17.8286C24.4409 17.8547 24.467 17.8547 24.467 17.8808C24.4931 17.9591 24.5192 18.0113 24.5714 18.0635C24.5714 18.0896 24.5975 18.1157 24.5975 18.1157C24.6236 18.1679 24.6758 18.2462 24.7019 18.2984C24.728 18.3245 24.7541 18.3506 24.7541 18.4028C24.7802 18.455 24.8063 18.5071 24.8324 18.5332C24.8585 18.5593 24.8846 18.5854 24.8846 18.6115C24.9107 18.6637 24.9368 18.7159 24.989 18.742C25.0151 18.7681 25.0412 18.7942 25.0672 18.8464C25.0933 18.8986 25.1194 18.9247 25.1716 18.9769C25.1977 19.003 25.2238 19.0552 25.2499 19.0813C25.276 19.1074 25.3021 19.1596 25.3543 19.1857L25.4587 19.2901C25.4848 19.3162 25.5109 19.3683 25.5631 19.3944C25.5892 19.4205 25.6414 19.4727 25.6936 19.4988L25.7719 19.5771L25.8763 19.6815C25.8763 19.6815 25.9285 19.7337 25.9806 19.7598C26.0067 19.7859 26.0589 19.812 26.085 19.8381C26.1111 19.8642 26.1633 19.8903 26.1894 19.9164C26.2155 19.9425 26.2677 19.9686 26.3199 19.9947C26.346 20.0208 26.3982 20.0469 26.4243 20.073C26.4504 20.0991 26.4765 20.1252 26.5287 20.1252C26.5809 20.1513 26.6331 20.1774 26.6592 20.2035C26.6853 20.2035 26.7114 20.2296 26.7114 20.2296C26.7636 20.2556 26.8418 20.3078 26.894 20.3339C26.9201 20.3339 26.9201 20.36 26.9462 20.36C27.0245 20.3861 27.0767 20.4383 27.155 20.4644C27.1811 20.4644 27.1811 20.4905 27.2072 20.4905C27.2594 20.5166 27.3377 20.5427 27.416 20.5688C27.4421 20.5688 27.4682 20.5949 27.4943 20.5949C27.5465 20.621 27.5987 20.6471 27.677 20.6732H27.7031C27.964 20.7776 28.225 20.8298 28.486 20.9081H28.5121C28.8774 20.9864 29.2689 21.0125 29.6603 21.0125C32.8181 21.0125 35.4017 18.455 35.4017 15.2711C35.4017 18.4289 37.9853 21.0125 41.143 21.0125C44.3269 21.0125 46.8844 18.455 46.8844 15.2711V15.245C46.7017 18.4289 44.1703 20.882 41.0908 20.882Z" fill="#1A237E"/>
<path opacity="0.2" d="M33.4444 0.788314H33.4705L33.4444 0.527344H7.16466C5.75542 0.527344 4.55496 1.46684 4.1635 2.74559L0.901367 15.1417V15.3766L4.1635 3.00656C4.55496 1.72781 5.75542 0.788314 7.16466 0.788314H33.4444ZM43.5701 3.00656L46.8322 15.3766V15.1417L43.5701 2.74559C43.1786 1.46684 41.9781 0.527344 40.5689 0.527344H33.4444L33.4705 0.788314H40.5689C41.9781 0.788314 43.1786 1.72781 43.5701 3.00656Z" fill="white"/>
<path d="M34.8273 30.2795V32.5004H37.9172C37.6693 33.8209 36.5158 34.7812 34.8273 34.7812C32.9535 34.7812 31.4347 33.1972 31.4347 31.3234C31.4347 29.4496 32.9535 27.8655 34.8273 27.8655C35.6702 27.8655 36.427 28.1552 37.0221 28.7241L38.6688 27.0774C37.6745 26.1509 36.3748 25.582 34.8273 25.582C31.6565 25.582 29.0859 28.1526 29.0859 31.3234C29.0859 34.4942 31.6565 37.0647 34.8273 37.0647C38.1442 37.0647 40.339 34.7343 40.339 31.4539C40.339 31.0468 40.3025 30.6553 40.2346 30.2795H34.8273Z" fill="#EEEEEE"/>
<path d="M46.8322 15.1405L43.5701 2.74435C43.5701 2.69215 43.544 2.66606 43.5179 2.61386C43.4918 2.56167 43.4918 2.50947 43.4657 2.48338C43.4396 2.43118 43.4396 2.40509 43.4135 2.35289C43.3874 2.3007 43.3613 2.2746 43.3613 2.22241C43.3352 2.17021 43.3091 2.14412 43.3091 2.09192C43.283 2.03973 43.2569 2.01363 43.2308 1.96144C43.2047 1.93534 43.1786 1.88314 43.1525 1.85705C43.1264 1.80485 43.0742 1.75266 43.0481 1.72656C43.022 1.70047 42.9959 1.64827 42.9698 1.62217L42.8133 1.46559L42.735 1.3873C42.6828 1.3612 42.6567 1.30901 42.6045 1.28291L42.5262 1.20462C42.474 1.17852 42.4479 1.12633 42.3957 1.10023C42.3696 1.07414 42.3435 1.04804 42.2913 1.04804C42.2391 1.02194 42.1869 0.969747 42.1347 0.94365C42.1086 0.917553 42.0825 0.917553 42.0564 0.891456C41.9781 0.839262 41.8999 0.813165 41.8216 0.760971C41.7955 0.760971 41.7694 0.734873 41.7433 0.734873C41.6911 0.708776 41.6128 0.68268 41.5345 0.656582C41.5084 0.656582 41.4823 0.630485 41.4301 0.630485C41.3779 0.604388 41.2996 0.604389 41.2474 0.578291C41.2213 0.578291 41.1691 0.552194 41.143 0.552194C41.0908 0.552194 41.0126 0.526097 40.9343 0.526097H40.8299C40.7255 0.526097 40.6472 0.5 40.5428 0.5H7.16466C7.06027 0.5 6.95589 0.5 6.8776 0.526097H6.77321C6.69492 0.526097 6.64272 0.552194 6.56443 0.552194C6.53833 0.552194 6.48614 0.578291 6.46004 0.578291C6.40785 0.604389 6.32956 0.604388 6.27736 0.630485C6.25127 0.630485 6.22517 0.656582 6.17297 0.656582C6.09468 0.68268 6.04249 0.708776 5.9642 0.734873C5.9381 0.734873 5.912 0.760971 5.88591 0.760971C5.80762 0.787068 5.72932 0.839262 5.65103 0.891456C5.62494 0.917553 5.59884 0.917553 5.57274 0.94365C5.52055 0.969747 5.46835 0.995844 5.41616 1.04804C5.39006 1.07414 5.36397 1.10023 5.31177 1.10023C5.25958 1.12633 5.23348 1.15243 5.18129 1.20462L5.10299 1.28291C5.0508 1.30901 5.0247 1.3612 4.97251 1.3873L4.89422 1.46559L4.73764 1.62217C4.71154 1.64827 4.68544 1.70047 4.65934 1.72656C4.63325 1.77876 4.58105 1.83095 4.55496 1.85705C4.52886 1.88314 4.50276 1.93534 4.47667 1.96144C4.45057 2.01363 4.42447 2.03973 4.39837 2.09192C4.37228 2.11802 4.34618 2.17021 4.34618 2.19631C4.32008 2.2485 4.29399 2.2746 4.29399 2.32679C4.26789 2.37899 4.26789 2.40509 4.24179 2.45728C4.21569 2.50947 4.21569 2.56167 4.1896 2.61386C4.1635 2.63996 4.1635 2.69215 4.1374 2.71825L0.901367 15.1405C0.901367 17.3587 2.18012 19.316 4.03302 20.2555V37.062C4.03302 38.7844 5.44226 40.1936 7.16466 40.1936H40.5689C42.2913 40.1936 43.7006 38.7844 43.7006 37.062V20.2555C45.5534 19.316 46.8322 17.3587 46.8322 15.1405Z" fill="url(#paint1_radial_7635_21891)"/>
<defs>
<linearGradient id="paint0_linear_7635_21891" x1="12.772" y1="6.82992" x2="45.071" y2="39.1289" gradientUnits="userSpaceOnUse">
<stop stop-color="#1A237E" stop-opacity="0.2"/>
<stop offset="1" stop-color="#1A237E" stop-opacity="0.02"/>
</linearGradient>
<radialGradient id="paint1_radial_7635_21891" cx="0" cy="0" r="1" gradientUnits="userSpaceOnUse" gradientTransform="translate(23.8913 20.3328) scale(27.6573)">
<stop stop-color="white" stop-opacity="0.1"/>
<stop offset="1" stop-color="white" stop-opacity="0"/>
</radialGradient>
</defs>
</svg>
