<svg width="35" height="41" viewBox="0 0 35 41" fill="none" xmlns="http://www.w3.org/2000/svg">
<path d="M25.1299 5.23952L25.1299 35.0063C25.1299 38.3396 27.4273 40.193 29.8656 40.193C32.1207 40.193 34.6013 38.6144 34.6013 35.0063L34.6013 5.46503C34.6013 2.41366 32.3462 0.503906 29.8656 0.503906C27.385 0.503906 25.1299 2.61097 25.1299 5.23952Z" fill="#F8AB00"/>
<path d="M12.7275 20.3489L12.7275 35.0068C12.7276 38.34 15.0249 40.1934 17.4632 40.1934C19.7183 40.1934 22.1989 38.6149 22.1989 35.0068L22.1989 20.5744C22.1989 17.523 19.9438 15.6133 17.4632 15.6133C14.9826 15.6133 12.7275 17.7203 12.7275 20.3489Z" fill="#E37300"/>
<path d="M9.79268 35.4583C9.79268 38.0727 7.67149 40.1939 5.05699 40.1939C2.44249 40.1939 0.321293 38.0727 0.321291 35.4583C0.32129 32.8438 2.44249 30.7227 5.05698 30.7227C7.67148 30.7227 9.79268 32.8438 9.79268 35.4583Z" fill="#E37300"/>
</svg>
