<svg width="115" height="24" viewBox="0 0 115 24" fill="none" xmlns="http://www.w3.org/2000/svg">
<path d="M18.6699 7.25635L4.48325 13.923V0.429688H0.909912V23.523H4.48325V17.6564L18.6699 10.9897V23.5764H22.2432V0.429688H18.6699V7.25635Z" fill="#858FA1"/>
<path d="M97.1766 6.99057C97.2832 5.01724 100.483 3.52391 103.843 3.52391C107.203 3.52391 110.51 5.07057 110.51 7.09724H114.243C114.243 2.83057 109.55 0.00390625 103.897 0.00390625C98.1899 0.00390625 93.5499 2.77724 93.5499 7.09724V9.07057L110.777 17.2306C110.457 19.0972 107.257 20.4839 104.003 20.4839C100.59 20.4839 97.2299 18.9372 97.2299 16.9106H93.4966C93.4966 21.1772 98.2966 24.0039 104.003 24.0039C109.71 24.0039 114.51 21.2306 114.51 16.9106V15.0972L97.1766 6.99057Z" fill="#858FA1"/>
<path d="M67.4167 0.429688L58.6167 21.3364L49.8167 0.429688H45.9233L55.6833 23.523H61.55L71.31 0.429688H67.4167Z" fill="#858FA1"/>
<path d="M49.7631 23.5764L40.0031 0.429688H34.1365L24.3765 23.5764H28.2698L29.0698 21.7097L42.4565 15.4164L45.8698 23.5764H49.7631ZM37.0698 2.66969L41.1231 12.2697L31.0431 17.0164L37.0698 2.66969Z" fill="#858FA1"/>
<path d="M92.8565 23.5764L83.1499 0.429688H77.2832L67.5232 23.523H71.4165L72.2165 21.6564L85.6032 15.363L89.0165 23.523H92.8565V23.5764ZM80.2165 2.66969L84.2699 12.2697L74.1899 17.0164L80.2165 2.66969Z" fill="#858FA1"/>
</svg>
