<svg width="21" height="21" viewBox="0 0 21 21" fill="none" xmlns="http://www.w3.org/2000/svg">
<path fill-rule="evenodd" clip-rule="evenodd" d="M11.6312 20.2707L12.1954 19.3172C12.6325 18.5782 12.8511 18.2076 13.203 18.0036C13.5548 17.7986 13.9972 17.7913 14.8819 17.7757C16.1893 17.7538 17.0085 17.6737 17.6955 17.3885C18.3269 17.1269 18.9006 16.7435 19.3839 16.2603C19.8672 15.777 20.2506 15.2032 20.5121 14.5718C20.9087 13.6163 20.9087 12.4036 20.9087 9.97833V8.93744C20.9087 5.53059 20.9087 3.82665 20.1416 2.5755C19.7127 1.87518 19.1241 1.2863 18.4241 0.856982C17.1719 0.0898438 15.4679 0.0898438 12.0611 0.0898438H8.93841C5.53157 0.0898438 3.82763 0.0898438 2.57647 0.856982C1.87616 1.28587 1.28727 1.8744 0.857959 2.57446C0.0908203 3.82665 0.0908203 5.53163 0.0908203 8.93744V9.97833C0.0908203 12.4036 0.0908204 13.6163 0.48636 14.5718C0.748029 15.2033 1.13155 15.7771 1.61502 16.2604C2.09848 16.7437 2.67243 17.127 3.30406 17.3885C3.99105 17.6737 4.81023 17.7528 6.11759 17.7757C7.00235 17.7913 7.44473 17.7986 7.79655 18.0036C8.14734 18.2076 8.36696 18.5772 8.80414 19.3172L9.3683 20.2707C9.87106 21.1201 11.1274 21.1201 11.6312 20.2707ZM5.81573 8.12034C5.81573 9.94398 8.06719 11.8832 9.44845 12.9012C9.92102 13.2499 10.1573 13.4237 10.4998 13.4237C10.8422 13.4237 11.0785 13.2499 11.5511 12.9012C12.9323 11.8832 15.1838 9.94502 15.1838 8.12034C15.1838 5.33387 12.6076 4.29297 10.4998 6.44554C8.39194 4.29297 5.81573 5.33387 5.81573 8.12034Z" fill="#FF6726"/>
</svg>
