<svg width="41" height="41" viewBox="0 0 41 41" fill="none" xmlns="http://www.w3.org/2000/svg">
<g clip-path="url(#clip0_7635_21894)">
<path d="M13.6957 20.3448C13.6957 16.6916 16.6564 13.7293 20.3096 13.7293C23.9628 13.7293 26.9251 16.6916 26.9251 20.3448C26.9251 23.9979 23.9628 26.9602 20.3096 26.9602C16.6564 26.9602 13.6957 23.9979 13.6957 20.3448ZM10.1196 20.3448C10.1196 25.9727 14.6816 30.5348 20.3096 30.5348C25.9376 30.5348 30.4997 25.9727 30.4997 20.3448C30.4997 14.7168 25.9376 10.1547 20.3096 10.1547C14.6816 10.1547 10.1196 14.7168 10.1196 20.3448ZM28.5217 9.75068C28.5215 10.2217 28.661 10.6821 28.9225 11.0739C29.184 11.4656 29.5558 11.7709 29.9909 11.9514C30.4259 12.1318 30.9047 12.1791 31.3667 12.0874C31.8287 11.9957 32.2531 11.7691 32.5863 11.4362C32.9194 11.1033 33.1464 10.679 33.2385 10.2171C33.3306 9.75524 33.2836 9.27641 33.1035 8.8412C32.9235 8.40599 32.6184 8.03394 32.2269 7.77212C31.8354 7.51029 31.375 7.37044 30.904 7.37026H30.9031C30.2717 7.37055 29.6663 7.62141 29.2198 8.06773C28.7733 8.51406 28.5222 9.11935 28.5217 9.75068V9.75068ZM12.2923 36.4979C10.3575 36.4098 9.30592 36.0875 8.60707 35.8153C7.68056 35.4546 7.01949 35.025 6.32445 34.3309C5.6294 33.6368 5.19917 32.9763 4.84006 32.0498C4.56763 31.3513 4.24535 30.2994 4.1574 28.3646C4.06119 26.2728 4.04198 25.6444 4.04198 20.3449C4.04198 15.0454 4.06278 14.4188 4.1574 12.3253C4.24551 10.3905 4.57017 9.3406 4.84006 8.64C5.20076 7.71349 5.63036 7.05242 6.32445 6.35738C7.01854 5.66234 7.67897 5.2321 8.60707 4.87299C9.30561 4.60056 10.3575 4.27828 12.2923 4.19033C14.3841 4.09412 15.0125 4.07491 20.3096 4.07491C25.6067 4.07491 26.2357 4.09571 28.3293 4.19033C30.2641 4.27844 31.3139 4.6031 32.0145 4.87299C32.941 5.2321 33.6021 5.66329 34.2971 6.35738C34.9922 7.05147 35.4208 7.71349 35.7815 8.64C36.054 9.33854 36.3762 10.3905 36.4642 12.3253C36.5604 14.4188 36.5796 15.0454 36.5796 20.3449C36.5796 25.6444 36.5604 26.271 36.4642 28.3646C36.3761 30.2994 36.0522 31.351 35.7815 32.0498C35.4208 32.9763 34.9912 33.6374 34.2971 34.3309C33.6031 35.0243 32.941 35.4546 32.0145 35.8153C31.316 36.0877 30.2641 36.41 28.3293 36.4979C26.2375 36.5941 25.6091 36.6133 20.3096 36.6133C15.0101 36.6133 14.3835 36.5941 12.2923 36.4979V36.4979ZM12.128 0.62018C10.0154 0.716387 8.57183 1.05137 7.31113 1.54193C6.0055 2.04853 4.90023 2.72817 3.79575 3.8309C2.69127 4.93364 2.01337 6.04066 1.50677 7.34628C1.01621 8.60778 0.681231 10.0506 0.585024 12.1632C0.487229 14.2791 0.464844 14.9556 0.464844 20.3448C0.464844 25.734 0.487229 26.4104 0.585024 28.5264C0.681231 30.6391 1.01621 32.0817 1.50677 33.3432C2.01337 34.6481 2.69143 35.7564 3.79575 36.8586C4.90007 37.9609 6.0055 38.6396 7.31113 39.1476C8.57421 39.6382 10.0154 39.9731 12.128 40.0693C14.245 40.1655 14.9204 40.1895 20.3096 40.1895C25.6988 40.1895 26.3753 40.1671 28.4912 40.0693C30.604 39.9731 32.0466 39.6382 33.3081 39.1476C34.6129 38.6396 35.719 37.9614 36.8235 36.8586C37.9279 35.7559 38.6044 34.6481 39.1124 33.3432C39.603 32.0817 39.9396 30.639 40.0342 28.5264C40.1304 26.4088 40.1528 25.734 40.1528 20.3448C40.1528 14.9556 40.1304 14.2791 40.0342 12.1632C39.938 10.0504 39.603 8.60698 39.1124 7.34628C38.6044 6.04145 37.9262 4.93538 36.8235 3.8309C35.7207 2.72642 34.6129 2.04853 33.3097 1.54193C32.0466 1.05137 30.6038 0.7148 28.4928 0.62018C26.3769 0.523972 25.7004 0.5 20.3112 0.5C14.922 0.5 14.245 0.522385 12.128 0.62018Z" fill="url(#paint0_radial_7635_21894)"/>
<path d="M13.6957 20.3448C13.6957 16.6916 16.6564 13.7293 20.3096 13.7293C23.9628 13.7293 26.9251 16.6916 26.9251 20.3448C26.9251 23.9979 23.9628 26.9602 20.3096 26.9602C16.6564 26.9602 13.6957 23.9979 13.6957 20.3448ZM10.1196 20.3448C10.1196 25.9727 14.6816 30.5348 20.3096 30.5348C25.9376 30.5348 30.4997 25.9727 30.4997 20.3448C30.4997 14.7168 25.9376 10.1547 20.3096 10.1547C14.6816 10.1547 10.1196 14.7168 10.1196 20.3448ZM28.5217 9.75068C28.5215 10.2217 28.661 10.6821 28.9225 11.0739C29.184 11.4656 29.5558 11.7709 29.9909 11.9514C30.4259 12.1318 30.9047 12.1791 31.3667 12.0874C31.8287 11.9957 32.2531 11.7691 32.5863 11.4362C32.9194 11.1033 33.1464 10.679 33.2385 10.2171C33.3306 9.75524 33.2836 9.27641 33.1035 8.8412C32.9235 8.40599 32.6184 8.03394 32.2269 7.77212C31.8354 7.51029 31.375 7.37044 30.904 7.37026H30.9031C30.2717 7.37055 29.6663 7.62141 29.2198 8.06773C28.7733 8.51406 28.5222 9.11935 28.5217 9.75068V9.75068ZM12.2923 36.4979C10.3575 36.4098 9.30592 36.0875 8.60707 35.8153C7.68056 35.4546 7.01949 35.025 6.32445 34.3309C5.6294 33.6368 5.19917 32.9763 4.84006 32.0498C4.56763 31.3513 4.24535 30.2994 4.1574 28.3646C4.06119 26.2728 4.04198 25.6444 4.04198 20.3449C4.04198 15.0454 4.06278 14.4188 4.1574 12.3253C4.24551 10.3905 4.57017 9.3406 4.84006 8.64C5.20076 7.71349 5.63036 7.05242 6.32445 6.35738C7.01854 5.66234 7.67897 5.2321 8.60707 4.87299C9.30561 4.60056 10.3575 4.27828 12.2923 4.19033C14.3841 4.09412 15.0125 4.07491 20.3096 4.07491C25.6067 4.07491 26.2357 4.09571 28.3293 4.19033C30.2641 4.27844 31.3139 4.6031 32.0145 4.87299C32.941 5.2321 33.6021 5.66329 34.2971 6.35738C34.9922 7.05147 35.4208 7.71349 35.7815 8.64C36.054 9.33854 36.3762 10.3905 36.4642 12.3253C36.5604 14.4188 36.5796 15.0454 36.5796 20.3449C36.5796 25.6444 36.5604 26.271 36.4642 28.3646C36.3761 30.2994 36.0522 31.351 35.7815 32.0498C35.4208 32.9763 34.9912 33.6374 34.2971 34.3309C33.6031 35.0243 32.941 35.4546 32.0145 35.8153C31.316 36.0877 30.2641 36.41 28.3293 36.4979C26.2375 36.5941 25.6091 36.6133 20.3096 36.6133C15.0101 36.6133 14.3835 36.5941 12.2923 36.4979V36.4979ZM12.128 0.62018C10.0154 0.716387 8.57183 1.05137 7.31113 1.54193C6.0055 2.04853 4.90023 2.72817 3.79575 3.8309C2.69127 4.93364 2.01337 6.04066 1.50677 7.34628C1.01621 8.60778 0.681231 10.0506 0.585024 12.1632C0.487229 14.2791 0.464844 14.9556 0.464844 20.3448C0.464844 25.734 0.487229 26.4104 0.585024 28.5264C0.681231 30.6391 1.01621 32.0817 1.50677 33.3432C2.01337 34.6481 2.69143 35.7564 3.79575 36.8586C4.90007 37.9609 6.0055 38.6396 7.31113 39.1476C8.57421 39.6382 10.0154 39.9731 12.128 40.0693C14.245 40.1655 14.9204 40.1895 20.3096 40.1895C25.6988 40.1895 26.3753 40.1671 28.4912 40.0693C30.604 39.9731 32.0466 39.6382 33.3081 39.1476C34.6129 38.6396 35.719 37.9614 36.8235 36.8586C37.9279 35.7559 38.6044 34.6481 39.1124 33.3432C39.603 32.0817 39.9396 30.639 40.0342 28.5264C40.1304 26.4088 40.1528 25.734 40.1528 20.3448C40.1528 14.9556 40.1304 14.2791 40.0342 12.1632C39.938 10.0504 39.603 8.60698 39.1124 7.34628C38.6044 6.04145 37.9262 4.93538 36.8235 3.8309C35.7207 2.72642 34.6129 2.04853 33.3097 1.54193C32.0466 1.05137 30.6038 0.7148 28.4928 0.62018C26.3769 0.523972 25.7004 0.5 20.3112 0.5C14.922 0.5 14.245 0.522385 12.128 0.62018Z" fill="url(#paint1_radial_7635_21894)"/>
</g>
<defs>
<radialGradient id="paint0_radial_7635_21894" cx="0" cy="0" r="1" gradientUnits="userSpaceOnUse" gradientTransform="translate(5.73783 40.377) scale(51.8113 51.8113)">
<stop offset="0.09" stop-color="#FA8F21"/>
<stop offset="0.78" stop-color="#D82D7E"/>
</radialGradient>
<radialGradient id="paint1_radial_7635_21894" cx="0" cy="0" r="1" gradientUnits="userSpaceOnUse" gradientTransform="translate(24.5348 42.1551) scale(40.8345 40.8345)">
<stop offset="0.64" stop-color="#8C3AAA" stop-opacity="0"/>
<stop offset="1" stop-color="#8C3AAA"/>
</radialGradient>
<clipPath id="clip0_7635_21894">
<rect width="39.6895" height="39.6895" fill="white" transform="translate(0.464844 0.5)"/>
</clipPath>
</defs>
</svg>
