<svg width="112" height="32" viewBox="0 0 112 32" fill="none" xmlns="http://www.w3.org/2000/svg">
<path d="M100.655 31.5271V9.29823L105.734 9.33503V11.6168L105.716 12.2793C105.992 11.12 107.869 9.11422 111.328 8.875V14.2114C108.807 14.377 106.028 15.1131 105.936 18.959V31.5455L100.655 31.5271Z" fill="#9AA2B0"/>
<path d="M41.0517 31.9877C34.7033 31.9877 29.5325 26.817 29.5325 20.4685C29.5325 14.12 34.7033 8.94922 41.0517 8.94922C47.4002 8.94922 52.571 14.12 52.571 20.4685C52.571 26.817 47.4002 31.9877 41.0517 31.9877ZM41.2357 13.9912C37.6659 13.9912 34.7585 16.8986 34.7585 20.4685C34.7585 24.0384 37.6659 26.9458 41.2357 26.9458C44.8056 26.9458 47.713 24.0384 47.713 20.4685C47.6946 16.8986 44.8056 13.9912 41.2357 13.9912Z" fill="#9AA2B0"/>
<path d="M65.6367 32C62.9685 31.9632 61.1651 31.3928 59.325 29.6262L59.3618 29.6078L59.233 31.5584H54.3934V5.24439L59.6562 0L59.6378 11.2801L59.6562 11.2432C61.0363 9.91835 63.2445 8.96147 65.7655 8.96147H65.8207C71.6355 8.96147 76.5487 14.2427 76.5487 20.4807C76.5487 23.4986 75.3526 26.3876 73.1812 28.6141C71.1019 30.7487 68.3969 31.9816 65.7655 32H65.6367ZM65.011 14.0035C62.8949 14.0035 60.9075 15.0339 59.693 16.7821L59.6378 16.8557V24.0874L59.693 24.161C60.9075 25.9091 62.8949 26.9396 65.011 26.9396C68.5809 26.9396 71.4883 24.0322 71.4883 20.4623C71.4699 16.8925 68.5809 14.0035 65.011 14.0035Z" fill="#9AA2B0"/>
<path d="M85.491 31.8311C80.7251 31.8311 77.3944 28.9973 77.3944 24.949C77.3944 20.367 80.9643 17.9564 87.6992 17.9564H92.5571V17.1284C92.5571 15.1962 90.809 13.2089 87.8648 13.2089C85.767 13.2089 83.9269 13.8345 82.8964 14.9018L80.0442 12.0496C80.3754 11.7 80.7435 11.3871 81.1299 11.0927C82.9884 9.71262 85.3806 8.97656 88.0856 8.97656C93.9188 8.97656 97.6727 12.1784 97.6727 17.1284V31.5735H92.6492V29.4389L92.1523 29.9357C90.3858 31.6839 88.3616 31.8311 85.491 31.8311ZM87.828 21.7287C84.4789 21.7287 82.786 22.7592 82.786 24.8017C82.786 26.5683 84.3133 27.7092 86.6503 27.7092C90.2386 27.7092 92.5571 25.8322 92.5571 22.9248V21.7287H87.828Z" fill="#9AA2B0"/>
<path d="M6.38212 9.32812H1.22974V31.557H6.38212V9.32812Z" fill="#9AA2B0"/>
<path d="M3.77088 6.36397C2.18836 6.36397 0.900269 5.07587 0.900269 3.47495C0.900269 1.89243 2.18836 0.585938 3.77088 0.585938C5.3534 0.585938 6.6599 1.87403 6.6599 3.47495C6.6599 5.07587 5.3718 6.36397 3.77088 6.36397Z" fill="#9AA2B0"/>
<path d="M11.3696 25.2896C13.4858 26.8722 15.6387 27.5714 18.6749 27.5714C22.1344 27.5714 23.6985 26.5409 23.6985 25.0136C23.6985 23.4127 22.1712 22.7134 17.9757 22.3454C12.4737 21.8486 8.81181 20.2845 8.81181 15.6105C8.81181 11.5806 12.7129 8.94922 18.1045 8.94922C21.7296 8.94922 25.097 10.1821 27.7284 12.3535C27.7652 12.3719 27.7836 12.4087 27.8204 12.4271L24.7842 15.5553C22.9625 14.1568 20.6255 13.384 17.8837 13.384C15.0867 13.384 13.5594 14.212 13.5594 15.4449C13.5594 16.7698 14.7923 17.4139 18.5277 17.7819C24.2874 18.3523 28.4461 20.2109 28.4461 24.94C28.4461 29.43 24.2506 32.0061 18.6197 32.0061C14.553 32.0061 11.296 31.0125 8.33337 28.5467C8.29657 28.5283 8.27817 28.4915 8.25977 28.4731L11.3696 25.2896Z" fill="#9AA2B0"/>
</svg>
