<svg width="40" height="41" viewBox="0 0 40 41" fill="none" xmlns="http://www.w3.org/2000/svg">
<g clip-path="url(#clip0_7635_21897)">
<path d="M36.8052 0.5H2.97924C1.36423 0.5 0.0517578 1.78121 0.0517578 3.36172V37.3256C0.0517578 38.9061 1.36423 40.1895 2.97924 40.1895H36.8052C38.4234 40.1895 39.7413 38.9061 39.7413 37.3256V3.36172C39.7413 1.78121 38.4234 0.5 36.8052 0.5Z" fill="#2668B2"/>
<path d="M5.93211 15.3801H11.8248V34.3205H5.93211V15.3801ZM8.88006 5.96484C9.55521 5.96511 10.2151 6.16556 10.7764 6.54084C11.3376 6.91612 11.7749 7.44939 12.0331 8.07321C12.2913 8.69704 12.3587 9.3834 12.2268 10.0455C12.0949 10.7076 11.7696 11.3158 11.2921 11.7931C10.8146 12.2704 10.2063 12.5953 9.54407 12.7269C8.88186 12.8585 8.19551 12.7908 7.57179 12.5323C6.94807 12.2739 6.415 11.8363 6.03997 11.2749C5.66494 10.7135 5.46479 10.0535 5.46484 9.37836C5.46493 8.92998 5.55334 8.48601 5.72502 8.0718C5.89671 7.65759 6.1483 7.28125 6.46543 6.96427C6.78257 6.6473 7.15903 6.39589 7.57334 6.2244C7.98764 6.05292 8.43166 5.96472 8.88006 5.96484" fill="white"/>
<path d="M15.5176 15.3801H21.1605V17.9694H21.2412C22.0261 16.4804 23.9469 14.9102 26.8109 14.9102C32.7713 14.9102 33.8728 18.8319 33.8728 23.933V34.3205H27.9866V25.1098C27.9866 22.9134 27.9489 20.0878 24.9278 20.0878C21.8646 20.0878 21.3973 22.4817 21.3973 24.9526V34.3205H15.5176V15.3801Z" fill="white"/>
</g>
<defs>
<clipPath id="clip0_7635_21897">
<rect width="39.6895" height="39.6895" fill="white" transform="translate(0.0517578 0.5)"/>
</clipPath>
</defs>
</svg>
