<svg width="76" height="29" viewBox="0 0 76 29" fill="none" xmlns="http://www.w3.org/2000/svg">
<g clip-path="url(#clip0_7635_21918)">
<path d="M34.8272 9.51692C35.2698 8.7183 35.6978 7.95164 36.1242 7.18178C37.2284 5.18631 38.33 3.19085 39.4289 1.19538C39.457 1.1223 39.5079 1.06025 39.574 1.0185C39.6403 0.976756 39.7183 0.957562 39.7962 0.963786C40.5523 0.976565 41.3068 0.976565 42.0596 0.963786C42.2624 0.963786 42.312 1.02448 42.312 1.21934C42.3056 5.75226 42.3056 10.2847 42.312 14.8166C42.312 15.0162 42.256 15.0752 42.0579 15.0705C41.4733 15.0592 40.8904 15.0545 40.301 15.0705C40.0582 15.0705 40.0024 15.0018 40.0024 14.767C40.0108 11.4416 40.0108 8.11509 40.0024 4.78755C40.0208 4.65397 40.0037 4.5179 39.9528 4.39303C39.8666 4.54476 39.793 4.66774 39.7244 4.79393C38.4849 7.03005 37.2407 9.25018 36.0108 11.4831C35.9736 11.5736 35.9077 11.6493 35.823 11.6984C35.7383 11.7474 35.6399 11.7672 35.5429 11.7546C35.0302 11.7371 34.5158 11.7386 34.0047 11.7546C33.9125 11.7667 33.8189 11.748 33.7383 11.7015C33.6579 11.655 33.5948 11.5834 33.5591 11.4975C32.2877 9.19535 31.0099 6.89694 29.7258 4.60226C29.6842 4.52017 29.6219 4.45027 29.5453 4.39941V4.69809C29.5453 8.04375 29.5453 11.3905 29.5453 14.7383C29.5453 14.9922 29.5021 15.0864 29.2259 15.0737C28.6636 15.0497 28.0998 15.056 27.536 15.0737C27.3107 15.0737 27.2485 15.0162 27.25 14.7877C27.2596 12.9988 27.25 11.21 27.25 9.42109C27.25 6.7058 27.25 3.99053 27.25 1.27525C27.25 1.02608 27.3107 0.9558 27.5695 0.9558C28.293 0.971773 29.0182 0.974967 29.7417 0.9558C29.8482 0.944612 29.9555 0.968717 30.047 1.02441C30.1385 1.08011 30.2091 1.16431 30.248 1.26406C31.7154 3.9261 33.1886 6.58815 34.6676 9.25018C34.7155 9.33164 34.7618 9.40671 34.8272 9.51692Z" fill="#5D6A82"/>
<path d="M71.7799 5.81987C71.7799 5.43654 71.7799 5.08675 71.7799 4.73856C71.7799 4.5996 71.8134 4.54529 71.9636 4.54689C72.5674 4.55487 73.1711 4.55806 73.7732 4.54689C73.9905 4.54689 73.9553 4.67466 73.9553 4.80085V7.69181C73.9553 10.0541 73.9553 12.4148 73.9553 14.7755C73.9553 15.0167 73.8898 15.0805 73.6551 15.0726C73.112 15.0566 72.5689 15.0598 72.0259 15.0726C71.8358 15.0726 71.7607 15.0326 71.7703 14.8251C71.7879 14.4561 71.7703 14.0856 71.7703 13.707C71.6538 13.707 71.6377 13.8013 71.5915 13.8571C69.9607 15.8169 66.7359 15.8313 64.963 13.8843C64.1216 12.9405 63.627 11.7383 63.5606 10.4758C63.4264 8.7955 63.7347 7.22862 64.8591 5.90772C66.4356 4.05814 69.3713 3.74827 71.1618 5.23369C71.3614 5.40619 71.5468 5.60265 71.7799 5.81987ZM71.7368 9.81293C71.7368 9.36092 71.7368 8.90891 71.7368 8.45689C71.7422 8.34841 71.7265 8.23991 71.6905 8.13745C70.9686 6.29265 68.3075 5.71286 66.8301 7.04175C65.4869 8.25085 65.5667 10.9565 66.3892 12.1001C66.4484 12.1816 66.5059 12.2599 66.5697 12.3413C67.5105 13.4785 69.4256 13.6574 70.697 12.7151C71.3727 12.2151 71.847 11.597 71.7415 10.6882C71.724 10.3978 71.7224 10.1067 71.7368 9.81612V9.81293Z" fill="#5D6A82"/>
<path d="M50.4477 10.6373C49.2513 10.6373 48.0517 10.6373 46.857 10.6373C46.6334 10.6373 46.5919 10.6868 46.643 10.9072C47.0247 12.5699 48.3154 13.5091 50.0212 13.3957C51.0529 13.327 51.9665 13.0092 52.7285 12.3016C52.8562 12.1833 52.9137 12.2169 53.0063 12.3335C53.3067 12.7104 53.607 13.089 53.928 13.4516C54.0877 13.624 54.059 13.7136 53.8896 13.8541C52.5192 14.9961 50.9299 15.4178 49.1747 15.3139C46.3859 15.1383 44.3446 12.9613 44.3206 9.97124C44.3095 8.59283 44.6017 7.31185 45.4595 6.21137C46.6287 4.70997 48.2162 4.16053 50.0723 4.33622C52.2908 4.54227 53.6964 6.14109 54.1563 8.25422C54.2952 8.97501 54.3562 9.7086 54.3384 10.4424C54.3384 10.6724 54.2107 10.6421 54.0686 10.6421L50.4477 10.6373ZM49.3647 8.96818C50.2081 8.96818 51.0529 8.96818 51.8979 8.96818C52.0576 8.96818 52.1263 8.94422 52.1103 8.75415C51.9506 6.76241 49.911 5.61081 48.154 6.54678C47.2979 7.00359 46.8762 7.77984 46.6446 8.69665C46.5919 8.91707 46.635 8.97297 46.8602 8.96978C47.6956 8.9538 48.5293 8.96818 49.3647 8.96818Z" fill="#5D6A82"/>
<path d="M0.68073 7.24635C0.748294 6.74812 0.87649 6.26 1.06247 5.79288C1.34212 4.99814 1.69448 4.23089 2.11504 3.50086C2.62926 2.63103 3.33434 1.88936 4.17706 1.33183C4.84754 0.880286 5.6233 0.609597 6.42915 0.545997C7.81715 0.405441 8.90806 0.935719 9.92868 1.74551C10.5009 2.22082 11.0203 2.75631 11.478 3.34273C11.553 3.43378 11.6074 3.55038 11.74 3.57753V3.64461C12.1041 4.12378 12.4091 4.64448 12.8164 5.09169C12.8407 5.15599 12.8695 5.21844 12.9028 5.27857C13.3372 5.93023 13.7428 6.59788 14.1454 7.26871C14.7683 8.3085 15.4039 9.3451 16.0332 10.3769C15.9382 10.5042 15.8902 10.6606 15.8975 10.8193C15.8975 11.0861 15.8592 11.3528 15.8416 11.6179C15.8416 11.7058 15.8144 11.7904 15.7106 11.7777C15.4567 11.7457 15.2571 11.9134 15.0286 11.9534C14.7012 12.0092 14.4153 12.0588 14.5239 12.498C14.5239 12.498 14.5095 12.5108 14.5016 12.5172C14.0674 11.9297 13.6695 11.3163 13.31 10.6804C12.6855 9.62462 12.0642 8.56725 11.3757 7.54982C11.0979 6.93809 10.6778 6.41579 10.3248 5.85198C10.3088 5.82482 10.2545 5.82163 10.2178 5.80725C10.2178 5.7769 10.2178 5.74017 10.2098 5.7194C9.59007 4.83933 8.95437 3.97044 8.03437 3.36988C7.0329 2.71503 5.95797 2.79968 5.06353 3.58392C4.73973 3.86977 4.45414 4.19616 4.2138 4.55503C3.75699 5.22427 3.4647 5.97017 3.174 6.71767C2.84338 6.71767 2.49677 6.80232 2.39775 6.30719C2.35782 6.10594 1.75886 6.10753 1.67421 6.2976C1.58955 6.48767 1.40907 6.66815 1.47455 6.92211C1.49532 7.00677 1.45379 7.09142 1.34038 7.05788C1.22698 7.02434 1.16788 6.99239 1.20462 6.84544C1.33559 6.32794 1.55442 5.82323 1.47934 5.26898C1.54004 5.261 1.59594 5.24823 1.58955 5.16996C1.58955 5.15559 1.56559 5.13163 1.55761 5.13323C1.48573 5.14919 1.48733 5.21309 1.47934 5.26898C1.30205 5.42871 1.31962 5.6635 1.24136 5.85517C1.09416 6.18404 0.986911 6.52938 0.921911 6.88378C0.878786 7.12336 0.84205 7.38371 0.632812 7.5594C0.637605 7.45398 0.725451 7.35815 0.68073 7.24635Z" fill="#3C67DA"/>
<path d="M57.0898 9.39411C57.0898 8.49966 57.0818 7.60522 57.0898 6.71076C57.0898 6.48076 57.0227 6.42167 56.8006 6.42806C56.2688 6.44243 55.7353 6.42806 55.2035 6.42806C55.0309 6.42806 54.9798 6.37855 54.9847 6.20764C54.9943 5.72847 54.9975 5.2493 54.9847 4.76055C54.9847 4.55771 55.0613 4.53535 55.2322 4.53855C55.7753 4.54653 56.3184 4.53855 56.8614 4.54653C57.053 4.54653 57.0945 4.48743 57.093 4.30695C57.0834 3.46361 57.093 2.61868 57.0834 1.77535C57.0834 1.55333 57.1185 1.4559 57.3756 1.46549C57.9379 1.48785 58.5018 1.47986 59.064 1.46549C59.2508 1.46549 59.3036 1.51819 59.3019 1.70187C59.2924 2.56597 59.3019 3.43007 59.2924 4.29417C59.2924 4.49701 59.353 4.54493 59.5463 4.54174C60.4424 4.53216 61.3368 4.54174 62.2312 4.53216C62.4485 4.53216 62.5028 4.59445 62.4964 4.80368C62.4826 5.26581 62.4826 5.72794 62.4964 6.19007C62.4964 6.37855 62.4406 6.42646 62.2584 6.42486C61.3736 6.42486 60.4871 6.42486 59.6022 6.42486C59.3834 6.42486 59.2828 6.45841 59.2908 6.71397C59.3051 8.22174 59.2908 9.72953 59.3004 11.2357C59.2935 11.6176 59.3474 11.9983 59.4601 12.3633C59.6437 12.924 60.0414 13.2098 60.6101 13.2849C61.1504 13.3446 61.6964 13.3258 62.2312 13.229C62.4117 13.2003 62.5028 13.2179 62.4932 13.443C62.4757 13.9046 62.4932 14.3679 62.4932 14.8295C62.4932 14.9588 62.4932 15.0546 62.3255 15.0946C61.324 15.3294 60.3162 15.4045 59.3147 15.1233C58.037 14.7639 57.398 13.8328 57.1824 12.579C57.0083 11.5823 57.1153 10.5745 57.0881 9.5714C57.0881 9.5139 57.0898 9.44841 57.0898 9.39411Z" fill="#5D6A82"/>
<path d="M10.2158 5.80469C10.2525 5.81906 10.3068 5.82226 10.3228 5.8494C10.6758 6.41163 11.0959 6.93552 11.3738 7.54407C10.4857 9.04705 9.69031 10.6059 8.73038 12.0658C8.09148 13.0401 7.41107 13.9825 6.44155 14.6772C6.28274 14.8106 6.10009 14.9124 5.90328 14.9776L5.8394 15.0143L5.74197 15.043C5.64134 15.043 5.51037 14.9791 5.47203 15.1485L5.44647 15.1596H5.41772L5.36182 15.1836C4.77884 15.3241 4.18946 15.2587 3.60487 15.2251C3.57772 15.0526 3.44515 15.043 3.31098 15.0383C3.21091 15.0445 3.1109 15.0253 3.02029 14.9823C2.69379 14.7979 2.38478 14.5841 2.09709 14.3435C1.71585 14.0089 1.37926 13.6268 1.09563 13.2062C0.839758 12.8136 0.680986 12.3658 0.632431 11.8997C0.800063 11.6903 0.903271 11.4367 0.929515 11.1698C0.939099 11.1027 0.971043 11.01 0.859237 10.9621C0.754412 11.0698 0.695932 11.2143 0.69632 11.3646C0.69632 11.4573 0.729862 11.577 0.578125 11.5962V11.1762L0.654792 9.16684H0.758612C0.758612 9.48629 0.758612 9.80573 0.758612 10.1252C0.758612 10.2945 0.726668 10.5005 1.02056 10.4191C1.10681 10.3951 1.1116 10.4686 1.11959 10.5293C1.12757 10.59 1.11959 10.6682 1.19945 10.6602C1.27931 10.6523 1.29848 10.5692 1.29848 10.5005C1.29848 10.32 1.29848 10.1396 1.29848 9.95907C1.29848 9.8808 1.25535 9.74823 1.3975 9.75462C1.50771 9.75462 1.47417 9.87761 1.47577 9.95108C1.47577 10.3121 1.47577 10.673 1.47577 11.034C1.47577 11.1234 1.4614 11.2544 1.57 11.2592C1.70896 11.2592 1.64507 11.125 1.65306 11.0484C1.66184 10.9383 1.66184 10.8278 1.65306 10.7177C1.64028 10.5245 1.72813 10.4462 1.9214 10.4526C2.1514 10.4526 2.383 10.4526 2.613 10.4526C2.6705 10.9909 2.71841 11.5323 2.97397 12.0258C3.11511 12.3356 3.35684 12.5884 3.65988 12.7432C3.96292 12.898 4.30943 12.9458 4.64307 12.8788C5.25322 12.7877 5.67488 12.3997 6.05023 11.9636C7.03092 10.812 7.78003 9.50067 8.60579 8.24205C9.15204 7.42906 9.64559 6.59052 10.2158 5.80469Z" fill="#4A81F5"/>
<path d="M12.8187 5.0905C12.4114 4.64329 12.1063 4.121 11.7422 3.64342C12.0824 3.82391 11.9482 3.27446 12.2118 3.33835V3.01891C12.4321 2.61641 12.7868 2.3337 13.0982 2.01106C13.5774 1.50953 14.1205 1.05273 14.7785 0.824323C16.1426 0.345157 17.4667 0.455365 18.6933 1.26356C19.4787 1.79303 20.1479 2.4773 20.6596 3.27446C20.6915 3.33579 20.7177 3.39996 20.7377 3.46613C20.6717 3.4819 20.6117 3.51684 20.5654 3.56657C20.5191 3.61629 20.4885 3.67859 20.4774 3.74565C20.4963 3.81114 20.5378 3.86782 20.5945 3.90555C20.6513 3.9433 20.7196 3.95964 20.7873 3.95169C20.7873 4.08106 20.7761 4.21204 20.9694 4.19287V4.43404C20.8241 4.48995 20.6371 4.45641 20.5398 4.60335C20.4423 4.75029 20.3002 4.74391 20.1484 4.71675C19.8321 4.63975 19.5006 4.6508 19.19 4.7487C18.9825 4.44204 18.7892 4.12419 18.5639 3.8335C18.0848 3.22016 17.513 2.72502 16.7447 2.52058C15.5787 2.21071 14.7322 2.77134 13.9879 3.57475C13.5667 4.05495 13.1763 4.56121 12.8187 5.0905Z" fill="#4A81F4"/>
<path d="M4.65001 23.7081C4.9001 23.7816 5.12737 23.9175 5.31039 24.103C5.49343 24.2885 5.6262 24.5177 5.6962 24.7687C6.01565 25.9203 5.3512 26.9361 4.15008 27.016C3.15821 27.0815 2.16153 27.04 1.16646 27.0511C1.00674 27.0511 0.984375 26.984 0.984375 26.8498C0.984375 24.7725 0.984375 22.696 0.984375 20.6207C0.984375 20.461 1.04667 20.4147 1.1984 20.4162C2.07369 20.4162 2.95535 20.3875 3.82106 20.4275C5.28891 20.4945 6.07634 21.8825 5.34801 23.0708C5.26443 23.2101 5.15618 23.333 5.02856 23.4334C4.91676 23.5181 4.79537 23.6028 4.65001 23.7081ZM2.91542 26.2637V26.2493C3.23487 26.2493 3.55431 26.2733 3.87376 26.2493C4.55258 26.1871 4.92633 25.7094 4.85606 25.0322C4.80016 24.4891 4.41203 24.1234 3.79071 24.0914C3.19973 24.0595 2.60716 24.0818 2.01619 24.0723C1.86765 24.0723 1.82931 24.1297 1.8309 24.2672C1.8309 24.8694 1.8309 25.4699 1.8309 26.0705C1.8309 26.2301 1.8916 26.2765 2.04174 26.2716C2.33404 26.2652 2.62473 26.2701 2.91542 26.2701V26.2637ZM2.88188 21.1893C2.56244 21.1893 2.28292 21.1893 2.01299 21.1893C1.88681 21.1893 1.8325 21.2292 1.8341 21.3618C1.8341 21.9831 1.8341 22.6045 1.8341 23.2257C1.8341 23.3121 1.8341 23.3951 1.9539 23.3855C2.60396 23.3647 3.26202 23.4653 3.90251 23.3089C4.43279 23.1778 4.70112 22.7913 4.68835 22.2466C4.6939 22.0035 4.61147 21.7665 4.45624 21.5794C4.301 21.3921 4.08339 21.2672 3.84341 21.2277C3.50321 21.1589 3.1646 21.2164 2.88188 21.1957V21.1893Z" fill="#5D6A82"/>
<path d="M41.5484 23.711C41.5484 22.7064 41.5484 21.7032 41.5484 20.6986C41.5484 20.475 41.6107 20.4032 41.8376 20.4064C42.692 20.4191 43.5466 20.4064 44.3931 20.4064C45.7475 20.4239 46.5206 21.3438 46.2555 22.6073C46.0846 23.4219 45.3914 23.9313 44.4202 23.9458C43.8373 23.9538 43.2543 23.9553 42.6713 23.9458C42.486 23.9458 42.4333 23.9905 42.4365 24.179C42.446 25.0319 42.4365 25.8864 42.4445 26.7345C42.4445 26.9613 42.3981 27.054 42.149 27.054C41.5484 27.0427 41.5469 27.054 41.5469 26.4502L41.5484 23.711ZM43.4826 23.2158V23.1982C43.8018 23.2157 44.1218 23.2157 44.441 23.1982C45.0799 23.1296 45.3993 22.7302 45.3674 22.1265C45.3338 21.5707 44.9505 21.2177 44.3436 21.2049C43.7814 21.1938 43.2255 21.2049 42.6569 21.2049C42.4844 21.2049 42.4317 21.2561 42.4349 21.427C42.4445 21.9477 42.4445 22.4699 42.4349 22.9907C42.4349 23.1695 42.4732 23.2446 42.6665 23.2333C42.9397 23.2046 43.2111 23.2158 43.4826 23.2158Z" fill="#5D6A82"/>
<path d="M50.3549 22.9562C50.3549 22.8173 50.3549 22.7406 50.3549 22.664C50.3421 22.5187 50.4109 22.4787 50.5482 22.4675C51.227 22.4132 51.2255 22.41 51.2255 23.0888C51.2255 24.3139 51.2255 25.539 51.2255 26.7624C51.2255 26.9876 51.1631 27.0819 50.9363 27.0483C50.8964 27.0451 50.8564 27.0451 50.8165 27.0483C50.3757 27.0483 50.3757 27.0483 50.3198 26.5979C49.7177 27.1697 48.9989 27.2448 48.2434 27.1219C47.9849 27.0812 47.737 26.9897 47.514 26.8526C47.2912 26.7155 47.0977 26.5356 46.9449 26.3232C46.2277 25.3649 46.3554 23.7532 47.1828 22.9323C47.8952 22.2248 49.502 22.0954 50.3549 22.9562ZM50.3549 24.7643C50.3438 24.5739 50.3438 24.3829 50.3549 24.1925C50.3917 23.8843 50.2383 23.6798 50.0195 23.501C49.7243 23.2721 49.3639 23.1433 48.9905 23.1333C48.6171 23.1232 48.2502 23.2324 47.9431 23.445C47.3905 23.8651 47.1956 24.7883 47.5086 25.5039C47.7961 26.1619 48.4782 26.4973 49.2528 26.3632C50.0276 26.229 50.3485 25.8361 50.3485 25.0646L50.3549 24.7643Z" fill="#5D6A82"/>
<path d="M27.0806 24.9338C26.5679 24.9338 26.0536 24.945 25.5426 24.9338C25.3221 24.9338 25.2917 25.0121 25.3141 25.1974C25.41 26.0599 26.2134 26.595 27.1621 26.4177C27.5462 26.3692 27.8954 26.1705 28.1333 25.865C28.2355 25.7261 28.3074 25.7484 28.4255 25.8363C28.8615 26.1638 28.8824 26.25 28.4638 26.5949C27.6301 27.2834 26.6734 27.3472 25.7103 26.9735C24.8254 26.6285 24.4852 25.8554 24.4324 24.9594C24.3876 24.4557 24.4862 23.9496 24.7167 23.4995C24.9318 23.1032 25.2626 22.7819 25.6649 22.5784C26.0674 22.3749 26.5222 22.299 26.9688 22.3607C27.9416 22.4678 28.6092 22.9836 28.8377 23.811C28.9121 24.1035 28.9374 24.4063 28.9126 24.7071C28.8999 24.8876 28.836 24.9466 28.6555 24.9434C28.1252 24.9274 27.603 24.9338 27.0806 24.9338ZM26.6734 24.3045C27.0439 24.3045 27.4145 24.2886 27.7914 24.3045C28.0533 24.3205 28.0693 24.2039 28.0214 24.0027C27.8841 23.4388 27.357 23.0635 26.7069 23.0715C26.0153 23.0811 25.4515 23.5171 25.3381 24.1145C25.3077 24.2742 25.37 24.303 25.5074 24.3013C25.8923 24.3045 26.2821 24.3045 26.6734 24.3045Z" fill="#5D6A82"/>
<path d="M68.7118 24.9355C68.1895 24.9355 67.6672 24.9435 67.1434 24.9355C66.95 24.9355 66.9085 24.9945 66.9325 25.1815C66.9602 25.5111 67.1064 25.8195 67.3439 26.0497C67.5814 26.28 67.8943 26.4163 68.2246 26.4337C68.8252 26.4864 69.3651 26.3507 69.7596 25.8539C69.8522 25.7357 69.9193 25.7517 70.0343 25.83C70.4704 26.1382 70.4943 26.2405 70.0902 26.5839C69.2628 27.2866 68.3061 27.3441 67.3413 26.9768C66.4677 26.6446 66.1179 25.8987 66.0524 25.0026C66.0073 24.5408 66.077 24.075 66.2552 23.6466C66.95 22.0493 69.0393 22.0701 69.9065 22.9071C70.4432 23.4293 70.5821 24.0698 70.5183 24.7821C70.5006 24.969 70.3665 24.9419 70.2499 24.9419L68.7118 24.9355ZM68.287 24.3062C68.6686 24.3062 69.0504 24.2967 69.4321 24.3062C69.6541 24.3062 69.6829 24.2327 69.6381 24.0379C69.5008 23.4469 68.9785 23.0603 68.3141 23.0795C67.6496 23.0987 67.0651 23.5251 66.9564 24.105C66.9245 24.279 66.9868 24.3126 67.1417 24.3094C67.5235 24.3062 67.9052 24.3062 68.287 24.3062Z" fill="#5D6A82"/>
<path d="M19.9937 22.8632C20.3297 22.6035 20.7269 22.4347 21.1469 22.3728C22.5206 22.2132 23.3831 22.9606 23.3831 24.3406C23.3831 25.1536 23.3831 25.9682 23.3831 26.7812C23.3831 26.9873 23.3303 27.0592 23.1147 27.0592C22.4949 27.0592 22.4949 27.0592 22.4949 26.441C22.4949 25.767 22.4949 25.0946 22.4949 24.4205C22.4949 23.7465 22.2714 23.3903 21.7843 23.2258C21.1804 23.0229 20.417 23.2258 20.0704 23.6571C20.0008 23.7559 19.9711 23.8774 19.9874 23.9972C19.9874 24.922 19.9874 25.8452 19.9874 26.77C19.9874 26.9968 19.9218 27.0624 19.6967 27.0592C19.0977 27.0511 19.0977 27.0592 19.0977 26.4553C19.0977 25.2303 19.0977 24.0052 19.0977 22.7818C19.0977 22.5437 19.1615 22.4447 19.4028 22.4767C19.4723 22.4855 19.5425 22.4855 19.612 22.4767C19.8803 22.432 20.0464 22.5071 19.9937 22.8632Z" fill="#5D6A82"/>
<path d="M9.97729 26.6783C9.53417 27.0184 8.98616 27.193 8.42798 27.1719C7.43131 27.1496 6.78443 26.5841 6.73332 25.5859C6.68221 24.6147 6.71255 23.6388 6.70776 22.6645C6.70776 22.583 6.70776 22.4856 6.81318 22.4824C7.03338 22.4688 7.25422 22.4688 7.47444 22.4824C7.61978 22.4952 7.57985 22.6326 7.57985 22.7268C7.57985 23.4089 7.57985 24.0924 7.57985 24.776C7.57985 24.8958 7.57985 25.0172 7.57985 25.137C7.59902 25.6401 7.69006 26.1081 8.23311 26.3158C8.5141 26.4148 8.81778 26.43 9.10728 26.3597C9.39677 26.2894 9.65962 26.1365 9.86389 25.9196C9.95198 25.8099 9.99329 25.6699 9.97889 25.5299C9.97889 24.6051 9.97889 23.6819 9.97889 22.7571C9.97889 22.5319 10.0428 22.4632 10.2696 22.4649C10.8574 22.4649 10.8574 22.4649 10.8574 23.0542C10.8574 24.2905 10.8574 25.5267 10.8574 26.7614C10.8574 26.985 10.7983 27.0808 10.5699 27.0473C10.4902 27.0393 10.4099 27.0393 10.3303 27.0473C10.0811 27.0728 9.89264 27.0457 9.97729 26.6783Z" fill="#5D6A82"/>
<path d="M61.569 22.9155C61.8266 22.6916 62.1309 22.5279 62.4596 22.4362C62.7883 22.3445 63.1334 22.3271 63.4697 22.3852C64.2763 22.4939 64.88 23.0353 64.9536 23.8499C65.0462 24.8593 64.9727 25.8767 64.9855 26.8846C64.9855 26.9756 64.9632 27.0443 64.8561 27.0443C64.6548 27.0443 64.4536 27.0443 64.2524 27.0443C64.075 27.0443 64.1277 26.8926 64.1262 26.7951C64.1262 26.1116 64.1262 25.4295 64.1262 24.746V24.4744C64.1262 23.9473 64.0224 23.4634 63.4585 23.2413C63.1698 23.1346 62.8568 23.1107 62.5552 23.1722C62.2535 23.2337 61.9751 23.3783 61.7511 23.5896C61.6977 23.6413 61.6558 23.7038 61.6283 23.7729C61.6008 23.842 61.5882 23.9162 61.5913 23.9904C61.5913 24.9041 61.5913 25.8177 61.5994 26.7313C61.5994 26.9724 61.553 27.0635 61.291 27.0507C60.7305 27.0332 60.7305 27.0507 60.7305 26.4997C60.7305 25.265 60.7384 24.0304 60.7305 22.7957C60.7305 22.521 60.8151 22.4299 61.0723 22.4683C61.1221 22.4747 61.1726 22.4747 61.2224 22.4683C61.5004 22.4315 61.6664 22.5146 61.569 22.9155Z" fill="#5D6A82"/>
<path d="M57.1738 24.5866C57.1738 24.2049 57.1659 23.8232 57.1738 23.443C57.1738 23.261 57.1244 23.1923 56.9374 23.2019C56.6356 23.2147 56.3337 23.2019 56.0334 23.2019C55.8482 23.2098 55.7746 23.1396 55.7938 22.9576C55.8018 22.8874 55.8018 22.8167 55.7938 22.7467C55.7682 22.5407 55.845 22.4543 56.0621 22.4656C56.3528 22.4799 56.6452 22.4656 56.9359 22.4656C57.1195 22.4735 57.1786 22.4145 57.1738 22.2292C57.1627 21.7069 57.1738 21.1845 57.1659 20.6623C57.1659 20.4722 57.2153 20.3924 57.4198 20.3988C58.1705 20.4195 58.0348 20.2997 58.0475 21.0105C58.0475 21.421 58.0475 21.8331 58.0475 22.2451C58.0475 22.416 58.0986 22.4703 58.2695 22.4656C58.6609 22.4543 59.0537 22.4656 59.4451 22.4656C59.6575 22.4575 59.7406 22.5311 59.7134 22.7418C59.7038 22.8215 59.7038 22.9018 59.7134 22.9814C59.7342 23.1604 59.6479 23.2051 59.485 23.2019C59.1129 23.2019 58.7407 23.2147 58.367 23.2019C58.1258 23.1891 58.0331 23.2466 58.0475 23.5101C58.0682 24.141 58.0475 24.7735 58.0555 25.4061C58.0555 26.1823 58.4213 26.4953 59.2007 26.3979C59.7087 26.334 59.7087 26.3404 59.6719 26.8659C59.6742 26.9205 59.6554 26.9737 59.6194 27.0148C59.5834 27.0558 59.5329 27.0814 59.4787 27.0863C59.1165 27.1755 58.7403 27.1918 58.3717 27.1343C57.6402 27.0064 57.2313 26.5497 57.1866 25.7926C57.1642 25.3917 57.1866 24.9939 57.1866 24.5883L57.1738 24.5866Z" fill="#5D6A82"/>
<path d="M13.71 27.1745C13.1605 27.1745 12.627 27.0946 12.151 26.7928C12.0648 26.7368 11.9227 26.6921 11.9706 26.5532C12.0098 26.366 12.0949 26.1915 12.2182 26.0452C12.2853 25.9829 12.3604 26.0836 12.4258 26.1219C12.9387 26.4316 13.5464 26.5451 14.1364 26.4413C14.515 26.3791 14.721 26.1731 14.7338 25.8712C14.7466 25.5692 14.5597 25.3217 14.1796 25.2243C13.7611 25.1172 13.3331 25.0422 12.9241 24.9048C12.2469 24.6828 11.9754 24.242 12.0361 23.5535C12.0824 23.0425 12.4817 22.5952 13.0839 22.4435C13.8007 22.2496 14.5649 22.3406 15.2162 22.6974C15.3056 22.747 15.4525 22.7853 15.4014 22.9274C15.3392 23.1032 15.3008 23.3028 15.1522 23.429C15.0836 23.4881 15.0069 23.3954 14.9398 23.3556C14.5654 23.134 14.1329 23.0305 13.6988 23.0585C13.5276 23.0641 13.3602 23.11 13.2101 23.1926C13.1144 23.2391 13.0352 23.3137 12.9833 23.4065C12.9313 23.4994 12.909 23.6058 12.9194 23.7117C12.9205 23.8188 12.9565 23.9225 13.0219 24.0073C13.0873 24.0921 13.1786 24.1531 13.2819 24.1813C13.6189 24.2787 13.9639 24.3506 14.3041 24.4353C14.4495 24.4704 14.598 24.5039 14.7402 24.5518C15.328 24.7531 15.6299 25.1476 15.6459 25.7275C15.6581 26.006 15.5797 26.2811 15.4224 26.5115C15.2652 26.7418 15.0376 26.915 14.7738 27.0052C14.4336 27.1306 14.0723 27.1881 13.71 27.1745Z" fill="#5D6A82"/>
<path d="M20.9736 4.42406V4.17969H21.0934C21.2498 4.46928 21.348 4.78671 21.3825 5.11406C21.3936 5.30892 21.5613 5.25621 21.6843 5.26421L21.7019 5.37281C21.7115 5.46865 21.6477 5.59642 21.8122 5.62677L21.8281 5.80246C21.7254 5.78735 21.6205 5.8035 21.5271 5.84879C21.4336 5.89407 21.356 5.96642 21.3042 6.05642C21.3399 6.08652 21.3828 6.10676 21.4289 6.11517C21.4748 6.12357 21.5221 6.11983 21.5662 6.10434C21.7946 6.07719 21.753 6.38546 21.9654 6.40462C22.039 6.40462 21.8952 6.55475 21.9032 6.62823C21.9303 6.85025 21.7083 6.97004 21.7019 7.1665C21.6892 7.47636 21.7019 7.78781 21.7019 8.09927C21.7019 8.16796 21.6939 8.259 21.7914 8.259C21.8888 8.259 21.8809 8.16796 21.8809 8.09927C21.8809 7.799 21.8809 7.49871 21.8809 7.16011C22.0405 7.34698 22.0405 7.63927 22.3489 7.61531C22.3944 7.77703 22.4186 7.94403 22.4206 8.11205C22.4195 8.13087 22.4169 8.14958 22.4127 8.16796C22.3457 8.22546 22.3536 8.27976 22.4127 8.32767V8.99371H22.2322C22.2322 8.84677 22.2322 8.69823 22.2322 8.55129C22.2322 8.489 22.2003 8.42671 22.1363 8.42191C22.0725 8.41712 22.0582 8.49379 22.0582 8.55129C22.0582 8.69823 22.0582 8.84677 21.8984 10.345C21.8888 11.5988 21.8809 11.4774 21.8809 11.3592C21.8809 11.118 21.8809 10.88 21.8809 10.6357C21.8809 10.5558 21.8505 10.4456 21.9271 10.4105C22.1076 10.329 22.0565 10.1805 22.0597 10.0479C22.0597 9.75719 22.0597 9.4649 22.0597 9.17421C22.0597 9.11671 22.1348 9.01448 22.0038 8.99691C21.8728 8.97934 21.7498 8.97136 21.7115 9.13267C21.7026 9.1924 21.6994 9.25283 21.7019 9.31316C21.6875 9.72365 21.7019 10.1309 21.6556 10.543C21.6189 10.912 21.5694 11.3033 21.9 10.345C22.1252 8.99371 22.1843 8.99371 22.245 8.99371C22.245 9.37865 22.245 9.76517 22.245 10.1501C22.245 10.2811 22.245 10.3929 22.4255 10.3817C22.4255 10.7427 22.4255 11.1037 22.4255 11.4646C22.2657 11.479 22.2434 11.388 22.2466 11.2586C22.2506 11.1488 22.2474 11.0389 22.237 10.9296C22.2362 10.904 22.2253 10.8798 22.2068 10.8622C22.1883 10.8445 22.1635 10.8349 22.138 10.8353C22.128 10.8353 22.1181 10.8376 22.109 10.8419C22.1 10.8462 22.092 10.8526 22.0857 10.8604C22.0794 10.8682 22.075 10.8773 22.0727 10.8871C22.0704 10.8968 22.0704 10.907 22.0725 10.9168C22.0997 11.3608 21.9926 11.8112 22.1284 12.2505C22.1284 12.3494 22.2338 12.4405 22.1284 12.5507C22.0701 12.6286 22.0293 12.7182 22.0089 12.8133C21.9886 12.9085 21.989 13.0068 22.0101 13.1017C21.8777 13.0906 21.8776 13.1817 21.876 13.2727C21.8026 13.2503 21.7786 13.3573 21.6939 13.3349C21.2291 13.2136 21.2276 13.2168 21.0774 13.6544C21.0746 13.6226 21.0653 13.5915 21.0496 13.5635C21.0341 13.5356 21.0129 13.5112 20.9872 13.4921C20.9616 13.4729 20.9322 13.4594 20.9009 13.4524C20.8696 13.4454 20.8372 13.4452 20.8059 13.4516C20.7564 13.4516 20.702 13.4516 20.6877 13.3828C20.6733 13.3142 20.7116 13.2902 20.766 13.2791C20.9895 13.2375 20.9704 13.0634 20.9704 12.9037C20.9704 10.9982 20.9704 9.09275 20.9704 7.18725C20.9704 6.93809 20.8826 6.80712 20.6207 6.8215C20.4881 6.8215 20.3922 6.79754 20.3634 6.63781C20.2996 6.28642 20.504 6.04046 20.7228 5.83921C20.9784 5.6108 21.0678 5.39357 20.8826 5.08052C20.7771 4.90961 20.7564 4.76906 20.905 4.62531C20.9293 4.59811 20.948 4.56627 20.9598 4.53169C20.9716 4.49711 20.9763 4.4605 20.9736 4.42406ZM21.8744 12.3718C21.8648 12.2856 21.8744 12.1754 21.7515 12.1754C21.6907 12.1754 21.6843 12.2552 21.7131 12.2888C21.7834 12.3703 21.6732 12.5188 21.7802 12.5443C21.8873 12.5699 21.8744 12.4422 21.8744 12.3718Z" fill="#4A81F5"/>
<path d="M31.3354 27.1789C30.8189 27.1846 30.3117 27.0403 29.8755 26.7636C29.7941 26.7077 29.6886 26.6534 29.7557 26.5272C29.8435 26.3675 29.8547 26.1519 30.0273 26.048C30.0575 26.0289 30.1486 26.0991 30.2077 26.1327C30.7211 26.4427 31.3293 26.5562 31.92 26.4521C32.3016 26.3883 32.5014 26.187 32.5093 25.8788C32.5189 25.5401 32.3416 25.3357 31.9583 25.2398C31.5014 25.1185 31.0287 25.0593 30.5895 24.8821C30.3721 24.812 30.181 24.6781 30.0411 24.4978C29.9012 24.3173 29.8189 24.0989 29.8052 23.871C29.7807 23.6445 29.8186 23.4157 29.9145 23.2091C30.0105 23.0026 30.1611 22.8261 30.3499 22.6987C30.6338 22.5059 30.9654 22.3953 31.3082 22.3792C31.9016 22.3096 32.5021 22.4239 33.0284 22.7067C33.2409 22.828 33.2264 22.9926 33.0108 23.3456C32.8895 23.5469 32.7889 23.3871 32.6914 23.3343C32.246 23.0679 31.7146 22.9848 31.2092 23.1028C30.8737 23.1826 30.6725 23.4143 30.69 23.6794C30.7108 23.9989 30.9089 24.1585 31.2044 24.224C31.5957 24.3134 31.9886 24.3981 32.3767 24.502C33.0619 24.6824 33.4022 25.0897 33.4197 25.7254C33.4373 26.3611 33.0843 26.8243 32.4358 27.0399C32.0799 27.1497 31.7075 27.1967 31.3354 27.1789Z" fill="#5D6A82"/>
<path d="M35.8616 27.174C35.3448 27.1802 34.8369 27.0394 34.3969 26.7682C34.3155 26.714 34.2021 26.6581 34.2564 26.5367C34.3347 26.3658 34.357 26.1581 34.5183 26.04C34.5854 25.9904 34.6573 26.0927 34.7243 26.1294C35.2392 26.4353 35.8477 26.5436 36.4366 26.4345C36.8088 26.3658 37.0163 26.147 37.0163 25.8467C37.0163 25.5465 36.8279 25.3148 36.4702 25.2238C36.0516 25.1168 35.6236 25.0417 35.2147 24.9043C34.464 24.6552 34.1398 24.0275 34.3698 23.3231C34.4289 23.1344 34.5322 22.9625 34.6712 22.8216C34.81 22.6808 34.9805 22.5751 35.1684 22.5133C35.5518 22.375 35.9603 22.3203 36.3667 22.3529C36.773 22.3854 37.1677 22.5043 37.5243 22.7017C37.7495 22.8168 37.684 22.9558 37.6089 23.1218C37.4492 23.4748 37.4589 23.47 37.1186 23.2975C36.6919 23.061 36.1923 22.9926 35.7178 23.1058C35.3744 23.1937 35.2004 23.4029 35.2067 23.684C35.2131 23.9651 35.3808 24.1424 35.7178 24.2271C36.1076 24.3245 36.5021 24.4028 36.8886 24.5067C37.5642 24.6871 37.9172 25.1136 37.9284 25.7365C37.9396 26.3594 37.5785 26.8322 36.9317 27.043C36.585 27.1468 36.2231 27.1911 35.8616 27.174Z" fill="#5D6A82"/>
<path d="M20.9716 4.42188C20.9769 4.4619 20.9732 4.5026 20.9607 4.541C20.9484 4.57941 20.9275 4.61456 20.8997 4.64389C20.7512 4.78764 20.772 4.9282 20.8774 5.0991C21.0707 5.41855 20.9812 5.62938 20.7177 5.85778C20.4989 6.05264 20.2944 6.29862 20.3583 6.65639C20.3871 6.81612 20.4828 6.84806 20.6154 6.84007C20.8774 6.8257 20.9669 6.95668 20.9652 7.20584C20.9652 9.11133 20.9652 11.0168 20.9652 12.9223C20.9652 13.082 20.9844 13.2561 20.7608 13.2976C20.7065 13.3089 20.6698 13.3391 20.6826 13.4015C20.6954 13.4638 20.7512 13.4749 20.8007 13.4702C20.8321 13.4637 20.8645 13.464 20.8958 13.4709C20.9269 13.478 20.9564 13.4914 20.9821 13.5107C21.0076 13.5298 21.029 13.5542 21.0445 13.5822C21.0601 13.6101 21.0695 13.6411 21.0723 13.673C21.2225 13.2354 21.224 13.2322 21.6888 13.3536C21.7735 13.3759 21.7975 13.2689 21.8709 13.2912H21.9269C21.873 13.4495 21.7877 13.595 21.676 13.7193L21.6329 13.7784C21.5652 13.7645 21.4948 13.7735 21.4329 13.8042C21.3709 13.835 21.321 13.8854 21.2911 13.9477C21.1745 14.125 21.0643 14.3214 20.8295 14.395C20.6826 14.4412 20.7193 14.5547 20.7832 14.6664C20.7832 14.684 20.772 14.6904 20.756 14.6872C20.6154 14.66 20.3407 14.7607 20.5181 14.4349C20.2449 14.2752 20.5181 14.1841 20.5579 14.0611C20.5899 13.9765 20.855 14.0611 20.7177 13.8807C20.6282 13.7688 20.5005 13.8503 20.4111 13.9477C20.3759 13.986 20.3615 14.0659 20.2768 14.0292C20.189 13.8215 20.3536 13.6011 20.2881 13.4191C20.1555 13.0469 20.2034 12.6715 20.189 12.301C20.189 12.2211 20.1985 12.1412 20.1155 12.087C20.5628 10.9817 20.4494 9.83966 20.3375 8.70084C20.1953 7.32414 19.8058 5.98442 19.1875 4.74612C19.4981 4.64822 19.8296 4.63716 20.1459 4.71418C20.3056 4.74132 20.4318 4.75889 20.5372 4.60077C20.6426 4.44264 20.8263 4.47778 20.9716 4.42188ZM20.3934 5.44251C20.4302 5.30674 20.4685 5.19972 20.3711 5.11028C20.3633 5.10498 20.3545 5.10141 20.3452 5.09983C20.336 5.09824 20.3264 5.09868 20.3174 5.10111C20.3082 5.10354 20.2997 5.10789 20.2925 5.11389C20.2852 5.11988 20.2794 5.12737 20.2753 5.13584C20.2274 5.25243 20.2609 5.34987 20.3934 5.44251Z" fill="#487FF4"/>
<path d="M20.1154 12.0781C20.1985 12.1292 20.1857 12.2122 20.1889 12.2922C20.2032 12.6675 20.1553 13.0428 20.2879 13.4102C20.3534 13.5923 20.1889 13.8127 20.2768 14.0204C20.3613 14.057 20.3758 13.9772 20.4109 13.9389C20.5003 13.8414 20.6281 13.76 20.7175 13.8718C20.8629 14.0555 20.5977 13.9676 20.5579 14.0523C20.5115 14.1753 20.2383 14.2696 20.5179 14.426C20.3406 14.7455 20.6154 14.6512 20.7559 14.6784C20.3894 15.0034 19.9266 15.1998 19.4382 15.2374C18.9825 15.2925 18.5218 15.2925 18.0662 15.2374C17.8481 15.0208 17.5622 14.8861 17.2564 14.8557C17.159 14.8557 17.0151 14.9148 16.9913 14.7455C16.9673 14.5762 17.0934 14.5858 17.1956 14.5347C17.4656 14.4164 17.4703 14.3047 17.2372 14.1258C17.0902 14.0123 16.9385 13.8846 17.2212 13.7312C17.2794 13.7014 17.3279 13.6554 17.3607 13.5987C17.3936 13.5421 17.4095 13.4772 17.4065 13.4118C17.4065 13.0684 17.3665 12.7186 17.5231 12.3912C18.368 13.1594 19.5452 13.0956 20.1154 12.0781Z" fill="#4679ED"/>
<path d="M17.5302 12.387C17.3704 12.7064 17.4087 13.0642 17.4136 13.4076C17.4166 13.473 17.4006 13.5379 17.3678 13.5944C17.335 13.6512 17.2865 13.6971 17.2283 13.727C16.9456 13.8868 17.0973 14.0081 17.2442 14.1216C17.4774 14.3005 17.4727 14.4122 17.2027 14.5304C17.1005 14.5752 16.9759 14.5944 16.9982 14.7413C17.0207 14.8883 17.158 14.8466 17.2634 14.8515C17.5692 14.8819 17.8552 15.0166 18.0733 15.2332C17.8213 15.2557 17.5686 15.2 17.3497 15.0735C17.3129 14.9138 17.1899 14.9809 17.0941 14.9745C16.7387 14.846 16.4128 14.6471 16.1357 14.3899C15.7216 14.0602 15.3575 13.6723 15.0544 13.2382C15.0544 13.1505 15.0544 13.061 15.0544 12.9731C15.0544 12.7144 14.8627 12.5787 14.5752 12.617C14.5539 12.6069 14.5359 12.5908 14.5235 12.5706C14.5109 12.5505 14.5045 12.5273 14.505 12.5036C14.513 12.5036 14.529 12.4892 14.5273 12.4844C14.4188 12.0452 14.7046 11.9956 15.0321 11.9397C15.2605 11.8998 15.4602 11.7321 15.7141 11.7641C15.818 11.7784 15.8387 11.6937 15.845 11.6043C15.8627 11.3376 15.8994 11.0708 15.901 10.8057C15.8937 10.647 15.9417 10.4906 16.0367 10.3633C16.5223 11.0469 16.9552 11.772 17.5302 12.387Z" fill="#4170E4"/>
<path d="M53.431 23.0073C53.8463 22.5282 54.3478 22.3876 54.9164 22.4035C55.1847 22.4116 55.3109 22.4978 55.2647 22.7774C55.2559 22.8372 55.2559 22.8979 55.2647 22.9578C55.2918 23.1798 55.2294 23.2549 54.9819 23.2134C54.7832 23.1773 54.579 23.1838 54.3829 23.2326C54.1869 23.2812 54.0035 23.3711 53.8447 23.4961C53.6991 23.5945 53.5811 23.7285 53.5017 23.8853C53.4223 24.0421 53.3843 24.2165 53.391 24.3921C53.4118 25.1747 53.391 25.959 53.391 26.7416C53.391 26.9684 53.3495 27.0611 53.0956 27.0611C52.5174 27.0482 52.5174 27.0611 52.5174 26.4941C52.5174 25.2785 52.5302 24.0631 52.5078 22.8476C52.5078 22.5282 52.6053 22.4578 52.9007 22.4722C53.3655 22.4914 53.3671 22.4739 53.431 23.0073Z" fill="#5D6A82"/>
<path d="M72.5058 23.0073C72.921 22.5042 73.4402 22.3812 74.0184 22.4052C74.2308 22.4147 74.3713 22.4674 74.3266 22.7246C74.317 22.7844 74.317 22.8453 74.3266 22.9051C74.3698 23.1877 74.274 23.2501 73.9833 23.2085C73.7785 23.1784 73.5696 23.1939 73.3715 23.2541C73.1735 23.3144 72.9913 23.4176 72.838 23.5567C72.7167 23.6536 72.6193 23.7774 72.5537 23.9181C72.4881 24.0588 72.4558 24.2129 72.4594 24.3681C72.4754 25.1668 72.4483 25.9525 72.4594 26.7448C72.4594 27.0035 72.378 27.0642 72.14 27.0642C71.5938 27.0514 71.5938 27.0642 71.5938 26.5324C71.5938 25.2785 71.5938 24.0247 71.5938 22.7708C71.5938 22.5489 71.648 22.4514 71.8781 22.4833C71.8882 22.4842 71.8983 22.4842 71.9085 22.4833C72.4211 22.469 72.4211 22.469 72.5058 23.0073Z" fill="#5D6A82"/>
<path d="M0.638786 7.55604C0.848023 7.38034 0.884758 7.12 0.927883 6.88042C0.992884 6.52601 1.10013 6.18068 1.24733 5.8518C1.33358 5.66013 1.30802 5.42215 1.48532 5.26562C1.56038 5.81986 1.34157 6.32459 1.21059 6.84209C1.17386 6.98903 1.24733 7.02576 1.34636 7.05451C1.44538 7.08326 1.50609 7.0034 1.48053 6.91875C1.41504 6.66479 1.59074 6.49229 1.68018 6.29424C1.76963 6.09618 2.36379 6.10257 2.40373 6.30382C2.50275 6.79896 2.84935 6.72069 3.17998 6.7143L2.74873 8.52236C2.48838 8.52236 2.22803 8.52236 1.96768 8.52236C1.90854 8.51651 1.84903 8.52861 1.79688 8.55711C1.74474 8.58561 1.7024 8.62916 1.67538 8.68209C1.62588 8.77792 1.72969 8.98715 1.56199 8.96639C1.39427 8.94563 1.50928 8.74597 1.47734 8.63097C1.47734 8.62139 1.47734 8.61021 1.47734 8.60063C1.44219 8.4409 1.29365 8.385 1.18983 8.31472C1.08601 8.24444 1.01893 8.42653 0.939064 8.48882C0.859202 8.55111 0.939064 8.64854 0.939064 8.73959C0.939064 8.83063 0.991773 8.97278 0.817675 8.99674C0.681911 9.0143 0.657952 8.93604 0.630799 8.82264C0.603715 8.73716 0.566728 8.65514 0.520591 8.57826L0.507812 8.25882C0.507812 8.15979 0.522188 8.06076 0.528576 7.96174C0.610027 7.84281 0.648867 7.69983 0.638786 7.55604ZM1.30323 7.8643C1.2649 7.77486 1.36552 7.60236 1.21858 7.59917C1.07163 7.59597 1.11636 7.75888 1.12115 7.8659C1.12594 7.97292 1.05886 8.13264 1.2074 8.13264C1.35594 8.13264 1.26969 7.96014 1.30323 7.8643Z" fill="#4170E4"/>
<path d="M0.51309 8.58495C0.561444 8.66153 0.600582 8.74357 0.629689 8.82933C0.650452 8.94272 0.6808 9.02099 0.816564 9.00343C0.990662 8.97947 0.934759 8.8437 0.937953 8.74628C0.941148 8.64884 0.853301 8.57537 0.937953 8.49551C1.02261 8.41564 1.09768 8.26072 1.18552 8.32301C1.27337 8.3853 1.43789 8.45558 1.47302 8.60891C1.47302 8.61849 1.47302 8.62968 1.47302 8.63926C1.50497 8.75426 1.40115 8.9587 1.55768 8.97468C1.71421 8.99065 1.62156 8.7862 1.67108 8.69037C1.69809 8.63744 1.74044 8.59389 1.79258 8.5654C1.84473 8.53691 1.90424 8.5248 1.96337 8.53064C2.22372 8.53064 2.48407 8.53064 2.74441 8.53064C2.69491 9.16953 2.61025 9.80843 2.61664 10.4601C2.38664 10.4601 2.15504 10.4601 1.92504 10.4601C1.73177 10.4601 1.64393 10.532 1.65671 10.7252C1.6655 10.8353 1.6655 10.9458 1.65671 11.0559C1.65671 11.1325 1.71261 11.2731 1.57365 11.2667C1.46504 11.2667 1.47941 11.1309 1.47941 11.0415C1.47941 10.6805 1.47941 10.3195 1.47941 9.95857C1.47941 9.88509 1.51136 9.7669 1.40115 9.76211C1.259 9.76211 1.30532 9.88828 1.30212 9.96655C1.30212 10.147 1.30212 10.3275 1.30212 10.508C1.30212 10.5799 1.28775 10.6677 1.20309 10.6677C1.11844 10.6677 1.13122 10.5927 1.12323 10.5368C1.11525 10.4809 1.11045 10.4026 1.0242 10.4265C0.730314 10.508 0.763855 10.302 0.762258 10.1327C0.762258 9.81322 0.762258 9.49378 0.762258 9.17433H0.650452L0.573785 11.1772H0.414062C0.414062 10.3307 0.414062 9.48525 0.414062 8.64086L0.51309 8.58495Z" fill="#4679ED"/>
<path d="M16.7627 24.7831C16.7627 24.1107 16.7627 23.4383 16.7627 22.7659C16.7627 22.5694 16.801 22.472 17.0262 22.4767C17.7961 22.4959 17.6443 22.3952 17.6492 23.0917C17.6587 24.3056 17.6492 25.5211 17.6492 26.7366C17.6492 26.9729 17.6075 27.0735 17.3409 27.0671C16.7595 27.0512 16.7578 27.0671 16.7578 26.4714L16.7627 24.7831Z" fill="#5D6A82"/>
<path d="M17.8544 20.7433C17.8565 20.8285 17.841 20.9133 17.8091 20.9924C17.777 21.0714 17.7292 21.1431 17.6684 21.203C17.6077 21.2628 17.5353 21.3096 17.4557 21.3404C17.3762 21.3713 17.2912 21.3855 17.206 21.3822C17.1149 21.3975 17.0215 21.3929 16.9323 21.3687C16.8432 21.3445 16.7604 21.3011 16.6894 21.2418C16.6186 21.1824 16.5616 21.1084 16.5221 21.0248C16.4827 20.9414 16.4618 20.8502 16.461 20.7578C16.4602 20.6654 16.4795 20.5739 16.5173 20.4897C16.5553 20.4055 16.6112 20.3304 16.6809 20.2698C16.7507 20.2093 16.8327 20.1644 16.9214 20.1387C17.0102 20.1129 17.1035 20.1066 17.1949 20.1204C17.2799 20.1147 17.3651 20.1266 17.4452 20.1553C17.5254 20.1841 17.5989 20.2292 17.6607 20.2877C17.7227 20.3461 17.7718 20.4168 17.8052 20.4952C17.8386 20.5736 17.8553 20.6581 17.8544 20.7433Z" fill="#5D6A82"/>
<path d="M0.416426 11.1758H0.576149C0.576149 11.3163 0.576149 11.4553 0.576149 11.5959C0.588927 11.6981 0.534621 11.8147 0.635247 11.8993C0.677981 12.3662 0.831284 12.8163 1.08247 13.2122C1.36611 13.6327 1.7027 14.0149 2.08394 14.3494C2.37162 14.59 2.68063 14.8039 3.00713 14.9884C3.09976 15.0299 3.20151 15.047 3.30262 15.0378C3.43519 15.0378 3.56935 15.0523 3.5965 15.2247C2.94758 15.1618 2.33932 14.8803 1.8715 14.4262C1.07289 13.6771 0.62726 12.7251 0.433996 11.6549C0.416143 11.4959 0.41027 11.3357 0.416426 11.1758Z" fill="#4A81F4"/>
<path d="M22.3492 7.61914C22.0489 7.6399 22.0457 7.35081 21.8812 7.16393C21.8812 7.50254 21.8812 7.80282 21.8812 8.1031C21.8812 8.17177 21.8812 8.26282 21.7918 8.26282C21.7023 8.26282 21.7023 8.17018 21.7023 8.1031C21.7023 7.78365 21.6927 7.48018 21.7023 7.17032C21.7023 6.97386 21.9308 6.85087 21.9036 6.63206C21.8957 6.55858 22.0394 6.41483 21.9659 6.40844C21.7535 6.38927 21.795 6.08102 21.5665 6.10817C21.5225 6.12366 21.4751 6.1274 21.4292 6.11899C21.3833 6.11059 21.3404 6.09034 21.3047 6.06025C21.3564 5.97024 21.4341 5.8979 21.5274 5.85261C21.6209 5.80732 21.7258 5.79118 21.8285 5.80629C21.9883 5.91331 21.9883 6.10018 22.0298 6.25511C22.1715 6.70081 22.2783 7.15686 22.3492 7.61914Z" fill="#4A81F4"/>
<path d="M22.4219 9.00666C22.4219 8.78465 22.4219 8.56264 22.4219 8.34062V8.18089C22.4262 8.16251 22.4288 8.14382 22.4299 8.125C22.4974 8.32484 22.5267 8.53563 22.5161 8.74631C22.5787 9.67785 22.5702 10.6128 22.4906 11.543C22.4982 11.6235 22.4766 11.704 22.4299 11.7698V11.4792C22.4299 11.1182 22.4299 10.7572 22.4299 10.3963L22.4219 9.00666Z" fill="#4A81F4"/>
<path d="M22.4192 11.4777V11.762C22.4246 11.8937 22.3995 12.0249 22.3458 12.1453L22.309 12.2108L22.1174 12.2667C21.9816 11.8275 22.0887 11.3771 22.0615 10.933C22.0594 10.9232 22.0594 10.9131 22.0617 10.9033C22.064 10.8936 22.0684 10.8844 22.0747 10.8766C22.081 10.8688 22.089 10.8625 22.098 10.8582C22.1071 10.8538 22.117 10.8516 22.127 10.8516C22.1525 10.8511 22.1773 10.8608 22.1958 10.8784C22.2143 10.896 22.2252 10.9203 22.226 10.9458C22.2364 11.0552 22.2396 11.1651 22.2356 11.2748C22.2372 11.401 22.2643 11.4921 22.4192 11.4777Z" fill="#4679ED"/>
<path d="M20.7903 14.6601C20.7265 14.5562 20.6897 14.4348 20.8366 14.3885C21.0714 14.315 21.1817 14.1186 21.2983 13.9413C21.3281 13.879 21.3781 13.8285 21.44 13.7978C21.5019 13.7671 21.5723 13.7581 21.6401 13.772C21.4373 14.1357 21.1448 14.4415 20.7903 14.6601Z" fill="#4170E4"/>
<path d="M21.6847 5.26719C21.5617 5.25921 21.394 5.31192 21.3828 5.11705C21.349 4.78806 21.2508 4.46894 21.0938 4.17788L21.1496 4.11719C21.3746 4.47705 21.5543 4.86331 21.6847 5.26719Z" fill="#4679ED"/>
<path d="M14.5703 12.6236C14.8642 12.5853 15.0494 12.721 15.0494 12.9798C15.0494 13.0677 15.0494 13.1571 15.0494 13.2449C14.8608 13.0618 14.6995 12.8526 14.5703 12.6236Z" fill="#3C67DA"/>
<path d="M20.7903 3.93868C20.7226 3.94664 20.6543 3.93029 20.5975 3.89256C20.5408 3.85482 20.4993 3.79815 20.4805 3.73264C20.4915 3.6656 20.5221 3.60329 20.5684 3.55357C20.6147 3.50384 20.6747 3.4689 20.7408 3.45312C20.8498 3.5514 20.9304 3.67718 20.974 3.8173C20.8782 3.8157 20.7967 3.82049 20.7903 3.93868Z" fill="#487FF4"/>
<path d="M12.2156 3.00781V3.32726C11.9521 3.26336 12.0863 3.80642 11.7461 3.63232V3.56524C11.8702 3.35441 12.029 3.16598 12.2156 3.00781Z" fill="#4679ED"/>
<path d="M22.1218 12.263L22.3135 12.207C22.283 12.5314 22.1786 12.8445 22.0085 13.1223C21.9872 13.0274 21.9868 12.9289 22.0071 12.8338C22.0275 12.7386 22.0683 12.6491 22.1266 12.5713C22.2273 12.453 22.1138 12.362 22.1218 12.263Z" fill="#4A81F4"/>
<path d="M0.640036 7.55524C0.649736 7.70193 0.608556 7.84748 0.523438 7.96734C0.56816 7.72296 0.523438 7.45941 0.683161 7.24219C0.727884 7.35399 0.640036 7.44983 0.640036 7.55524Z" fill="#4A81F4"/>
<path d="M0.514582 8.58347L0.415555 8.63938C0.415555 8.5084 0.364443 8.36624 0.501805 8.26562C0.504999 8.37105 0.509791 8.47645 0.514582 8.58347Z" fill="#4A81F4"/>
<path d="M21.1483 4.1221L21.0925 4.18279H20.9727V4.00391H21.0861C21.1064 4.0158 21.1231 4.03318 21.1341 4.05408C21.1451 4.07497 21.15 4.09854 21.1483 4.1221Z" fill="#487FF4"/>
<path d="M5.46094 15.1491C5.49927 14.9798 5.63025 15.0517 5.73088 15.0436C5.65816 15.1128 5.56125 15.1506 5.46094 15.1491Z" fill="#4A81F4"/>
<path d="M21.8085 5.62896C21.6489 5.59861 21.708 5.46923 21.6984 5.375C21.7894 5.43569 21.775 5.54271 21.8085 5.62896Z" fill="#4679ED"/>
<path d="M17.0938 14.9801C17.1895 14.9801 17.3125 14.9194 17.3493 15.0791C17.3019 15.0855 17.2534 15.0799 17.2087 15.0625C17.164 15.0452 17.1245 15.0168 17.0938 14.9801Z" fill="#4679ED"/>
<path d="M21.9341 13.2812H21.875C21.875 13.1901 21.875 13.0991 22.0092 13.1103C22.0097 13.1425 22.0032 13.1744 21.9902 13.2039C21.9773 13.2334 21.9581 13.2597 21.9341 13.2812Z" fill="#4A81F4"/>
<path d="M21.0861 4.00222H20.9727C20.9742 3.98308 20.9742 3.96386 20.9727 3.94472V3.82812C21.003 3.84711 21.029 3.87253 21.0486 3.90262C21.0682 3.93269 21.081 3.96669 21.0861 4.00222Z" fill="#4679ED"/>
<path d="M5.35156 15.1803L5.40747 15.1562L5.35156 15.1803Z" fill="#4A81F4"/>
<path d="M5.82812 15.0132L5.89201 14.9766L5.82812 15.0132Z" fill="#4A81F4"/>
<path d="M21.6406 13.774L21.6837 13.7148L21.6406 13.774Z" fill="#4170E4"/>
<path d="M22.3047 12.21L22.3415 12.1445L22.3047 12.21Z" fill="#4A81F4"/>
<path d="M1.47656 5.26857C1.47656 5.21266 1.47656 5.14878 1.55483 5.13281C1.56281 5.13281 1.58518 5.15517 1.58677 5.16955C1.58677 5.24781 1.53726 5.26058 1.47656 5.26857Z" fill="#4170E4"/>
<path d="M0.632829 11.8985C0.532204 11.8138 0.58651 11.6972 0.573732 11.595C0.733454 11.5759 0.690329 11.4561 0.691927 11.3634C0.692817 11.2125 0.753056 11.0679 0.859636 10.9609C0.971442 11.0041 0.939497 11.1015 0.929914 11.1686C0.90367 11.4355 0.800462 11.6891 0.632829 11.8985Z" fill="#4679ED"/>
<path d="M20.9706 3.82441V3.94101C20.9626 3.94101 20.9482 3.95538 20.9498 3.95857C20.9563 3.9724 20.9638 3.98574 20.9723 3.99851V4.17739C20.7789 4.19656 20.7869 4.06559 20.7901 3.93621C20.7933 3.80684 20.8812 3.81642 20.9706 3.82441Z" fill="#4A81F5"/>
<path d="M21.7312 11.7092C21.5634 11.3163 21.613 10.925 21.6497 10.556C21.6928 10.1439 21.6817 9.73662 21.696 9.32614C21.6962 9.26556 21.702 9.20513 21.7136 9.14566C21.7519 8.98593 21.8893 8.99871 22.0058 9.00989C22.1224 9.02108 22.0602 9.12968 22.0618 9.18718C22.0714 9.47789 22.0698 9.77017 22.0618 10.0609C22.0618 10.1934 22.1097 10.342 21.9292 10.4234C21.8526 10.4586 21.883 10.5688 21.883 10.6486C21.883 10.8898 21.883 11.1278 21.883 11.3722C21.8945 11.4371 21.8863 11.504 21.8592 11.5641C21.8321 11.6243 21.7875 11.6749 21.7312 11.7092Z" fill="#487FF4"/>
<path d="M22.4228 9.00391V10.3935C22.2472 10.4047 22.2408 10.2929 22.2423 10.1619C22.2423 9.77696 22.2423 9.39044 22.2423 9.0055L22.4228 9.00391Z" fill="#4679ED"/>
<path d="M22.2391 9.0055H22.0586C22.0586 8.85856 22.0586 8.71002 22.0586 8.56306C22.0586 8.50556 22.0586 8.4305 22.1369 8.43369C22.2151 8.43689 22.2311 8.50077 22.2327 8.56306C22.2391 8.71002 22.2375 8.85856 22.2391 9.0055Z" fill="#487FF4"/>
<path d="M21.8731 12.3683C21.8604 12.4386 21.8923 12.568 21.7789 12.5408C21.6655 12.5137 21.7789 12.3667 21.7118 12.2852C21.6831 12.2517 21.6895 12.1702 21.7501 12.1719C21.8827 12.1719 21.8731 12.282 21.8731 12.3683Z" fill="#4679ED"/>
<path d="M22.4056 8.17188V8.3316C22.3497 8.28528 22.3385 8.23097 22.4056 8.17188Z" fill="#4679ED"/>
<path d="M20.3926 5.44018C20.26 5.34755 20.2328 5.25011 20.2679 5.13671C20.2715 5.12697 20.2774 5.11823 20.285 5.11118C20.2926 5.10413 20.3017 5.099 20.3117 5.0962C20.3216 5.09339 20.3322 5.09299 20.3423 5.09504C20.3525 5.09708 20.3621 5.10151 20.3702 5.10796C20.4675 5.1974 20.4341 5.30442 20.3926 5.44018Z" fill="#4A81F4"/>
<path d="M1.30355 7.8668C1.2716 7.96263 1.36105 8.13672 1.20771 8.13513C1.05438 8.13353 1.12785 7.96422 1.12146 7.86839C1.11507 7.77255 1.08632 7.59686 1.21889 7.60166C1.35146 7.60645 1.27 7.77735 1.30355 7.8668Z" fill="#4679ED"/>
<path d="M20.9677 3.99891C20.9593 3.98614 20.9518 3.9728 20.9453 3.95897C20.9453 3.95897 20.9581 3.94779 20.9661 3.94141C20.9682 3.96049 20.9688 3.97972 20.9677 3.99891Z" fill="#487FF4"/>
<g style="mix-blend-mode:color">
<g style="mix-blend-mode:color">
<path d="M21.2347 4.31372C20.6214 3.1126 19.842 2.06162 18.7176 1.29336C17.518 0.472389 16.2082 0.335027 14.8554 0.787042C14.1591 1.01704 13.5777 1.48183 13.0538 2.00093C12.5299 2.52003 12.1194 3.07587 11.6275 3.59816C11.1941 3.0429 10.7218 2.51928 10.2139 2.03128C8.99043 0.913223 7.60243 0.287111 5.90138 0.579403C4.84242 0.759889 4.01505 1.34288 3.24679 2.02649C2.69731 2.52647 2.24277 3.1217 1.90512 3.78343C1.58567 4.37281 1.36206 4.99093 1.08574 5.59149C0.88289 6.03232 0.79025 6.49872 0.656084 6.95072C0.501702 7.36542 0.425873 7.80523 0.432471 8.24767C0.272748 8.40739 0.325457 8.60864 0.322262 8.79232C0.322262 9.46635 0.339832 10.142 0.322262 10.816C0.296938 11.4392 0.395192 12.0613 0.611361 12.6465C1.01067 13.7278 1.66713 14.5918 2.74845 15.0806C3.32824 15.3425 3.94158 15.2914 4.55332 15.3121C5.22313 15.3277 5.87808 15.1135 6.4093 14.7052C7.35646 14.0312 8.01931 13.108 8.64542 12.1496C9.62293 10.6707 10.4295 9.09101 11.3288 7.56566C11.9054 8.38184 12.3973 9.24274 12.9068 10.0909C13.6336 11.3032 14.3236 12.5394 15.2644 13.6048C15.7962 14.2117 16.3697 14.7707 17.1443 15.0678C17.1654 15.0351 17.1785 14.9979 17.1826 14.9592C17.1785 14.9979 17.1654 15.0351 17.1443 15.0678C17.2591 15.1284 17.3809 15.1751 17.5069 15.2068C18.0403 15.3872 18.5865 15.2802 19.1264 15.3026C19.6633 15.3097 20.1887 15.1459 20.6262 14.8346C21.8114 14.0536 22.3193 12.8604 22.4583 11.5284C22.7186 9.02393 22.4023 6.59614 21.2347 4.31372ZM8.54958 8.29399C7.72542 9.54462 6.97471 10.8495 6.0052 11.9979C5.79951 12.2439 5.55961 12.4591 5.29284 12.6369C4.36485 13.2549 3.27714 12.9355 2.84429 11.9085C2.52485 11.1642 2.52485 10.38 2.58394 9.59253C2.60789 9.28268 2.63664 8.97281 2.6638 8.66295H2.28685H2.6638C2.80104 7.88534 2.99481 7.11876 3.2436 6.36934C3.53766 5.4399 4.03592 4.588 4.70186 3.87607C5.09478 3.44482 5.55478 3.09343 6.13936 2.98641C6.91721 2.84266 7.61202 3.07266 8.23014 3.54704C9.00639 4.14281 9.58618 4.91587 10.1468 5.7033C10.1617 5.73987 10.1698 5.77883 10.1708 5.8183C9.59097 6.6233 9.09584 7.47142 8.54958 8.29399ZM20.3579 11.1402C20.3199 11.5116 20.208 11.8717 20.0289 12.1992C19.9155 12.4081 19.7516 12.5852 19.5521 12.7145C19.3526 12.8437 19.1239 12.9208 18.8868 12.9387C18.323 13.0074 17.9062 12.7486 17.5021 12.4244C17.3937 12.5392 17.3317 12.69 17.328 12.8476C17.3317 12.69 17.3937 12.5392 17.5021 12.4244C16.3376 11.0859 15.4847 9.53822 14.5632 8.04163C13.9961 7.12642 13.4658 6.18726 12.8637 5.2992C12.8301 5.23869 12.8013 5.17569 12.7775 5.11072C13.1357 4.57414 13.5279 4.06092 13.9514 3.5742C14.6941 2.77558 15.5359 2.21336 16.6987 2.51524C17.4749 2.71649 18.0531 3.21322 18.5354 3.82816C19.5146 5.07559 19.973 6.54343 20.2285 8.07357C20.4192 9.08421 20.4628 10.1171 20.3579 11.1402Z" fill="#7B818D"/>
</g>
</g>
</g>
<defs>
<clipPath id="clip0_7635_21918">
<rect width="74.8758" height="27.5278" fill="white" transform="translate(0.316406 0.503906)"/>
</clipPath>
</defs>
</svg>
