<svg width="133" height="24" viewBox="0 0 133 24" fill="none" xmlns="http://www.w3.org/2000/svg">
<path d="M42.2904 12.7085V8.9874C41.1455 8.41492 39.8684 7.99657 38.4372 8.12868C33.7253 8.12868 30.5767 11.2773 30.5767 15.8351C30.5767 20.3929 33.7253 23.5415 38.151 23.5415C39.5822 23.5415 41.0134 23.2553 42.2904 22.5507V18.8296C41.4317 19.9745 40.0005 20.6791 38.5693 20.6791C35.7069 20.6791 33.9895 18.8296 33.9895 15.8131C33.9895 12.9507 35.7069 11.1012 38.4152 11.1012C39.8684 11.0131 41.2996 11.5856 42.2904 12.7085ZM29.5858 23.1452L21.0207 0.158037L16.0225 12.7305C15.6042 13.7213 15.318 14.8663 15.0317 15.8791C14.8996 14.8883 14.4592 13.8755 14.0409 12.8846L9.04272 0.180054L0.455566 23.1452H4.02254L8.16199 11.8718C8.58034 10.7268 8.86658 9.58189 9.15281 8.43694C9.57116 9.714 9.8574 10.859 10.2978 12.0039L15.0097 24.0039L19.4354 12.158C19.5675 11.7397 20.0079 10.5947 20.5803 8.43694C20.9987 9.58189 21.2849 10.7268 21.7253 12.0039L25.8647 23.1452H29.5858ZM112.837 22.9911H116.118V7.5562C116.69 8.41492 117.395 9.27364 118.254 9.97822L132.544 23.6957V0.862624H129.263V16.1434C128.558 15.1525 127.7 14.2938 126.841 13.4351L112.991 0.00390625L112.837 22.9911ZM88.7051 22.9911H91.9858V7.5562C92.5583 8.41492 93.2629 9.27364 94.1216 9.97822L108.412 23.6957V0.862624H105.131V16.1434C104.426 15.1525 103.567 14.2938 102.709 13.4351L88.7051 0.00390625V22.9911ZM63.8464 6.30116L63.9785 2.73418C61.8427 1.17088 59.3987 0.444273 56.8446 0.444273C53.5638 0.444273 50.7014 1.58923 48.4115 3.72501C46.2757 5.86079 44.9767 8.8773 44.9767 12.0039C44.9767 15.1305 46.1216 18.147 48.2574 20.2828C50.3932 22.4186 53.4097 23.5635 56.6904 23.5635C59.3987 23.5635 61.5565 22.859 63.5381 21.4278V17.4204C61.4024 19.27 58.9583 20.2828 56.4042 20.2828C51.9785 20.2828 48.6978 16.8479 48.6978 12.0039C48.6978 7.15987 51.9785 3.72501 56.8446 3.72501C59.5748 3.72501 61.7106 4.58372 63.8464 6.30116ZM76.0005 0.00390625L65.2996 22.9911H69.0207L71.5968 17.2883H80.3161L82.7381 22.9911H86.5913L76.0005 0.00390625ZM73.006 14.2938L75.2959 9.29565C75.5822 8.43694 75.8684 7.57822 76.1546 6.87363C76.4409 7.73235 76.7271 8.59107 77.0134 9.29565L79.3033 14.2938H73.006Z" fill="#858FA1"/>
</svg>
