<svg width="25" height="25" viewBox="0 0 25 25" fill="none" xmlns="http://www.w3.org/2000/svg">
<g clip-path="url(#clip0_7635_22013)">
<path d="M16.3346 10.6895C16.4138 10.6553 16.483 10.6013 16.5355 10.5327C16.5879 10.4642 16.622 10.3834 16.6344 10.2979C16.6467 10.2125 16.637 10.1253 16.6061 10.0447C16.5752 9.96406 16.5242 9.8927 16.4579 9.83741C16.0145 9.46785 15.5219 9.1617 14.9943 8.92771C14.9524 8.90962 14.9162 8.88049 14.8896 8.84342C14.863 8.80635 14.847 8.76275 14.8432 8.71727C14.8395 8.6718 14.8482 8.62616 14.8684 8.58525C14.8886 8.54434 14.9195 8.50968 14.9579 8.48499C15.7838 7.94884 16.4142 7.16005 16.7552 6.23629C17.0961 5.31252 17.1292 4.30329 16.8497 3.35915C16.5701 2.41501 15.9927 1.58655 15.2038 0.997365C14.4149 0.40818 13.4566 0.0898438 12.4719 0.0898438C11.4872 0.0898437 10.529 0.40818 9.74001 0.997365C8.95106 1.58655 8.37374 2.41501 8.09416 3.35915C7.81457 4.30329 7.84772 5.31252 8.18865 6.23629C8.52957 7.16005 9.16001 7.94884 9.98591 8.48499C10.024 8.50981 10.0547 8.54445 10.0748 8.58526C10.0949 8.62607 10.1035 8.67154 10.0999 8.71688C10.0963 8.76221 10.0805 8.80572 10.0542 8.84283C10.0279 8.87994 9.9921 8.90926 9.95054 8.92771C9.41008 9.16643 8.90637 9.4809 8.45459 9.86167C8.38918 9.91694 8.33888 9.98793 8.30842 10.068C8.27796 10.148 8.26834 10.2345 8.28047 10.3193C8.29259 10.404 8.32607 10.4843 8.37774 10.5526C8.42941 10.6209 8.4976 10.675 8.57589 10.7097C9.51062 11.1276 10.3253 11.7737 10.9451 12.5887C10.9922 12.6515 11.0533 12.7024 11.1234 12.7375C11.1936 12.7726 11.271 12.7909 11.3494 12.7909H13.5064C13.5849 12.7909 13.6623 12.7726 13.7324 12.7375C13.8026 12.7024 13.8637 12.6515 13.9107 12.5887C14.5432 11.759 15.3777 11.1051 16.3346 10.6895ZM10.0749 3.85768C10.0877 3.82175 10.1086 3.7892 10.1358 3.76248C10.1631 3.73576 10.1961 3.71556 10.2323 3.7034C10.2684 3.69125 10.3069 3.68744 10.3448 3.69228C10.3826 3.69712 10.4189 3.71047 10.4509 3.73134C11.4044 4.35366 12.5184 4.68487 13.657 4.68449C14.0084 4.68281 14.359 4.64897 14.7042 4.58342C14.7417 4.57651 14.7802 4.57817 14.8169 4.58827C14.8537 4.59837 14.8877 4.61664 14.9163 4.64172C14.945 4.6668 14.9676 4.69804 14.9825 4.7331C14.9974 4.76816 15.0042 4.80614 15.0024 4.8442C14.9654 5.50611 14.671 6.12731 14.182 6.57504C13.6931 7.02277 13.0485 7.26152 12.3859 7.24027C11.7233 7.21902 11.0952 6.93946 10.636 6.46132C10.1768 5.98318 9.9228 5.34439 9.9283 4.68146C9.92928 4.40047 9.97886 4.12177 10.0749 3.85768V3.85768Z" fill="#FF6726"/>
<path d="M10.6748 16.2696C10.679 15.4772 10.4769 14.6974 10.0884 14.0068C9.69986 13.3161 9.1383 12.7385 8.4589 12.3307C7.77951 11.9229 7.00567 11.699 6.21349 11.6809C5.42131 11.6628 4.63805 11.8512 3.94074 12.2275C3.24342 12.6039 2.65606 13.1552 2.23641 13.8273C1.81675 14.4995 1.57925 15.2693 1.54726 16.061C1.51527 16.8528 1.68989 17.6392 2.05395 18.343C2.418 19.0468 2.95897 19.6437 3.62364 20.0751C3.66146 20.1001 3.69188 20.1348 3.71174 20.1756C3.73159 20.2164 3.74016 20.2617 3.73655 20.3069C3.73294 20.3521 3.71728 20.3955 3.6912 20.4326C3.66512 20.4697 3.62958 20.4991 3.58827 20.5178C3.20134 20.6886 2.83314 20.8989 2.48956 21.1455C1.71031 21.6988 1.06934 22.4245 0.616597 23.2661C0.555425 23.3814 0.525108 23.5106 0.52859 23.6411C0.532072 23.7716 0.569234 23.899 0.636468 24.0109C0.703703 24.1227 0.798725 24.2153 0.91231 24.2797C1.02589 24.344 1.15418 24.3779 1.28472 24.378H10.9335C11.0641 24.3779 11.1924 24.344 11.3059 24.2797C11.4195 24.2153 11.5146 24.1227 11.5818 24.0109C11.649 23.899 11.6862 23.7716 11.6897 23.6411C11.6932 23.5106 11.6628 23.3814 11.6017 23.2661C11.1492 22.4238 10.5082 21.6973 9.7287 21.1435C9.38512 20.8969 9.01692 20.6866 8.62999 20.5158C8.58843 20.4974 8.55261 20.468 8.52632 20.4309C8.50003 20.3938 8.48424 20.3503 8.48062 20.305C8.477 20.2597 8.48568 20.2142 8.50574 20.1734C8.5258 20.1326 8.55651 20.0979 8.59462 20.0731C9.23106 19.6629 9.75478 19.1 10.1181 18.4357C10.4814 17.7714 10.6728 17.0267 10.6748 16.2696V16.2696ZM3.71158 15.4428C3.72446 15.4068 3.74531 15.3743 3.77257 15.3476C3.79983 15.3208 3.83279 15.3006 3.86897 15.2885C3.90515 15.2763 3.94362 15.2725 3.98148 15.2774C4.01935 15.2822 4.05562 15.2955 4.08759 15.3164C5.04107 15.9387 6.15515 16.2699 7.29375 16.2696C7.64516 16.2679 7.99567 16.2341 8.34091 16.1685C8.37843 16.162 8.41692 16.1639 8.45362 16.174C8.49032 16.1841 8.52432 16.2023 8.55318 16.2271C8.58179 16.2522 8.60437 16.2834 8.61925 16.3184C8.63412 16.3534 8.64091 16.3913 8.63909 16.4293C8.6021 17.0912 8.30769 17.7124 7.81877 18.1601C7.32985 18.6079 6.68521 18.8466 6.0226 18.8253C5.35999 18.8041 4.73197 18.5245 4.27275 18.0464C3.81352 17.5683 3.55952 16.9295 3.56502 16.2665C3.56599 15.9855 3.61558 15.7068 3.71158 15.4428V15.4428Z" fill="#FF6726"/>
<path d="M22.3635 21.1417C22.0199 20.8951 21.6517 20.6847 21.2648 20.514C21.2232 20.4955 21.1874 20.4662 21.1611 20.4291C21.1348 20.392 21.119 20.3485 21.1154 20.3031C21.1118 20.2578 21.1204 20.2123 21.1405 20.1715C21.1606 20.1307 21.1913 20.0961 21.2294 20.0713C22.0554 19.5352 22.686 18.7464 23.027 17.8227C23.368 16.8989 23.4013 15.8896 23.1217 14.9454C22.8422 14.0012 22.2649 13.1726 21.4759 12.5834C20.6869 11.9942 19.7286 11.6758 18.7439 11.6758C17.7592 11.6758 16.8008 11.9942 16.0119 12.5834C15.2229 13.1726 14.6456 14.0012 14.3661 14.9454C14.0865 15.8896 14.1198 16.8989 14.4608 17.8227C14.8018 18.7464 15.4324 19.5352 16.2584 20.0713C16.2962 20.0963 16.3266 20.131 16.3465 20.1717C16.3664 20.2125 16.3749 20.2579 16.3713 20.3031C16.3677 20.3483 16.352 20.3917 16.326 20.4288C16.2999 20.4659 16.2643 20.4953 16.223 20.514C15.8361 20.6847 15.4679 20.8951 15.1243 21.1417C14.3448 21.6955 13.7039 22.4219 13.2514 23.2643C13.1902 23.3796 13.1599 23.5088 13.1634 23.6393C13.1668 23.7698 13.204 23.8971 13.2712 24.009C13.3385 24.1209 13.4335 24.2135 13.5471 24.2778C13.6607 24.3422 13.7889 24.376 13.9195 24.3761H23.5683C23.6988 24.376 23.8271 24.3422 23.9407 24.2778C24.0543 24.2135 24.1493 24.1209 24.2166 24.009C24.2838 23.8971 24.321 23.7698 24.3244 23.6393C24.3279 23.5088 24.2976 23.3796 24.2364 23.2643C23.7839 22.4219 23.1429 21.6955 22.3635 21.1417V21.1417ZM16.3463 15.4409C16.3592 15.405 16.3801 15.3724 16.4073 15.3457C16.4346 15.319 16.4676 15.2988 16.5037 15.2866C16.5399 15.2745 16.5784 15.2707 16.6162 15.2755C16.6541 15.2804 16.6904 15.2937 16.7224 15.3146C17.6758 15.9369 18.7899 16.2681 19.9285 16.2677C20.2799 16.266 20.6304 16.2322 20.9757 16.1667C21.0132 16.1601 21.0517 16.162 21.0884 16.1722C21.1251 16.1823 21.1591 16.2004 21.1879 16.2253C21.2166 16.2503 21.2391 16.2815 21.254 16.3165C21.2689 16.3515 21.2757 16.3894 21.2739 16.4274C21.2369 17.0893 20.9425 17.7105 20.4535 18.1583C19.9646 18.606 19.32 18.8448 18.6574 18.8235C17.9948 18.8023 17.3667 18.5227 16.9075 18.0446C16.4483 17.5664 16.1943 16.9276 16.1998 16.2647C16.2008 15.9837 16.2503 15.705 16.3463 15.4409V15.4409Z" fill="#FF6726"/>
</g>
<defs>
<clipPath id="clip0_7635_22013">
<rect width="24.2585" height="24.2585" fill="white" transform="translate(0.296875 0.117188)"/>
</clipPath>
</defs>
</svg>
