<svg width="82" height="32" viewBox="0 0 82 32" fill="none" xmlns="http://www.w3.org/2000/svg">
<path d="M11.6859 1.03125C5.4924 1.03125 0.234863 5.50957 0.234863 12.3966C0.234863 18.5938 4.91465 23.5047 11.6166 23.5047C17.7985 23.5047 23.0676 19.0264 23.0676 12.1394C23.0676 5.9539 18.3878 1.03125 11.6859 1.03125V1.03125ZM11.6859 22.1717C7.65319 22.1717 4.76444 17.9974 4.76444 12.2446C4.76444 6.73731 7.50298 2.37592 11.6281 2.37592C15.6608 2.37592 18.5496 6.55023 18.5496 12.3031C18.538 17.8103 15.7995 22.1717 11.6859 22.1717ZM75.8626 9.55527V10.4907L77.099 10.7362C77.5265 10.8298 77.6536 11.1689 77.3763 11.8587L74.5337 18.7808C74.4066 19.0615 74.2564 19.0615 74.164 18.7808L71.5179 11.8704C71.2405 11.1572 71.3908 10.8415 71.8299 10.7479L73.0547 10.5024V9.56696H62.1005V10.5024L63.3369 10.7479C63.7644 10.8415 63.9262 11.1806 63.6489 11.8704L60.9103 19.155C60.7832 19.4356 60.633 19.4356 60.5406 19.155L57.7674 11.8704C57.5247 11.1572 57.6403 10.8415 58.0794 10.7479L59.3042 10.5024V9.56696H52.3481V10.5258L53.0298 10.6778C53.492 10.7713 53.7693 11.0169 53.9542 11.4612L58.6571 23.1656H60.7832L65.4861 11.4612C65.7288 10.8415 66.0061 10.5842 66.503 10.5842H66.6879C67.0923 10.5842 67.3927 10.7362 67.6469 11.3326L72.5694 23.4813L71.2521 26.6618C70.3855 28.7782 69.7499 29.1523 68.9411 29.1523C68.606 29.1523 68.2362 29.0939 67.8665 29.0939C66.9074 29.0939 66.3297 29.7837 66.3297 30.5204C66.3297 31.3623 67.0114 31.9586 68.086 31.9586C69.6228 31.9586 71.1366 30.7075 72.3961 27.7258L79.098 11.812C79.41 11.0987 79.8028 10.783 80.4499 10.6544L81.1201 10.5258V9.55527H75.8626ZM32.7276 21.9496L27.5856 22.6044C25.8986 22.8265 25.3671 22.2653 25.3671 21.3883C25.3671 20.3594 26.4763 19.5526 30.3242 19.5526H30.3819C33.1783 19.5526 36.4715 17.8454 36.4715 14.1388C36.4715 12.9579 36.0439 11.8704 35.2351 10.9935C34.9565 10.3911 34.8295 9.72828 34.8653 9.06417C34.8653 6.32807 36.7141 4.77293 38.6207 4.77293C39.418 4.77293 39.6722 4.90155 39.6722 5.4628C39.6722 5.61481 39.6375 5.74343 39.6375 5.93051C39.6375 6.90101 40.4348 7.80135 41.5788 7.80135C42.7458 7.80135 43.4854 6.86593 43.4854 5.83697C43.4854 4.28184 42.0988 3.12425 39.5451 3.12425C36.0324 3.12425 33.3285 5.42772 33.3285 8.94724C33.3285 9.22787 33.3631 9.45003 33.3631 9.6605C32.4539 9.28382 31.48 9.09307 30.4975 9.09925C27.7243 9.09925 24.408 10.8064 24.408 14.513C24.408 16.2201 25.3671 17.8104 27.0194 18.7458C24.5582 19.0849 23.1485 20.4295 23.1485 22.5108C23.1485 24.6272 24.8124 26.159 27.9207 25.7848L32.4156 25.2236C34.6573 24.9429 35.3968 25.7497 35.3968 26.9307C35.3968 28.9886 33.4903 30.6373 30.4397 30.6373C28.0132 30.6373 27.1119 29.7603 27.1119 28.5209L27.1465 27.9012C27.1465 27.1529 26.6843 26.6267 25.9448 26.5916C25.0782 26.5916 24.5582 27.2113 24.5582 28.1117C24.5582 30.1696 26.4995 32.0054 30.4628 32.0054C34.9231 32.0054 37.7541 29.0822 37.7541 25.7146C37.7656 23.037 35.651 21.5754 32.7276 21.9496ZM30.4166 10.2101C31.861 10.2101 33.028 11.8587 33.028 14.3844C33.028 16.5592 32.0459 18.4301 30.5091 18.4301C29.03 18.4301 27.863 16.7814 27.863 14.2558C27.863 12.116 28.8451 10.2101 30.4166 10.2101Z" fill="#858FA1"/>
<path d="M51.158 21.5536V0.00390625L45.7387 1.40704V2.06183L47.2755 2.56462C47.5182 2.65816 47.6106 2.84524 47.6106 3.09079V21.4601C47.6106 21.7992 47.3333 22.0564 46.9289 22.0564L45.5538 22.0798L44.0979 22.0564C43.6935 22.0564 43.4161 21.8109 43.4161 21.4601V9.03071L37.9968 10.4338V11.0886L39.5336 11.5914C39.7763 11.685 39.8687 11.872 39.8687 12.1176V21.5536C39.8687 21.8343 39.7185 21.9863 39.499 22.0214L38.2395 22.1734V23.1672H53.0068V22.1734L51.5047 22.0214C51.3082 21.9863 51.158 21.8343 51.158 21.5536V21.5536Z" fill="#858FA1"/>
</svg>
