<svg width="40" height="41" viewBox="0 0 40 41" fill="none" xmlns="http://www.w3.org/2000/svg">
<path d="M0.188477 20.2354C0.188477 28.7074 5.4986 35.9409 12.9718 38.7869C12.7899 37.2374 12.5964 34.6824 13.0132 32.8897C13.372 31.3485 15.33 23.0699 15.33 23.0699C15.33 23.0699 14.7396 21.8875 14.7396 20.1362C14.7396 17.391 16.3305 15.3403 18.3134 15.3403C20.0002 15.3403 20.8138 16.6054 20.8138 18.1219C20.8138 19.817 19.7339 22.3505 19.1766 24.7005C18.7119 26.6667 20.1639 28.2709 22.1021 28.2709C25.6129 28.2709 28.3135 24.5682 28.3135 19.2233C28.3135 14.492 24.9134 11.1862 20.0597 11.1862C14.4403 11.1862 11.1411 15.4015 11.1411 19.7591C11.1411 21.4575 11.7944 23.2766 12.6113 24.2672C12.6809 24.342 12.7302 24.4335 12.7542 24.5328C12.7782 24.6322 12.7763 24.736 12.7486 24.8344C12.5981 25.4595 12.264 26.8007 12.1995 27.0752C12.1119 27.4357 11.9134 27.5135 11.538 27.3382C9.07066 26.1905 7.52939 22.5837 7.52939 19.6863C7.52939 13.4534 12.0556 7.73153 20.5806 7.73153C27.4337 7.73153 32.7603 12.615 32.7603 19.1406C32.7603 25.949 28.4689 31.4295 22.5089 31.4295C20.5062 31.4295 18.6259 30.3876 17.981 29.1589C17.981 29.1589 16.9904 32.9327 16.7506 33.8555C16.2842 35.6482 14.991 37.9171 14.189 39.2053C16.0378 39.7742 17.9992 40.0801 20.0332 40.0801C30.9925 40.0801 39.878 31.1947 39.878 20.2354C39.878 9.27612 30.9925 0.390625 20.0332 0.390625C9.07397 0.390625 0.188477 9.27612 0.188477 20.2354Z" fill="#CC0000"/>
</svg>
