<svg width="28" height="29" viewBox="0 0 28 29" fill="none" xmlns="http://www.w3.org/2000/svg">
<g clip-path="url(#clip0_7635_22023)">
<path d="M14 4.56641C10.3462 4.57036 6.84318 6.02358 4.25955 8.6072C1.67592 11.1908 0.222702 14.6939 0.21875 18.3477V21.0936C0.219662 21.9805 0.572416 22.8309 1.1996 23.4581C1.82679 24.0853 2.67717 24.4381 3.56415 24.439H24.4359C25.3228 24.4381 26.1732 24.0853 26.8004 23.4581C27.4276 22.8309 27.7803 21.9805 27.7812 21.0936V18.3477C27.7773 14.6939 26.3241 11.1908 23.7405 8.6072C21.1568 6.02358 17.6538 4.57036 14 4.56641ZM24.4359 22.1375H3.56415C3.28695 22.1372 3.02112 22.0273 2.82468 21.8317C2.62824 21.6361 2.51714 21.3708 2.51562 21.0936V19.5558H5.38672C5.61516 19.5558 5.83424 19.4651 5.99577 19.3035C6.1573 19.142 6.24805 18.9229 6.24805 18.6945C6.24805 18.466 6.1573 18.247 5.99577 18.0854C5.83424 17.9239 5.61516 17.8332 5.38672 17.8332H2.52711C2.58877 16.411 2.91637 15.0129 3.49295 13.7114L5.82313 15.0597C6.0211 15.1739 6.25635 15.2048 6.47711 15.1456C6.69787 15.0863 6.88605 14.9418 7.00027 14.7439C7.11449 14.5459 7.14539 14.3106 7.08616 14.0899C7.02693 13.8691 6.88243 13.6809 6.68445 13.5667L4.30719 12.1886C5.06191 11.0059 6.02589 9.9707 7.15187 9.13374L8.4496 11.3812C8.56626 11.5766 8.75441 11.7188 8.97416 11.7778C9.19391 11.8367 9.42798 11.8078 9.62675 11.6971C9.72473 11.6404 9.8106 11.5651 9.87944 11.4753C9.94829 11.3855 9.99877 11.283 10.028 11.1737C10.0572 11.0644 10.0646 10.9504 10.0498 10.8382C10.0349 10.726 9.99809 10.6179 9.94142 10.5199L8.60809 8.2104C10.0099 7.46049 11.5532 7.01255 13.1387 6.89544V9.50928C13.1387 9.73772 13.2294 9.9568 13.3909 10.1183C13.5525 10.2799 13.7716 10.3706 14 10.3706C14.2284 10.3706 14.4475 10.2799 14.6091 10.1183C14.7706 9.9568 14.8613 9.73772 14.8613 9.50928V6.89544C16.6442 7.03086 18.371 7.58049 19.9041 8.50058C21.4373 9.42068 22.7346 10.6859 23.6928 12.1955L21.3155 13.5736C21.1176 13.6878 20.9731 13.876 20.9138 14.0968C20.8546 14.3175 20.8855 14.5528 20.9997 14.7507C21.1139 14.9487 21.3021 15.0932 21.5229 15.1525C21.7436 15.2117 21.9789 15.1808 22.1769 15.0666L24.5071 13.7206C25.0825 15.0193 25.4101 16.4141 25.4729 17.8332H22.6133C22.5002 17.8332 22.3882 17.8554 22.2837 17.8987C22.1792 17.942 22.0842 18.0054 22.0042 18.0854C21.9242 18.1654 21.8608 18.2604 21.8175 18.3649C21.7742 18.4694 21.752 18.5814 21.752 18.6945C21.752 18.8076 21.7742 18.9196 21.8175 19.0241C21.8608 19.1286 21.9242 19.2236 22.0042 19.3035C22.0842 19.3835 22.1792 19.447 22.2837 19.4902C22.3882 19.5335 22.5002 19.5558 22.6133 19.5558H25.4844V21.0913C25.4845 21.2291 25.4575 21.3656 25.4049 21.4931C25.3523 21.6205 25.2751 21.7363 25.1777 21.8338C25.0804 21.9314 24.9648 22.0089 24.8375 22.0618C24.7102 22.1146 24.5737 22.1419 24.4359 22.1421V22.1375Z" fill="#FF6726"/>
<path d="M19.2426 10.0525C19.1478 9.99085 19.0417 9.94851 18.9305 9.92791C18.8193 9.9073 18.7051 9.90883 18.5945 9.9324C18.4839 9.95598 18.379 10.0011 18.2859 10.0653C18.1927 10.1294 18.1131 10.2113 18.0517 10.3063L14.6064 15.6109C14.0128 15.4671 13.3874 15.5377 12.8409 15.8105C12.2944 16.0832 11.8619 16.5404 11.6199 17.1012C11.3779 17.662 11.3421 18.2903 11.5186 18.875C11.6952 19.4597 12.0729 19.9632 12.5848 20.2963C13.0967 20.6295 13.71 20.7708 14.3161 20.6955C14.9222 20.6201 15.4822 20.3328 15.8969 19.8845C16.3117 19.4361 16.5545 18.8555 16.5825 18.2454C16.6106 17.6352 16.4219 17.0348 16.05 16.5504L19.4953 11.2446C19.6196 11.0529 19.6629 10.8198 19.6155 10.5963C19.5681 10.3728 19.434 10.1772 19.2426 10.0525Z" fill="#FF6726"/>
</g>
<defs>
<clipPath id="clip0_7635_22023">
<rect width="27.5625" height="27.5625" fill="white" transform="translate(0.21875 0.71875)"/>
</clipPath>
</defs>
</svg>
