<svg width="40" height="41" viewBox="0 0 40 41" fill="none" xmlns="http://www.w3.org/2000/svg">
<g clip-path="url(#clip0_7635_21881)">
<circle cx="19.8838" cy="20.2315" r="19.8448" fill="black"/>
<path d="M17.2502 17.3964V16.3191C16.8895 16.2701 16.523 16.2394 16.1491 16.2394C11.6432 16.2394 7.97754 19.9051 7.97754 24.411C7.97754 27.1756 9.3588 29.6221 11.466 31.1016C10.106 29.6415 9.2988 27.6856 9.2988 25.5375C9.2988 21.0964 12.8334 17.4996 17.2502 17.3964Z" fill="#25F4EE"/>
<path d="M17.4432 29.293C19.4535 29.293 21.1169 27.6709 21.1915 25.6783L21.2084 7.9115L24.4304 7.91269L24.4255 7.88596C24.3577 7.52042 24.3206 7.1443 24.3206 6.75944H19.881L19.8739 24.5518C19.7992 26.5442 18.1594 28.1434 16.1491 28.1434C15.5243 28.1434 14.9359 27.9872 14.418 27.7146C15.0963 28.6546 16.198 29.293 17.4432 29.293Z" fill="#25F4EE"/>
<path d="M30.4964 13.9805V12.9382C29.2564 12.9382 28.1014 12.5695 27.1328 11.938C27.9952 12.9285 29.1667 13.6958 30.4964 13.9805Z" fill="#25F4EE"/>
<path d="M27.1328 11.9336C26.1879 10.8484 25.6138 9.43229 25.6138 7.88387H24.4043C24.7174 9.57544 25.7418 11.0266 27.1328 11.9336Z" fill="#FE2C55"/>
<path d="M16.1493 20.6459C14.0916 20.6459 12.3926 22.3538 12.3926 24.4117C12.3926 25.8447 13.2303 27.0897 14.4181 27.7148C13.9755 27.1014 13.7114 26.3509 13.7114 25.5383C13.7114 23.4805 15.3856 21.8063 17.4433 21.8063C17.8275 21.8063 18.196 21.8696 18.5445 21.9788V17.4464C18.1838 17.3974 17.8173 17.3667 17.4433 17.3667C17.3786 17.3667 17.3147 17.37 17.2504 17.3716L17.2333 17.3724L17.2213 20.8032C16.8727 20.694 16.5334 20.6459 16.1493 20.6459Z" fill="#FE2C55"/>
<path d="M30.4969 13.9225L30.4763 13.9184L30.4753 17.3464C28.1733 17.3464 26.0343 16.5887 24.2931 15.3389L24.2945 24.4089C24.2945 28.9149 20.6547 32.5578 16.1489 32.5578C14.4076 32.5578 12.7931 32.0313 11.4658 31.0995C12.9587 32.702 15.0852 33.707 17.4429 33.707C21.9488 33.707 25.6144 30.0414 25.6144 25.5355V16.5133C27.3557 17.7631 29.489 18.4995 31.791 18.4995V14.0599C31.3472 14.0599 30.9145 14.0119 30.4969 13.9225Z" fill="#FE2C55"/>
<path d="M24.3204 24.4105V15.3883C26.0617 16.6381 28.195 17.3745 30.497 17.3745V13.9241C29.1673 13.6393 27.9959 12.9253 27.1334 11.9347C25.7424 11.0278 24.7384 9.5766 24.4253 7.88503H21.1749L21.1678 25.6774C21.0931 27.6699 19.4533 29.2689 17.443 29.2689C16.1978 29.2689 15.0961 28.6537 14.4178 27.7136C13.2299 27.0885 12.4169 25.8434 12.4169 24.4105C12.4169 22.3527 14.0912 20.6785 16.1489 20.6785C16.533 20.6785 16.9015 20.7418 17.2501 20.8509V17.3703C12.8333 17.4735 9.27148 21.0959 9.27148 25.537C9.27148 27.6851 10.1058 29.641 11.4659 31.1011C12.7931 32.0328 14.4076 32.582 16.1489 32.582C20.6547 32.582 24.3204 28.9164 24.3204 24.4105Z" fill="white"/>
</g>
<defs>
<clipPath id="clip0_7635_21881">
<rect x="0.0390625" y="0.390625" width="39.6895" height="39.6895" fill="white"/>
</clipPath>
</defs>
</svg>
