<svg width="25" height="33" viewBox="0 0 25 33" fill="none" xmlns="http://www.w3.org/2000/svg">
<path fill-rule="evenodd" clip-rule="evenodd" d="M19.0901 1.47266C20.202 1.47266 21.4529 2.66802 21.4529 3.86356C21.4529 4.58624 20.5077 5.86499 19.4236 5.86499C18.5897 5.86499 19.0342 4.72517 17.4776 4.33606C17.144 4.19713 17.0049 3.97463 17.0049 3.66873C17.005 2.41784 18.2838 1.47266 19.0901 1.47266ZM8.8999 10.3449C8.8999 9.28866 9.87294 8.06526 10.9571 8.06526C11.5685 8.06526 12.2915 8.62133 12.2915 9.8167C12.2915 9.92776 11.0126 12.0406 10.151 12.0406C9.37258 12.0406 8.8999 11.3456 8.8999 10.3449ZM14.9066 10.4323L14.9346 10.3489C15.2123 9.34802 15.7962 8.79213 16.4357 8.79213C17.2696 8.79213 18.1871 9.84856 18.1871 11.1552C18.1871 12.1837 17.5477 12.9343 16.7693 12.9343C16.1853 12.9343 15.9076 12.573 15.6573 11.8779C15.3791 11.1273 15.3514 11.0716 14.9066 10.4323ZM11.6091 13.7566C11.6091 13.423 11.8591 13.2562 12.2482 13.2562C14.1387 13.2562 14.5559 13.7287 14.5559 14.0344C14.5559 14.3125 14.4446 14.3403 13.8052 14.4516C13.138 14.5628 13.2212 14.9241 12.9712 14.9241C12.7209 14.9241 12.8877 14.5071 12.3041 14.2848C11.7755 14.0901 11.6091 13.9791 11.6091 13.7566Z" fill="#858FA1"/>
<path fill-rule="evenodd" clip-rule="evenodd" d="M20.7156 8.77105C20.7156 12.7464 18.7978 14.5813 15.8506 14.5813C14.7111 14.5813 15.2947 15.6655 14.1272 15.6655C13.6545 15.6655 13.3765 15.165 12.8206 15.165C12.5147 15.165 12.1811 15.332 11.8199 15.332C10.6522 15.332 10.9024 14.0532 10.5133 13.8864C8.87308 13.2191 8.84522 13.2191 8.53951 13.0246C7.31629 12.1905 6.78807 11.0509 6.78807 9.32731C6.78807 7.60373 7.45522 5.37979 8.53951 4.40675C8.87308 4.62926 9.06772 4.74033 9.26219 4.74033C9.67933 4.74033 9.81826 4.15658 10.7634 3.823C11.9309 3.40586 11.9309 3.40586 11.9309 2.79443C11.9309 1.1821 10.9859 0.320312 9.98505 0.320312C8.67844 0.320312 7.39968 1.40442 7.39968 2.46086C7.39968 2.98907 7.7054 3.51729 8.12254 3.96211C5.84289 5.35212 4.5086 7.52034 4.5086 10.1614C4.5086 11.0511 4.64753 11.3568 4.64753 11.9963C4.64753 12.7468 4.36949 13.1916 4.36949 13.9145C4.36949 14.2757 4.51443 14.9959 4.75878 15.4157C2.59038 13.8034 1.39502 11.7184 1.39502 9.29981C1.39502 6.90909 2.53484 4.99087 4.5086 3.60086L4.64753 3.48961C1.89538 4.62944 0.0605469 7.46499 0.0605469 11.0511C0.0605469 12.9138 0.616622 14.0255 0.616622 14.5816C0.616622 14.8041 0.533229 15.3045 0.533229 15.9438C0.533229 17.0834 1.42288 19.1963 2.20127 20.197C2.81288 20.9754 3.75806 21.4204 4.87003 21.4204C5.73182 21.4204 6.31557 21.1424 6.31557 20.6697C6.31557 20.3361 5.87093 19.5577 5.84289 17.8065L7.37182 20.7533C8.81736 23.5054 9.92933 24.3672 12.3481 24.3672C13.3765 24.3672 14.016 24.0613 14.016 23.5333C14.016 23.1161 13.182 22.0877 13.182 19.1965C13.182 17.8898 13.4879 17.195 14.2104 17.195C14.7388 17.195 14.9888 17.6398 14.9888 18.6406C14.9888 20.1416 14.6276 21.7818 14.6276 22.2545C14.6276 22.8661 15.0724 23.2275 15.9619 23.2275C17.4906 23.2275 18.8808 22.2824 19.6315 20.8925C20.7435 18.8352 21.5217 14.832 21.5217 12.8582C21.5219 11.2452 21.1328 9.57731 20.7156 8.77105ZM13.0256 16.518C12.3585 16.518 11.7194 16.1009 11.6081 15.6005C12.5533 15.823 13.3037 15.9341 14.1654 15.9341C13.9431 16.2955 13.5817 16.518 13.0256 16.518ZM21.157 22.1245C20.7427 22.1245 20.4066 22.4502 20.4066 22.8483C20.4066 23.2543 20.7427 23.5799 21.157 23.5799C21.5696 23.5799 21.9035 23.2545 21.9035 22.8483C21.9033 22.4502 21.5694 22.1245 21.157 22.1245ZM21.157 23.4375C20.8192 23.4375 20.5488 23.18 20.5488 22.8483C20.5488 22.5264 20.819 22.2669 21.157 22.2669C21.4909 22.2669 21.7611 22.5265 21.7611 22.8483C21.7611 23.18 21.4909 23.4375 21.157 23.4375Z" fill="#858FA1"/>
<path fill-rule="evenodd" clip-rule="evenodd" d="M21.5407 22.6598C21.5407 22.5919 21.5098 22.5196 21.4479 22.4848C21.3842 22.4497 21.3142 22.4453 21.2441 22.4453H20.8789V23.2598H21.0027V22.8845H21.1493L21.3882 23.2598H21.5304L21.2767 22.8845C21.4255 22.8805 21.5407 22.8204 21.5407 22.6598ZM21.1389 22.7834H21.0027V22.538H21.2192C21.3244 22.538 21.4169 22.5526 21.4169 22.6578C21.4171 22.804 21.2563 22.7834 21.1389 22.7834ZM16.9774 32.0714C17.512 32.0714 17.6726 31.9323 17.6726 31.5155V27.5676C17.6726 27.1785 17.4499 27.0673 16.9496 27.0673V26.8728H21.5923V28.3462H21.3978C21.3978 27.5678 20.9251 27.2346 20.1191 27.2346H19.3407V29.3471H19.7019C20.3135 29.3471 20.4526 28.958 20.4803 28.2908H20.6748V30.7373H20.4803C20.4803 30.0701 20.2299 29.6807 19.7019 29.6807H19.3407V31.4876C19.3407 31.9603 19.4798 32.0716 20.0355 32.0716V32.266H16.9774V32.0714ZM4.19772 28.6801L2.89038 32.3217H2.44555L1.05555 28.2074C0.694118 27.0676 0.572305 27.0716 0.221436 27.0676V26.8732H2.83466V27.0676C2.39311 27.0747 2.38583 27.4079 2.47341 27.7071L3.30734 30.2367L4.03093 28.2074C3.6695 27.0676 3.54769 27.0716 3.197 27.0676V26.8732H5.81023V27.0676C5.36868 27.0747 5.3614 27.4079 5.4488 27.7071L6.28273 30.2367L7.22791 27.6235C7.3266 27.2451 7.22791 27.0955 6.92201 27.0676V26.8732H8.22862V27.0676C7.89505 27.0676 7.70041 27.2067 7.50595 27.7624L5.86576 32.3216H5.42112L4.19772 28.6801ZM12.6231 28.6801L11.3158 32.3217H10.871L9.48098 28.2074C9.11955 27.0676 8.99774 27.0716 8.64687 27.0676V26.8732H11.2599V27.0676C10.8185 27.0747 10.8113 27.4079 10.8987 27.7071L11.7326 30.2367L12.4564 28.2074C12.0951 27.0676 11.9731 27.0716 11.6224 27.0676V26.8732H14.2357V27.0676C13.7939 27.0747 13.7868 27.4079 13.8744 27.7071L14.7083 30.2367L15.6535 27.6235C15.752 27.2451 15.6535 27.0955 15.3476 27.0676V26.8732H16.6542V27.0676C16.3207 27.0676 16.1262 27.2067 15.9312 27.7624L14.291 32.3216H13.8465L12.6231 28.6801Z" fill="#858FA1"/>
</svg>
