<svg width="41" height="41" viewBox="0 0 41 41" fill="none" xmlns="http://www.w3.org/2000/svg">
<path d="M20.7323 40.0801C9.74851 40.0828 0.85369 31.144 0.885829 20.154C0.917701 9.25546 9.80668 0.391905 20.741 0.390625C31.7178 0.389339 40.6521 9.35692 40.5748 20.3855C40.4992 31.1648 31.7319 40.0755 20.7323 40.0801ZM20.7215 29.5013C20.9871 29.5013 21.2527 29.5013 21.5183 29.5013C23.2355 29.5007 24.9518 29.4615 26.6672 29.3834C27.9683 29.3256 29.27 29.2684 30.5584 29.0614C32.0065 28.8287 32.9727 28.0238 33.3978 26.6091C33.5508 26.1001 33.622 25.5714 33.682 25.0433C33.9456 22.6986 34.0155 20.336 33.8911 17.9798C33.8259 16.7108 33.7444 15.4437 33.4906 14.1952C33.1888 12.7107 32.3203 11.7591 30.8309 11.411C30.3638 11.3019 29.8848 11.2557 29.4075 11.2122C27.5484 11.0428 25.6835 10.9838 23.8182 10.9464C22.5096 10.9201 21.2007 10.9022 19.8912 10.9165C18.2714 10.9343 16.652 10.9593 15.0336 11.0281C13.6547 11.0867 12.2752 11.1423 10.9093 11.3592C9.46138 11.5892 8.49162 12.3887 8.06354 13.8036C7.90955 14.3126 7.8376 14.8411 7.77748 15.369C7.51307 17.7137 7.44255 20.0762 7.56663 22.4325C7.6317 23.7014 7.71933 24.9673 7.96441 26.2176C8.19996 27.4192 8.8366 28.3071 9.97012 28.8083C10.5172 29.0501 11.1082 29.1082 11.6931 29.1716C13.2076 29.3359 14.7293 29.3969 16.251 29.4402C17.7407 29.4825 19.2314 29.4741 20.7215 29.5013Z" fill="#FE0101"/>
<path d="M20.722 29.5039C19.2319 29.4767 17.7412 29.4851 16.2516 29.4428C14.7299 29.3996 13.2082 29.3385 11.6936 29.1743C11.1087 29.1108 10.5178 29.0528 9.97066 28.8109C8.83715 28.3097 8.20051 27.4218 7.96496 26.2202C7.71987 24.9699 7.63225 23.7041 7.56717 22.4352C7.44309 20.0789 7.51361 17.7163 7.77802 15.3716C7.83814 14.8437 7.91009 14.3152 8.06408 13.8063C8.49216 12.3914 9.46193 11.5919 10.9099 11.3618C12.2757 11.1449 13.6553 11.0893 15.0341 11.0307C16.6526 10.9619 18.2719 10.9369 19.8917 10.9192C21.2012 10.9048 22.5101 10.9227 23.8188 10.949C25.684 10.9865 27.549 11.0454 29.4081 11.2148C29.8854 11.2583 30.3643 11.3045 30.8314 11.4137C32.3209 11.7618 33.1894 12.7133 33.4911 14.1978C33.7449 15.4463 33.8264 16.7134 33.8917 17.9824C34.0161 20.3387 33.9461 22.7012 33.6825 25.046C33.6226 25.574 33.5513 26.1027 33.3983 26.6118C32.9733 28.0264 32.007 28.8313 30.5589 29.064C29.2705 29.2711 27.9689 29.3282 26.6678 29.3861C24.9523 29.4623 23.236 29.5016 21.5189 29.5039C21.2533 29.504 20.9876 29.504 20.722 29.5039V29.5039ZM18.0372 16.3035V24.1238C20.3383 22.8171 22.6194 21.5217 24.923 20.2136L18.0372 16.3035Z" fill="white"/>
<path d="M18.0371 16.3008L24.9229 20.2109C22.6193 21.519 20.3381 22.8144 18.0371 24.121V16.3008Z" fill="#FE0101"/>
</svg>
